<svg width="75" height="12" viewBox="0 0 75 12" fill="none" xmlns="http://www.w3.org/2000/svg">
<g id="star">
<path id="Vector" d="M7.87423 4.6686L7.98543 5.01629H8.35047H11.4782L8.93013 6.87941L8.63924 7.0921L8.74901 7.43533L9.72105 10.4747L7.20363 8.61041L6.90607 8.39006L6.60851 8.61041L4.08516 10.4791L5.04321 7.45434L5.15101 7.11401L4.86411 6.90155L2.31832 5.01629H5.46167H5.82671L5.93791 4.6686L6.90607 1.64139L7.87423 4.6686Z" fill="#FFCE31" stroke="#F8BD02"/>
<path id="Vector_2" d="M23.1319 4.6686L23.2431 5.01629H23.6082H26.7359L24.1878 6.87941L23.8969 7.0921L24.0067 7.43533L24.9787 10.4747L22.4613 8.61041L22.1638 8.39006L21.8662 8.61041L19.3428 10.4791L20.3009 7.45434L20.4087 7.11401L20.1218 6.90155L17.576 5.01629H20.7194H21.0844L21.1956 4.6686L22.1638 1.64139L23.1319 4.6686Z" fill="#FFCE31" stroke="#F8BD02"/>
<path id="Vector_3" d="M38.3896 4.6686L38.5008 5.01629H38.8659H41.9936L39.4455 6.87941L39.1546 7.0921L39.2644 7.43533L40.2364 10.4747L37.719 8.61041L37.4215 8.39006L37.1239 8.61041L34.6005 10.4791L35.5586 7.45434L35.6664 7.11401L35.3795 6.90155L32.8337 5.01629H35.9771H36.3421L36.4533 4.6686L37.4215 1.64139L38.3896 4.6686Z" fill="#FFCE31" stroke="#F8BD02"/>
<path id="Vector_4" d="M53.6474 4.6686L53.7586 5.01629H54.1237H57.2514L54.7033 6.87941L54.4124 7.0921L54.5222 7.43533L55.4942 10.4747L52.9768 8.61041L52.6793 8.39006L52.3817 8.61041L49.8584 10.4791L50.8164 7.45434L50.9242 7.11401L50.6373 6.90155L48.0915 5.01629H51.2349H51.5999L51.7111 4.6686L52.6793 1.64139L53.6474 4.6686Z" fill="#FFCE31" stroke="#F8BD02"/>
<path id="Vector_5" d="M68.9051 4.6686L69.0163 5.01629H69.3814H72.5091L69.961 6.87941L69.6701 7.0921L69.7799 7.43533L70.7519 10.4747L68.2345 8.61041L67.937 8.39006L67.6394 8.61041L65.116 10.4791L66.0741 7.45434L66.1819 7.11401L65.895 6.90155L63.3492 5.01629H66.4926H66.8576L66.9688 4.6686L67.937 1.64139L68.9051 4.6686Z" stroke="#F8BD02"/>
</g>
</svg>
