<svg width="97" height="16" viewBox="0 0 97 16" fill="none" xmlns="http://www.w3.org/2000/svg">
<g id="star">
<path id="Vector" d="M10.4171 6.07231L10.5283 6.42H10.8933H15.4691L11.7449 9.14305L11.454 9.35575L11.5638 9.69898L12.9847 14.142L9.29756 11.4115L9 11.1912L8.70244 11.4115L5.00933 14.1464L6.40999 9.72431L6.51779 9.38398L6.2309 9.17152L2.51534 6.42H7.10667H7.47171L7.5829 6.07231L9 1.64139L10.4171 6.07231Z" fill="#FFCE31" stroke="#F8BD02"/>
<path id="Vector_2" d="M30.4171 6.07231L30.5283 6.42H30.8933H35.4691L31.7449 9.14305L31.454 9.35575L31.5638 9.69898L32.9847 14.142L29.2976 11.4115L29 11.1912L28.7024 11.4115L25.0093 14.1464L26.41 9.72431L26.5178 9.38398L26.2309 9.17152L22.5153 6.42H27.1067H27.4717L27.5829 6.07231L29 1.64139L30.4171 6.07231Z" fill="#FFCE31" stroke="#F8BD02"/>
<path id="Vector_3" d="M50.4171 6.07231L50.5283 6.42H50.8933H55.4691L51.7449 9.14305L51.454 9.35575L51.5638 9.69898L52.9847 14.142L49.2976 11.4115L49 11.1912L48.7024 11.4115L45.0093 14.1464L46.41 9.72431L46.5178 9.38398L46.2309 9.17152L42.5153 6.42H47.1067H47.4717L47.5829 6.07231L49 1.64139L50.4171 6.07231Z" fill="#FFCE31" stroke="#F8BD02"/>
<path id="Vector_4" d="M70.4171 6.07231L70.5283 6.42H70.8933H75.4691L71.7449 9.14305L71.454 9.35575L71.5638 9.69898L72.9847 14.142L69.2976 11.4115L69 11.1912L68.7024 11.4115L65.0093 14.1464L66.41 9.72431L66.5178 9.38398L66.2309 9.17152L62.5153 6.42H67.1067H67.4717L67.5829 6.07231L69 1.64139L70.4171 6.07231Z" fill="#FFCE31" stroke="#F8BD02"/>
<path id="Vector_5" d="M90.4171 6.07231L90.5283 6.42H90.8933H95.4691L91.7449 9.14305L91.454 9.35575L91.5638 9.69898L92.9847 14.142L89.2976 11.4115L89 11.1912L88.7024 11.4115L85.0093 14.1464L86.41 9.72431L86.5178 9.38398L86.2309 9.17152L82.5153 6.42H87.1067H87.4717L87.5829 6.07231L89 1.64139L90.4171 6.07231Z" fill="#FFCE31" stroke="#F8BD02"/>
</g>
</svg>
