<svg width="25" height="25" viewBox="0 0 25 25" fill="none" xmlns="http://www.w3.org/2000/svg">
<g id="carbon:user-filled">
<path id="Vector" d="M4.6875 23.4375H20.3125V19.5312C20.3108 18.0814 19.7341 16.6913 18.7089 15.6661C17.6837 14.6409 16.2936 14.0642 14.8438 14.0625H10.1562C8.70636 14.0642 7.31632 14.6409 6.29109 15.6661C5.26586 16.6913 4.68915 18.0814 4.6875 19.5312V23.4375ZM7.03125 7.03125C7.03125 8.11287 7.35199 9.17019 7.9529 10.0695C8.55381 10.9689 9.40792 11.6698 10.4072 12.0837C11.4065 12.4976 12.5061 12.6059 13.5669 12.3949C14.6277 12.1839 15.6022 11.6631 16.367 10.8982C17.1318 10.1334 17.6527 9.15898 17.8637 8.09815C18.0747 7.03732 17.9664 5.93773 17.5525 4.93845C17.1385 3.93917 16.4376 3.08506 15.5383 2.48415C14.6389 1.88324 13.5816 1.5625 12.5 1.5625C11.0496 1.5625 9.6586 2.13867 8.63301 3.16426C7.60742 4.18985 7.03125 5.58085 7.03125 7.03125Z" fill="#EDEDED"/>
</g>
</svg>
