<svg width="45" height="45" viewBox="0 0 45 45" fill="none" xmlns="http://www.w3.org/2000/svg">
<circle cx="22.5" cy="22.5" r="22.5" fill="#FF5C76"/>
<path d="M29.6336 23.5L33.4375 17.25H25.8289L22.5 11.7812L19.1715 17.25H11.5625L15.3668 23.5L11.5625 29.75H19.1715L22.5 35.2188L25.8289 29.75H33.4375L29.6336 23.5ZM29.8129 19.2031L28.4273 21.5188L27.018 19.2031H29.8129ZM27.2426 23.5L24.673 27.7969H20.3277L17.7582 23.5L20.3277 19.2031H24.6727L27.2426 23.5ZM22.5 15.5707L23.5047 17.25H21.4961L22.5 15.5707ZM15.1887 19.2031H17.982L16.573 21.518L15.1887 19.2031ZM15.1887 27.7969L16.573 25.482L17.9824 27.7969H15.1887ZM22.5 31.4293L21.4961 29.75H23.5051L22.5 31.4293ZM28.4273 25.4812L29.8129 27.7969H27.0184L28.4273 25.4812Z" fill="white"/>
<path d="M22.5 25.1742C23.4059 25.1742 24.1402 24.4246 24.1402 23.5C24.1402 22.5753 23.4059 21.8258 22.5 21.8258C21.5941 21.8258 20.8597 22.5753 20.8597 23.5C20.8597 24.4246 21.5941 25.1742 22.5 25.1742Z" fill="white"/>
</svg>
