<svg width="26" height="23" viewBox="0 0 26 23" fill="none" xmlns="http://www.w3.org/2000/svg">
    <g id="back">
        <path id="Vector"
            d="M24.375 9.75204H5.1025L11.0013 2.66703C11.2771 2.33518 11.4098 1.90735 11.3702 1.47766C11.3305 1.04797 11.1219 0.65161 10.79 0.375785C10.4581 0.0999597 10.0303 -0.0327409 9.60062 0.00687619C9.17093 0.0464932 8.77457 0.255183 8.49875 0.587035L0.37375 10.337C0.319086 10.4146 0.270204 10.4961 0.2275 10.5808C0.2275 10.662 0.2275 10.7108 0.11375 10.792C0.0400947 10.9784 0.00152932 11.1767 0 11.377C0.00152932 11.5774 0.0400947 11.7757 0.11375 11.962C0.11375 12.0433 0.11375 12.092 0.2275 12.1733C0.270204 12.258 0.319086 12.3395 0.37375 12.417L8.49875 22.167C8.65154 22.3505 8.84286 22.498 9.05912 22.5991C9.27539 22.7002 9.51127 22.7524 9.75 22.752C10.1297 22.7528 10.4976 22.6205 10.79 22.3783C10.9545 22.2419 11.0906 22.0743 11.1903 21.8853C11.29 21.6962 11.3514 21.4893 11.371 21.2765C11.3906 21.0637 11.3681 20.849 11.3046 20.6449C11.2412 20.4408 11.1381 20.2512 11.0013 20.087L5.1025 13.002H24.375C24.806 13.002 25.2193 12.8308 25.524 12.5261C25.8288 12.2213 26 11.808 26 11.377C26 10.9461 25.8288 10.5327 25.524 10.228C25.2193 9.92324 24.806 9.75204 24.375 9.75204Z"
            fill="white" />
    </g>
</svg>
