<svg width="52" height="52" viewBox="0 0 52 52" fill="none" xmlns="http://www.w3.org/2000/svg">
<g filter="url(#filter0_d_54_1675)">
<circle cx="25" cy="25" r="20" fill="white"/>
</g>
<path d="M34.5765 30.3264C33.9068 29.7294 33.3206 29.045 32.8334 28.2917C32.3017 27.2518 31.9829 26.1161 31.8959 24.9514V21.5208C31.9005 19.6914 31.2369 17.9232 30.0298 16.5486C28.8226 15.1739 27.1551 14.2874 25.3404 14.0556V13.1597C25.3404 12.9138 25.2427 12.678 25.0688 12.5042C24.895 12.3303 24.6592 12.2326 24.4133 12.2326C24.1674 12.2326 23.9316 12.3303 23.7578 12.5042C23.5839 12.678 23.4862 12.9138 23.4862 13.1597V14.0694C21.6878 14.318 20.0404 15.2099 18.8491 16.5799C17.6578 17.95 17.0034 19.7053 17.0071 21.5208V24.9514C16.9201 26.1161 16.6013 27.2518 16.0696 28.2917C15.591 29.0433 15.0141 29.7276 14.3543 30.3264C14.2802 30.3915 14.2208 30.4716 14.1801 30.5614C14.1394 30.6512 14.1183 30.7486 14.1182 30.8472V31.7917C14.1182 31.9758 14.1913 32.1525 14.3216 32.2827C14.4518 32.4129 14.6284 32.4861 14.8126 32.4861H34.1182C34.3023 32.4861 34.479 32.4129 34.6092 32.2827C34.7394 32.1525 34.8126 31.9758 34.8126 31.7917V30.8472C34.8125 30.7486 34.7914 30.6512 34.7507 30.5614C34.7099 30.4716 34.6506 30.3915 34.5765 30.3264ZM15.5626 31.0972C16.2087 30.4731 16.7776 29.7736 17.2571 29.0139C17.9269 27.758 18.3178 26.3722 18.4029 24.9514V21.5208C18.3753 20.707 18.5119 19.8959 18.8043 19.1359C19.0968 18.3759 19.5391 17.6825 20.1051 17.097C20.6711 16.5115 21.3492 16.0459 22.0988 15.728C22.8485 15.41 23.6545 15.2461 24.4689 15.2461C25.2832 15.2461 26.0892 15.41 26.8389 15.728C27.5886 16.0459 28.2666 16.5115 28.8326 17.097C29.3986 17.6825 29.841 18.3759 30.1334 19.1359C30.4259 19.8959 30.5624 20.707 30.5348 21.5208V24.9514C30.6199 26.3722 31.0108 27.758 31.6807 29.0139C32.1601 29.7736 32.729 30.4731 33.3751 31.0972H15.5626Z" fill="black"/>
<path d="M24.5 34.8056C24.9375 34.7955 25.3573 34.631 25.6852 34.3413C26.0131 34.0515 26.2279 33.6551 26.2917 33.2222H22.6389C22.7045 33.6669 22.9294 34.0726 23.2718 34.3638C23.6141 34.6551 24.0506 34.8121 24.5 34.8056Z" fill="black"/>
<circle cx="31" cy="18" r="4" fill="#D82C33"/>
<defs>
<filter id="filter0_d_54_1675" x="0" y="0" width="52" height="52" filterUnits="userSpaceOnUse" color-interpolation-filters="sRGB">
<feFlood flood-opacity="0" result="BackgroundImageFix"/>
<feColorMatrix in="SourceAlpha" type="matrix" values="0 0 0 0 0 0 0 0 0 0 0 0 0 0 0 0 0 0 127 0" result="hardAlpha"/>
<feOffset dx="1" dy="1"/>
<feGaussianBlur stdDeviation="3"/>
<feComposite in2="hardAlpha" operator="out"/>
<feColorMatrix type="matrix" values="0 0 0 0 0 0 0 0 0 0 0 0 0 0 0 0 0 0 0.25 0"/>
<feBlend mode="normal" in2="BackgroundImageFix" result="effect1_dropShadow_54_1675"/>
<feBlend mode="normal" in="SourceGraphic" in2="effect1_dropShadow_54_1675" result="shape"/>
</filter>
</defs>
</svg>
