<svg width="14" height="14" viewBox="0 0 14 14" fill="none" xmlns="http://www.w3.org/2000/svg">
<g id="call icon">
<path id="Vector" d="M9.09392 3.18487H11.6063L11.0519 3.74853C10.9212 3.88054 10.8478 4.05911 10.8478 4.24525C10.8478 4.43138 10.9212 4.60996 11.0519 4.74197C11.1834 4.8732 11.3613 4.94685 11.5467 4.94685C11.7321 4.94685 11.91 4.8732 12.0414 4.74197L13.7959 2.98055C13.9266 2.84854 14 2.66996 14 2.48383C14 2.29769 13.9266 2.11912 13.7959 1.98711L12.0414 0.225685C11.9072 0.110259 11.7345 0.0499432 11.5579 0.0567924C11.3813 0.0636416 11.2137 0.137151 11.0887 0.262631C10.9637 0.388111 10.8905 0.556319 10.8837 0.733642C10.8769 0.910965 10.9369 1.08434 11.0519 1.21913L11.6063 1.77574H9.09392C8.9078 1.77574 8.72929 1.84997 8.59768 1.9821C8.46607 2.11423 8.39213 2.29344 8.39213 2.4803C8.39213 2.66717 8.46607 2.84638 8.59768 2.97851C8.72929 3.11064 8.9078 3.18487 9.09392 3.18487ZM12.252 7.72229C12.0976 7.72229 11.9362 7.67297 11.7818 7.63775C11.4691 7.56857 11.1619 7.47674 10.8624 7.36296C10.5369 7.24405 10.179 7.25023 9.85769 7.3803C9.53638 7.51037 9.27434 7.75515 9.122 8.06753L8.9676 8.38459C8.28406 8.00284 7.65594 7.5287 7.10084 6.97545C6.54977 6.41815 6.0775 5.78755 5.69726 5.1013L5.99201 4.90402C6.30316 4.75107 6.54697 4.48799 6.67653 4.16541C6.80609 3.84284 6.81224 3.48355 6.6938 3.15669C6.58237 2.85543 6.49094 2.5471 6.4201 2.23371C6.38501 2.0787 6.35694 1.91665 6.33589 1.7546C6.25066 1.25831 5.99175 0.808886 5.60576 0.487249C5.21977 0.165612 4.73208 -0.00709771 4.23051 0.000223562H2.12514C1.82269 -0.0026275 1.52318 0.0599804 1.247 0.183785C0.970813 0.30759 0.724443 0.489684 0.524657 0.717673C0.324872 0.945661 0.176361 1.21419 0.0892364 1.50498C0.00211147 1.79577 -0.0215825 2.10199 0.0197675 2.4028C0.393638 5.35451 1.73637 8.09704 3.83586 10.1972C5.93536 12.2973 8.67194 13.6354 11.6134 14H11.88C12.3975 14.0008 12.8972 13.8101 13.2836 13.4645C13.5056 13.2652 13.683 13.0208 13.804 12.7475C13.9249 12.4742 13.9868 12.1783 13.9854 11.8792V9.76554C13.9768 9.27614 13.7993 8.8049 13.4832 8.43226C13.167 8.05963 12.7319 7.80869 12.252 7.72229ZM12.6029 11.9497C12.6028 12.0497 12.5814 12.1486 12.5403 12.2397C12.4991 12.3308 12.4391 12.4121 12.3643 12.4781C12.2859 12.5461 12.1942 12.5969 12.0951 12.6272C11.996 12.6575 11.8917 12.6668 11.7888 12.6543C9.16053 12.3159 6.71923 11.1088 4.85 9.22323C2.98076 7.33767 1.78997 4.88101 1.46546 2.24075C1.45429 2.13754 1.46408 2.03314 1.49423 1.93383C1.52439 1.83453 1.57428 1.7424 1.6409 1.66301C1.70667 1.58785 1.78762 1.52762 1.87838 1.48631C1.96913 1.44501 2.0676 1.42358 2.16725 1.42345H4.27262C4.43582 1.41981 4.59518 1.47339 4.72327 1.57498C4.85136 1.67658 4.94017 1.81982 4.97441 1.98006C5.00248 2.17264 5.03757 2.36288 5.07968 2.55076C5.16075 2.92217 5.26864 3.28716 5.4025 3.64284L4.42 4.10081C4.33599 4.13951 4.26043 4.19448 4.19764 4.26258C4.13485 4.33067 4.08609 4.41055 4.05413 4.49762C4.02218 4.58469 4.00767 4.67724 4.01145 4.76996C4.01522 4.86267 4.0372 4.95372 4.07612 5.03789C5.08614 7.2099 6.82521 8.95585 8.98866 9.96987C9.15952 10.0403 9.35116 10.0403 9.52202 9.96987C9.60954 9.93844 9.68997 9.88986 9.75864 9.82697C9.82731 9.76408 9.88285 9.68811 9.92204 9.60349L10.3571 8.61709C10.72 8.74735 11.0902 8.85558 11.466 8.9412C11.6531 8.98347 11.8426 9.0187 12.0344 9.04688C12.194 9.08126 12.3367 9.17042 12.4379 9.29902C12.5391 9.42761 12.5925 9.58761 12.5888 9.75145L12.6029 11.9497Z" fill="#1AA260"/>
</g>
</svg>
