<svg width="17" height="25" viewBox="0 0 17 25" fill="none" xmlns="http://www.w3.org/2000/svg">
<path d="M6.49995 10.4248L8.28035 8.60165C8.76717 8.10219 9.10934 7.45152 9.26293 6.73317C9.41653 6.01481 9.37455 5.26155 9.14238 4.57005L8.38313 2.30413C8.09948 1.45819 7.53793 0.764949 6.81288 0.365629C6.08784 -0.0336899 5.25386 -0.10904 4.48084 0.154929C1.63617 1.12763 -0.550376 4.08278 0.122662 7.5919C0.565276 9.90043 1.41238 12.7981 3.01706 15.8811C4.62506 18.9715 6.46182 21.2541 8.03667 22.8586C10.4139 25.2765 13.8122 24.6725 15.9987 22.3936C16.5849 21.7828 16.9405 20.9452 16.9932 20.0515C17.0459 19.1578 16.7916 18.2752 16.2822 17.5838L14.8897 15.694C14.4697 15.1225 13.9064 14.7046 13.2721 14.4939C12.6378 14.2833 11.9616 14.2895 11.3306 14.5119L9.02965 15.3216C8.43544 14.6362 7.91471 13.8758 7.47801 13.0557C7.05651 12.2263 6.72801 11.3421 6.49995 10.4229V10.4248Z" fill="#157B11"/>
</svg>
