<svg width="71" height="71" viewBox="0 0 71 71" fill="none" xmlns="http://www.w3.org/2000/svg">
<path d="M68.4369 48.1174C68.5339 47.14 66.3104 45.1342 64.8774 43.9509C64.8725 43.5532 64.7842 43.1609 64.6183 42.7995C64.2396 41.9439 61.9144 41.3132 59.9039 40.9156C59.6973 40.628 59.4469 40.3744 59.1619 40.1642C58.3478 39.5666 55.9539 40.1559 53.7967 40.8754C53.738 40.1891 53.6268 39.5082 53.4642 38.8389C55.722 37.7549 57.8946 37.0402 58.6744 36.4639C60.6943 36.6817 62.4019 37.0414 63.0007 36.8592C64.9745 38.1561 66.5779 39.7548 67.1329 39.7323C67.3159 39.7181 67.4929 39.66 67.6488 39.5631C70.3042 42.2907 71 45.0265 71 45.0265C70.535 41.4517 69.3149 39.4045 68.4274 38.3442C68.4795 38.0157 68.4646 37.68 68.3837 37.3573C68.1529 36.4024 65.3934 35.2699 63.6503 34.6416C63.512 34.2714 63.2998 33.9332 63.0267 33.6476C62.3865 32.9731 59.9879 33.1672 57.9608 33.4784C57.671 33.2773 57.3511 33.1235 57.013 33.0228C56.0438 32.7376 53.9754 34.115 52.1767 35.5303C51.3967 34.1275 50.3332 32.9024 49.0539 31.9329C53.6819 27.3724 55.3291 22.781 55.2983 19.0382C55.877 18.385 56.3846 17.475 56.6947 16.2005C57.8614 11.3855 54.9717 7.19536 53.1447 5.1269C52.5447 4.44766 51.8572 3.81813 50.9034 3.81813C50.3366 3.81813 49.9225 4.01575 49.6101 4.29146C48.5344 3.2951 47.0422 2.29163 44.9146 1.29053C40.0333 -1.00277 40.9327 0.00306363 43.3455 2.43836C45.3075 4.41571 47.1582 6.89953 46.8139 7.761C46.66 7.8541 46.5089 7.95157 46.3606 8.05328C46.3086 8.0592 46.2612 8.07103 46.1985 8.07103C44.3892 8.07103 41.4533 4.3956 40.696 4.03586C40.115 3.76251 40.4771 6.53033 44.4342 10.0425C44.259 10.3691 44.1111 10.717 44.0283 11.1122C43.7455 12.4896 44.2164 13.9735 45.4329 15.5237C46.2754 16.5981 46.7996 17.3898 47.183 17.9684C48.1936 19.4926 48.7734 20.2416 50.9176 20.5942C51.0798 20.6215 51.2549 20.6262 51.4265 20.6357C51.6691 25.2791 49.2527 29.1036 47.6942 31.0573C46.7601 30.553 45.7582 30.1859 44.7193 29.9674C44.7442 29.416 44.7738 28.6326 44.8093 28.4362C45.0235 28.4646 45.2365 28.5001 45.4601 28.5001C48.0208 28.5001 50.0917 26.473 50.0917 23.9727C50.0917 21.4746 48.0208 19.4476 45.4601 19.4476C42.9017 19.4476 40.8262 21.4746 40.8262 23.9727C40.8262 25.8826 42.0415 27.5096 43.7561 28.1747C43.7324 28.4137 43.7242 29.2196 43.7171 29.7887C43.3289 29.7402 42.9361 29.7012 42.5266 29.687C42.4926 29.6308 42.4591 29.5744 42.426 29.5178C42.1633 29.0705 41.6178 28.1404 40.47 28.1404C40.315 28.1404 40.0026 28.164 39.6701 28.3155C39.192 27.4256 38.379 27.3073 37.985 27.3073C37.7542 27.3073 37.2123 27.3558 36.7472 27.7581C36.3994 27.4624 35.9565 27.3023 35.5 27.3073C35.0431 27.302 34.5997 27.4621 34.2516 27.7581C33.905 27.4666 33.4667 27.307 33.0138 27.3073C32.6198 27.3073 31.8056 27.4256 31.3287 28.3167C31.0771 28.202 30.8041 28.142 30.5276 28.1404C29.3786 28.1404 28.8355 29.0705 28.5739 29.5178L28.4734 29.687C28.0639 29.7012 27.6699 29.7402 27.2817 29.7887C27.2798 29.2505 27.2671 28.7124 27.2439 28.1747C28.9562 27.5096 30.1714 25.8826 30.1714 23.9727C30.1714 21.4746 28.0982 19.4476 25.5375 19.4476C22.9815 19.4476 20.9083 21.4746 20.9083 23.9727C20.9083 26.473 22.9815 28.5001 25.5375 28.5001C25.7612 28.5001 25.9765 28.4658 26.1931 28.4362C26.2274 28.6314 26.257 29.416 26.2818 29.9674C25.243 30.1859 24.2411 30.553 23.3069 31.0573C21.7508 29.1048 19.3321 25.2791 19.5747 20.6357C19.7475 20.6262 19.9226 20.6215 20.0894 20.5942C22.2289 20.2416 22.8088 19.4926 23.8181 17.9684C24.2003 17.3898 24.7257 16.5981 25.5683 15.5237C26.7836 13.9735 27.2557 12.4908 26.9729 11.1122C26.8911 10.7375 26.7543 10.3771 26.567 10.0425C30.5241 6.53033 30.8862 3.76133 30.3052 4.03586C29.5466 4.3956 26.612 8.07103 24.8027 8.07103C24.7399 8.07103 24.6926 8.05801 24.6394 8.05091C24.4911 7.94921 24.34 7.85174 24.1861 7.75863C23.8418 6.89598 25.6913 4.41335 27.6545 2.436C30.0673 0.00069714 30.9667 -1.00395 26.0854 1.28816C23.9578 2.28926 22.4656 3.29273 21.3899 4.2891C21.0347 3.97339 20.5729 3.80423 20.0977 3.81576H20.0965C19.1428 3.81695 18.4553 4.4453 17.8553 5.12571C16.0294 7.193 13.1397 11.3832 14.3053 16.1958C14.6153 17.4714 15.123 18.3838 15.7028 19.0346C15.6733 22.7787 17.3193 27.37 21.9473 31.9294C20.6673 32.8998 19.6034 34.1261 18.8233 35.5303C17.0258 34.1126 14.9561 32.7352 13.9894 33.0204C13.6154 33.1293 13.3101 33.2926 13.0391 33.476C11.0145 33.1636 8.61585 32.9695 7.97567 33.6452C7.668 33.9683 7.47157 34.3091 7.35205 34.6392C5.609 35.2676 2.84947 36.4 2.61872 37.355C2.53115 37.7206 2.52405 38.0484 2.57257 38.3419C1.68507 39.4045 0.46505 41.4517 0 45.0265C0 45.0265 0.6958 42.2907 3.3512 39.5643C3.50713 39.6612 3.68408 39.7192 3.86713 39.7335C4.42212 39.7571 6.02317 38.1573 7.99697 36.8603C8.5981 37.0426 10.3056 36.6828 12.3256 36.4651C13.1042 37.0414 15.2768 37.7561 17.5358 38.8412C17.373 39.5102 17.2618 40.1906 17.2033 40.8766C15.0461 40.1583 12.6534 39.569 11.8381 40.1654C11.5522 40.3747 11.3017 40.6283 11.0961 40.9168C9.08327 41.3144 6.75802 41.9451 6.38172 42.8007C6.21633 43.1623 6.12807 43.5544 6.12257 43.9521C4.68955 45.1354 2.4637 47.1411 2.5631 48.1186C2.59978 48.4901 2.70392 48.8049 2.8471 49.0652C2.3643 50.3657 1.89215 52.7111 2.63883 56.2362C2.63883 56.2362 2.38915 53.4235 3.98665 49.948C4.17598 49.9847 4.36295 49.9823 4.52743 49.9291C5.05638 49.7646 6.03618 47.7127 7.46683 45.8217C8.09045 45.7898 9.58145 44.8668 11.4144 43.9745C12.3824 44.2645 14.8343 44.1769 17.453 44.4751C17.576 45.062 17.7346 45.6703 17.931 46.2962C15.4922 46.7471 10.9577 47.7529 10.4086 49.096C10.2583 49.4617 10.1932 49.806 10.166 50.1338C8.65963 51.5408 7.00888 53.3158 7.12958 54.2459C7.18757 54.6896 7.32365 55.06 7.50588 55.3606C6.89765 57.132 6.04565 60.0217 6.63495 60.8015C6.86097 61.1009 7.11065 61.3139 7.36743 61.4571C7.63132 62.8203 8.44427 65.0663 10.9056 67.6708C10.9056 67.6708 9.23473 65.4094 8.79572 61.6015C8.96827 61.539 9.12301 61.4354 9.24657 61.2997C9.61222 60.8773 9.38028 58.61 9.61813 56.2386C10.1341 55.8753 10.9245 54.2968 12.0215 52.5644C13.2072 52.2401 15.9691 50.2817 19.0126 49.1019C19.3132 49.7646 19.6481 50.4296 20.0125 51.0947C19.0292 51.4875 18.2778 51.9336 18.0742 52.4283C17.9263 52.7939 17.8589 53.1383 17.8316 53.4661C16.3253 54.873 14.6745 56.648 14.7952 57.5781C14.8532 58.0243 14.9916 58.3923 15.1715 58.694C14.5656 60.4667 13.7136 63.3552 14.3029 64.1374C14.5266 64.4332 14.7786 64.6462 15.0354 64.7882C15.2993 66.1549 16.1123 68.4009 18.5736 71.0042C18.5736 71.0042 16.9027 68.7405 16.4613 64.9349C16.6353 64.8721 16.791 64.7672 16.9146 64.6296C17.2778 64.2095 17.0483 61.9423 17.285 59.5709C17.8009 59.2088 18.5914 57.6302 19.6883 55.8966C20.2445 55.744 21.1604 55.2233 22.2751 54.5973C25.5683 58.9745 30.2117 62.5103 35.4988 62.5103C40.7848 62.5103 45.4305 58.9757 48.7237 54.5985C49.8373 55.2221 50.7543 55.744 51.3093 55.8966C52.4098 57.6314 53.2003 59.21 53.7127 59.5709C53.9505 61.9423 53.7198 64.2095 54.0843 64.6296C54.2074 64.7677 54.3632 64.8727 54.5375 64.9349C54.0961 68.737 52.4252 71.0007 52.4252 71.0007C54.8865 68.3974 55.7007 66.1514 55.9634 64.7846C56.2202 64.6426 56.4698 64.4296 56.6959 64.1338C57.2852 63.3528 56.432 60.4631 55.8249 58.6905C56.0273 58.349 56.1555 57.9688 56.2012 57.5746C56.3243 56.6457 54.6712 54.8707 53.1672 53.4625C53.1399 53.1062 53.0581 52.7562 52.9246 52.4247C52.721 51.9301 51.9684 51.484 50.9851 51.0923C51.3519 50.4273 51.6856 49.761 51.9862 49.0984C55.0285 50.2782 57.7916 52.2354 58.9773 52.5608C60.0755 54.2944 60.8636 55.873 61.3807 56.2351C61.6162 58.6065 61.3878 60.8737 61.7522 61.2962C61.8758 61.4319 62.0305 61.5354 62.2031 61.5979C61.7641 65.4059 60.0932 67.6672 60.0932 67.6672C62.5522 65.0627 63.3687 62.8168 63.6314 61.4536C63.8882 61.3104 64.1378 61.0974 64.3639 60.798C64.9532 60.0194 64.0976 57.1285 63.4929 55.357C63.6728 55.0553 63.8124 54.6861 63.8692 54.2423C63.9899 53.3134 62.3392 51.5384 60.8328 50.1302C60.8055 49.7739 60.7237 49.4239 60.5902 49.0925C60.0388 47.7494 55.5054 46.7435 53.0689 46.2927C53.2654 45.6667 53.4239 45.0585 53.547 44.4715C56.1657 44.1733 58.6176 44.2609 59.5856 43.971C61.4185 44.8632 62.9095 45.785 63.5332 45.8182C64.9638 47.7091 65.9412 49.761 66.4702 49.9255C66.6468 49.9771 66.8336 49.9836 67.0133 49.9445C68.6108 53.4211 68.3588 56.2327 68.3588 56.2327C69.1055 52.7075 68.6333 50.3622 68.1529 49.0617C68.2961 48.8037 68.4002 48.4901 68.4369 48.1174ZM41.4415 23.9727C41.4415 21.7302 43.2402 19.9115 45.4589 19.9115C47.6777 19.9115 49.4763 21.7302 49.4763 23.9727C49.4763 26.2174 47.6777 28.0362 45.4589 28.0362C43.2402 28.0362 41.4415 26.2174 41.4415 23.9727ZM25.5363 28.035C23.3199 28.035 21.5236 26.2174 21.5236 23.9715C21.5236 21.7291 23.3199 19.9103 25.5363 19.9103C27.7551 19.9103 29.5537 21.7291 29.5537 23.9715C29.5537 26.2174 27.7551 28.035 25.5363 28.035Z" fill="url(#paint0_linear_54_2420)"/>
<path d="M48.2184 23.9727C48.2184 22.4331 46.9841 21.1835 45.4588 21.1835C43.9335 21.1835 42.6969 22.4343 42.6969 23.9727C42.6969 25.5169 43.9335 26.7689 45.4588 26.7689C46.9841 26.7689 48.2184 25.5169 48.2184 23.9727ZM25.5362 21.1824C24.0156 21.1824 22.7791 22.4331 22.7791 23.9715C22.7791 25.5157 24.0156 26.7677 25.5362 26.7677C27.0615 26.7677 28.2981 25.5145 28.2981 23.9715C28.2981 22.4331 27.0615 21.1824 25.5362 21.1824Z" fill="black"/>
<defs>
<linearGradient id="paint0_linear_54_2420" x1="36" y1="13.5" x2="35.5" y2="71.0042" gradientUnits="userSpaceOnUse">
<stop stop-color="#E1353C"/>
<stop offset="1" stop-color="#300002"/>
</linearGradient>
</defs>
</svg>
