<svg width="41" height="41" viewBox="0 0 41 41" fill="none" xmlns="http://www.w3.org/2000/svg">
<path d="M12.8125 23.0625H23.0625V25.625H12.8125V23.0625ZM12.8125 16.6562H28.1875V19.2188H12.8125V16.6562ZM12.8125 29.4688H19.2188V32.0312H12.8125V29.4688Z" fill="#157B11"/>
<path d="M32.0312 6.40625H28.1875V5.125C28.1875 4.44538 27.9175 3.7936 27.437 3.31304C26.9564 2.83248 26.3046 2.5625 25.625 2.5625H15.375C14.6954 2.5625 14.0436 2.83248 13.563 3.31304C13.0825 3.7936 12.8125 4.44538 12.8125 5.125V6.40625H8.96875C8.28913 6.40625 7.63735 6.67623 7.15679 7.15679C6.67623 7.63735 6.40625 8.28913 6.40625 8.96875V35.875C6.40625 36.5546 6.67623 37.2064 7.15679 37.687C7.63735 38.1675 8.28913 38.4375 8.96875 38.4375H32.0312C32.7109 38.4375 33.3626 38.1675 33.8432 37.687C34.3238 37.2064 34.5938 36.5546 34.5938 35.875V8.96875C34.5938 8.28913 34.3238 7.63735 33.8432 7.15679C33.3626 6.67623 32.7109 6.40625 32.0312 6.40625ZM15.375 5.125H25.625V10.25H15.375V5.125ZM32.0312 35.875H8.96875V8.96875H12.8125V12.8125H28.1875V8.96875H32.0312V35.875Z" fill="#157B11"/>
</svg>
