<svg width="45" height="45" viewBox="0 0 45 45" fill="none" xmlns="http://www.w3.org/2000/svg">
<circle cx="22.5" cy="22.5" r="22.5" fill="#09BF1B" fill-opacity="0.8"/>
<path fill-rule="evenodd" clip-rule="evenodd" d="M10.7574 16.1042C9.94665 16.0854 9.13275 16.583 8.86952 17.3578C8.80391 17.5515 8.76798 17.8046 8.7422 18.035C8.71486 18.2866 8.69377 18.5888 8.67737 18.9177C8.64351 19.6707 8.62606 20.4244 8.62503 21.1782C8.61879 22.7544 8.65862 24.3947 8.71564 24.9032C8.81562 25.7937 9.32802 26.6232 9.77325 27.3449L9.82324 27.4254C9.95837 27.6441 10.0919 27.862 10.2232 28.0862C10.8121 29.0946 11.4526 29.7742 12.033 30.3904L12.0462 30.4037C12.3727 30.7497 12.675 31.0716 12.9601 31.4301C12.6835 31.7204 12.5297 32.1062 12.5305 32.5072V34.0694C12.5305 34.4837 12.6951 34.8811 12.9881 35.174C13.281 35.467 13.6784 35.6316 14.0927 35.6316H20.3415C20.7558 35.6316 21.1532 35.467 21.4461 35.174C21.7391 34.8811 21.9037 34.4837 21.9037 34.0694V32.5072C21.9037 32.1118 21.7537 31.7312 21.4841 31.442C21.2145 31.1528 20.8453 30.9766 20.4508 30.9489C20.3454 30.0616 20.2087 28.8634 20.1962 28.5221C20.1853 28.2284 20.0869 27.9417 19.9947 27.7238C19.8979 27.4992 19.7868 27.281 19.6619 27.0708C19.5336 26.8523 19.396 26.6394 19.2495 26.4326L19.2191 26.3904L19.2112 26.3787L19.2081 26.3748L19.2066 26.3725L19.1987 26.3615L16.6649 23.1669L16.6414 23.1434V23.1419L16.6383 23.1387L16.6196 23.1184C16.5031 22.9895 16.391 22.8567 16.2837 22.7201C16.0447 22.4215 15.8364 22.0997 15.6619 21.7593C15.4838 21.3938 15.1464 21.0431 14.6285 21.0173C14.1872 20.9938 13.8412 21.2282 13.6397 21.4086C13.5287 21.5086 13.4275 21.619 13.3374 21.7382L13.3022 21.268L13.2983 21.2165C13.2218 20.187 13.1288 18.9411 12.8266 17.9437C12.4719 16.7767 11.6846 16.126 10.7574 16.1042ZM18.8769 30.945C18.7754 30.0858 18.6489 28.9634 18.6348 28.5791C18.632 28.556 18.627 28.5333 18.62 28.5111C18.6022 28.4492 18.5805 28.3884 18.5551 28.3291C18.4847 28.1679 18.4041 28.0114 18.3138 27.8605C18.2085 27.6813 18.0956 27.5067 17.9755 27.3371L17.9552 27.3082L15.4807 24.1885L15.4667 24.1729C15.3238 24.0147 15.1865 23.8517 15.055 23.6839C14.8445 23.4171 14.6512 23.1372 14.4762 22.8458L14.4708 22.8544C14.4005 22.9849 14.3614 23.1044 14.3497 23.1825C14.3067 23.459 14.3286 23.6496 14.3505 23.7527C14.3571 23.7856 14.3662 23.818 14.3778 23.8495V23.8519L15.8088 26.6935L14.4801 27.5051L14.4606 27.4785L14.4067 27.4043C14.1279 27.0197 13.8519 26.6331 13.5788 26.2444C13.1046 25.5695 12.5375 24.7415 12.2579 24.2448C12.0486 23.8737 11.9517 23.3824 11.89 22.938C11.8264 22.4272 11.7782 21.9145 11.7455 21.4008L11.744 21.3836C11.6627 20.2916 11.5784 19.2122 11.3315 18.3975C11.2237 18.0421 11.0847 17.8632 10.9847 17.7765C10.9129 17.7093 10.8191 17.6704 10.7207 17.6671C10.5075 17.6617 10.3661 17.8093 10.3481 17.8624C10.3466 17.8671 10.3395 17.8937 10.3294 17.9515C10.3153 18.0352 10.3038 18.1193 10.295 18.2038C10.2724 18.4131 10.2528 18.6818 10.2372 18.9958C10.205 19.7249 10.1886 20.4546 10.188 21.1844C10.181 22.7771 10.2239 24.326 10.2692 24.729C10.3255 25.2329 10.6395 25.771 11.1534 26.6052L11.1558 26.6091C11.2886 26.8247 11.4315 27.0567 11.5729 27.2989C12.0673 28.1456 12.6 28.7134 13.1835 29.3321L13.1968 29.3461C13.6311 29.807 14.1029 30.3069 14.5481 30.945H18.8769ZM14.7176 22.5451C14.7176 22.5451 14.7145 22.5459 14.709 22.5506C14.7121 22.5491 14.715 22.5473 14.7176 22.5451ZM20.3415 34.0694V32.5072H14.0927V34.0694H20.3415ZM36.5 17.3578C36.236 16.583 35.4229 16.0854 34.6121 16.105C33.6858 16.1268 32.8976 16.7767 32.543 17.9437C32.2407 18.9411 32.1478 20.187 32.0712 21.2165L32.0673 21.268L32.0322 21.7382C31.9384 21.6156 31.8369 21.5039 31.7299 21.4086C31.5284 21.229 31.1831 20.9946 30.741 21.0165C30.2232 21.0431 29.8857 21.3938 29.7076 21.7585C29.5329 22.0989 29.3243 22.4207 29.0851 22.7193C28.9778 22.8562 28.8658 22.9893 28.7492 23.1184L28.7313 23.1387L28.7281 23.1426L28.7047 23.1669L26.1716 26.3615L26.163 26.3725L26.1614 26.3748L26.1591 26.3787L26.1505 26.3904C25.9926 26.6101 25.8448 26.8368 25.7076 27.07C25.5825 27.2805 25.4711 27.4989 25.3741 27.7238C25.2827 27.9417 25.1843 28.2284 25.1734 28.5221C25.1609 28.8634 25.025 30.0616 24.9187 30.9489C24.5243 30.9766 24.1551 31.1528 23.8855 31.442C23.6158 31.7312 23.4659 32.1118 23.4659 32.5072V34.0694C23.4659 34.4837 23.6305 34.8811 23.9234 35.174C24.2164 35.467 24.6138 35.6316 25.0281 35.6316H31.2769C31.6912 35.6316 32.0885 35.467 32.3815 35.174C32.6745 34.8811 32.839 34.4837 32.839 34.0694V32.5072C32.8393 32.106 32.6852 31.72 32.4087 31.4293C32.6945 31.0716 32.996 30.7497 33.3225 30.4037L33.3358 30.3897C33.9162 29.7742 34.5567 29.0946 35.1456 28.0862C35.2768 27.862 35.4112 27.6449 35.5455 27.4254L35.5955 27.3449C36.0408 26.6232 36.5532 25.7937 36.6531 24.9032C36.7102 24.3947 36.75 22.7544 36.7437 21.1782C36.743 20.4244 36.7258 19.6707 36.6922 18.9177C36.6789 18.6229 36.6573 18.3286 36.6274 18.035C36.6024 17.8046 36.5664 17.5508 36.5 17.3578ZM30.8223 30.945C31.2675 30.3069 31.7385 29.807 32.1735 29.3461L32.186 29.3321C32.7695 28.7134 33.303 28.1448 33.7967 27.2989C33.9373 27.0567 34.0802 26.8255 34.2138 26.6091L34.2161 26.6052C34.7309 25.771 35.0441 25.2329 35.1003 24.729C35.1456 24.326 35.1878 22.7771 35.1816 21.1844C35.1784 20.3986 35.1636 19.6222 35.1323 18.9958C35.1167 18.6818 35.0972 18.4131 35.0745 18.2038C35.0657 18.1193 35.0543 18.0352 35.0402 17.9515C35.0354 17.9215 35.0291 17.8918 35.0214 17.8624C35.0035 17.8093 34.8621 17.6617 34.6496 17.6671C34.551 17.6702 34.4569 17.7091 34.3848 17.7765C34.2849 17.8624 34.1458 18.0421 34.038 18.3975C33.7912 19.2114 33.7068 20.2916 33.6256 21.3836L33.624 21.4008C33.585 21.9351 33.5444 22.474 33.4795 22.938C33.4186 23.3824 33.321 23.8737 33.1124 24.2455C32.832 24.7415 32.2649 25.5695 31.7908 26.2452C31.5177 26.6336 31.2417 27.02 30.9628 27.4043L30.9082 27.4785L30.8894 27.5051L29.5608 26.6927L30.991 23.8519L30.9918 23.8495C31.0033 23.818 31.0125 23.7856 31.0191 23.7527C31.041 23.6496 31.0628 23.459 31.0199 23.1825C30.9976 23.0673 30.9567 22.9565 30.8988 22.8544L30.8933 22.8458C30.7012 23.17 30.4895 23.4605 30.3153 23.6832C30.1836 23.8512 30.0461 24.0145 29.9029 24.1729L29.8881 24.1885L27.4143 27.3082L27.394 27.3371C27.274 27.5067 27.1611 27.6813 27.0558 27.8605C26.9621 28.0198 26.8762 28.1831 26.8144 28.3291C26.784 28.4018 26.7629 28.4619 26.7496 28.5103C26.7426 28.5328 26.7376 28.5558 26.7348 28.5791C26.7207 28.9634 26.5942 30.0866 26.4926 30.945H30.8223ZM30.652 22.5451C30.652 22.5451 30.6551 22.5459 30.6606 22.5506C30.6575 22.5491 30.6546 22.5472 30.652 22.5451ZM25.0281 34.0694V32.5072H31.2769V34.0694H25.0281Z" fill="white"/>
<mask id="path-3-inside-1_54_2268" fill="white">
<path d="M22.5001 14.3203L21.9032 13.6658C20.5021 12.1296 17.9329 12.6597 17.0055 14.5911C16.5701 15.4995 16.4718 16.8111 17.2669 18.485C18.0328 20.0967 19.6263 22.0272 22.5001 24.13C25.374 22.0272 26.9666 20.0967 27.7334 18.485C28.5285 16.8102 28.4311 15.4995 27.9948 14.5911C27.0674 12.6597 24.4982 12.1287 23.0971 13.6649L22.5001 14.3203ZM22.5001 25.2C9.73503 16.2028 18.5698 9.18053 22.3536 12.895C22.4036 12.9439 22.4527 12.9945 22.5001 13.0469C22.5471 12.9945 22.596 12.9442 22.6467 12.8959C26.4297 9.17876 35.2653 16.2019 22.5001 25.2Z"/>
</mask>
<path d="M22.5001 14.3203L21.0225 15.668L22.5011 17.2892L23.9787 15.667L22.5001 14.3203ZM21.9032 13.6658L20.4255 15.0136L20.4255 15.0136L21.9032 13.6658ZM17.0055 14.5911L15.2026 13.7254L15.2019 13.7267L17.0055 14.5911ZM17.2669 18.485L15.4603 19.3431L15.4605 19.3434L17.2669 18.485ZM22.5001 24.13L21.3191 25.744L22.5001 26.6082L23.6811 25.744L22.5001 24.13ZM27.7334 18.485L29.5394 19.3442L29.5401 19.3427L27.7334 18.485ZM27.9948 14.5911L26.1919 15.4568L26.1919 15.4569L27.9948 14.5911ZM23.0971 13.6649L21.6194 12.3172L21.6185 12.3181L23.0971 13.6649ZM22.5001 25.2L21.3479 26.8347L22.5002 27.6469L23.6524 26.8347L22.5001 25.2ZM22.3536 12.895L20.9525 14.3223L20.9554 14.3251L22.3536 12.895ZM22.5001 13.0469L21.0178 14.3895L22.507 16.0337L23.9887 14.3826L22.5001 13.0469ZM22.6467 12.8959L24.0259 14.3442L24.0373 14.3334L24.0484 14.3225L22.6467 12.8959ZM23.9778 12.9725L23.3809 12.318L20.4255 15.0136L21.0225 15.668L23.9778 12.9725ZM23.3809 12.3181C20.8771 9.57282 16.646 10.7195 15.2026 13.7254L18.8084 15.4568C18.9853 15.0884 19.3154 14.8582 19.6593 14.7911C19.991 14.7265 20.2497 14.8208 20.4255 15.0136L23.3809 12.3181ZM15.2019 13.7267C14.4648 15.2645 14.4497 17.2153 15.4603 19.3431L19.0735 17.6269C18.494 16.4068 18.6753 15.7345 18.809 15.4555L15.2019 13.7267ZM15.4605 19.3434C16.4145 21.3508 18.2785 23.5192 21.3191 25.744L23.6811 22.5159C20.9741 20.5352 19.6512 18.8425 19.0733 17.6265L15.4605 19.3434ZM23.6811 25.744C26.7223 23.5189 28.5849 21.3507 29.5394 19.3442L25.9274 17.6258C25.3484 18.8427 24.0257 20.5355 21.3191 22.5159L23.6811 25.744ZM29.5401 19.3427C30.55 17.2155 30.537 15.2649 29.7977 13.7253L26.1919 15.4569C26.3251 15.7342 26.507 16.4049 25.9267 17.6272L29.5401 19.3427ZM29.7977 13.7254C28.3548 10.7205 24.1239 9.57115 21.6194 12.3172L24.5748 15.0127C24.7504 14.8201 25.0088 14.7259 25.3405 14.7906C25.6845 14.8578 26.0149 15.0882 26.1919 15.4568L29.7977 13.7254ZM21.6185 12.3181L21.0216 12.9735L23.9787 15.667L24.5756 15.0117L21.6185 12.3181ZM23.6524 23.5652C17.4723 19.2094 17.584 16.1267 18.0452 15.1007C18.6533 13.7478 20.2104 13.5937 20.9525 14.3223L23.7547 11.4678C20.713 8.48183 15.9608 9.98161 14.3969 13.4606C12.686 17.2664 14.7629 22.1935 21.3479 26.8347L23.6524 23.5652ZM20.9554 14.3251C20.9803 14.3494 21.0009 14.3708 21.0178 14.3895L23.9825 11.7042C23.9045 11.6181 23.8269 11.5383 23.7518 11.465L20.9554 14.3251ZM23.9887 14.3826C24.0009 14.369 24.0133 14.3562 24.0259 14.3442L21.2674 11.4476C21.1787 11.5321 21.0933 11.62 21.0116 11.7111L23.9887 14.3826ZM24.0484 14.3225C24.7902 13.5936 26.3467 13.7471 26.9548 15.0998C27.4161 16.1259 27.5279 19.209 21.3479 23.5653L23.6524 26.8347C30.2375 22.1929 32.314 17.2654 30.6031 13.4597C29.039 9.98055 24.2861 8.4811 21.2449 11.4693L24.0484 14.3225Z" fill="white" mask="url(#path-3-inside-1_54_2268)"/>
</svg>
