<svg width="14" height="14" viewBox="0 0 14 14" fill="none" xmlns="http://www.w3.org/2000/svg">
<g id="chat icon">
<path id="Vector" d="M11.9 4.19994H11.2V2.09997C11.2 1.54302 10.9788 1.00889 10.5849 0.615067C10.1911 0.221246 9.65695 0 9.1 0H2.1C1.54305 0 1.0089 0.221246 0.615076 0.615067C0.221249 1.00889 0 1.54302 0 2.09997V10.4999C0.000689837 10.6381 0.0422715 10.7729 0.119505 10.8876C0.196738 11.0022 0.306167 11.0913 0.434 11.1438C0.517075 11.183 0.608176 11.2022 0.7 11.1998C0.792125 11.2004 0.883448 11.1827 0.968735 11.1479C1.05402 11.1131 1.13159 11.0617 1.197 10.9968L3.164 9.02287H4.2V10.0309C4.2 10.5878 4.42125 11.1219 4.81508 11.5158C5.2089 11.9096 5.74304 12.1308 6.3 12.1308H11.144L12.803 13.7968C12.8684 13.8617 12.946 13.913 13.0313 13.9478C13.1166 13.9827 13.2079 14.0003 13.3 13.9998C13.3918 14.0022 13.4829 13.983 13.566 13.9438C13.6938 13.8913 13.8033 13.8021 13.8805 13.6875C13.9577 13.5729 13.9993 13.438 14 13.2998V6.29991C14 5.74297 13.7788 5.20883 13.3849 4.81501C12.9911 4.42119 12.457 4.19994 11.9 4.19994ZM4.2 6.29991V7.62289H2.877C2.78488 7.62236 2.69355 7.64002 2.60827 7.67485C2.52298 7.70969 2.44541 7.76102 2.38 7.82589L1.4 8.81288V2.09997C1.4 1.91432 1.47375 1.73628 1.60503 1.605C1.7363 1.47373 1.91435 1.39998 2.1 1.39998H9.1C9.28565 1.39998 9.4637 1.47373 9.59497 1.605C9.72625 1.73628 9.8 1.91432 9.8 2.09997V4.19994H6.3C5.74304 4.19994 5.2089 4.42119 4.81508 4.81501C4.42125 5.20883 4.2 5.74297 4.2 6.29991ZM12.6 11.6128L11.9 10.9128C11.8352 10.8467 11.7579 10.7941 11.6725 10.758C11.5872 10.722 11.4956 10.7032 11.403 10.7029H6.3C6.11435 10.7029 5.9363 10.6291 5.80503 10.4978C5.67375 10.3666 5.6 10.1885 5.6 10.0029V6.29991C5.6 6.11426 5.67375 5.93622 5.80503 5.80494C5.9363 5.67367 6.11435 5.59992 6.3 5.59992H11.9C12.0857 5.59992 12.2637 5.67367 12.395 5.80494C12.5262 5.93622 12.6 6.11426 12.6 6.29991V11.6128Z" fill="#CEA80D"/>
</g>
</svg>
