<svg width="25" height="25" viewBox="0 0 25 25" fill="none" xmlns="http://www.w3.org/2000/svg">
<g clip-path="url(#clip0_54_2036)">
<path d="M7.8125 12.8125C7.8125 13.2269 7.64788 13.6243 7.35485 13.9174C7.06183 14.2104 6.6644 14.375 6.25 14.375C5.8356 14.375 5.43817 14.2104 5.14515 13.9174C4.85212 13.6243 4.6875 13.2269 4.6875 12.8125C4.6875 12.3981 4.85212 12.0007 5.14515 11.7076C5.43817 11.4146 5.8356 11.25 6.25 11.25C6.6644 11.25 7.06183 11.4146 7.35485 11.7076C7.64788 12.0007 7.8125 12.3981 7.8125 12.8125ZM14.0625 12.8125C14.0625 13.2269 13.8979 13.6243 13.6049 13.9174C13.3118 14.2104 12.9144 14.375 12.5 14.375C12.0856 14.375 11.6882 14.2104 11.3951 13.9174C11.1021 13.6243 10.9375 13.2269 10.9375 12.8125C10.9375 12.3981 11.1021 12.0007 11.3951 11.7076C11.6882 11.4146 12.0856 11.25 12.5 11.25C12.9144 11.25 13.3118 11.4146 13.6049 11.7076C13.8979 12.0007 14.0625 12.3981 14.0625 12.8125ZM18.75 14.375C19.1644 14.375 19.5618 14.2104 19.8549 13.9174C20.1479 13.6243 20.3125 13.2269 20.3125 12.8125C20.3125 12.3981 20.1479 12.0007 19.8549 11.7076C19.5618 11.4146 19.1644 11.25 18.75 11.25C18.3356 11.25 17.9382 11.4146 17.6451 11.7076C17.3521 12.0007 17.1875 12.3981 17.1875 12.8125C17.1875 13.2269 17.3521 13.6243 17.6451 13.9174C17.9382 14.2104 18.3356 14.375 18.75 14.375Z" fill="#157B11"/>
<path d="M3.38281 25.0047L3.41406 24.9984C6.27344 24.4313 8.02031 23.6828 8.83281 23.2719C10.029 23.5909 11.262 23.7517 12.5 23.75C19.4031 23.75 25 18.8531 25 12.8125C25 6.77188 19.4031 1.875 12.5 1.875C5.59687 1.875 0 6.77188 0 12.8125C0 15.5625 1.16094 18.0781 3.07812 20C2.944 21.2345 2.6693 22.4497 2.25937 23.6219L2.25469 23.6391C2.13819 23.9748 2.01104 24.3067 1.87344 24.6344C1.75 24.925 1.98906 25.25 2.3 25.2C2.66197 25.1408 3.02296 25.0757 3.38281 25.0047ZM4.63281 20.1484C4.6547 19.9197 4.62586 19.6889 4.54835 19.4726C4.47083 19.2563 4.34656 19.0597 4.18437 18.8969C2.52813 17.2344 1.5625 15.1063 1.5625 12.8125C1.5625 7.825 6.25625 3.4375 12.5 3.4375C18.7437 3.4375 23.4375 7.825 23.4375 12.8125C23.4375 17.8016 18.7437 22.1875 12.5 22.1875C11.3986 22.1891 10.3017 22.0462 9.2375 21.7625C8.86559 21.6628 8.46998 21.704 8.12656 21.8781C7.52188 22.1844 6.18906 22.7688 4.01094 23.2734C4.31481 22.2533 4.523 21.2072 4.63281 20.1484Z" fill="#157B11"/>
</g>
<defs>
<clipPath id="clip0_54_2036">
<rect width="25" height="25" fill="white"/>
</clipPath>
</defs>
</svg>
