<svg width="63" height="63" viewBox="0 0 63 63" fill="none" xmlns="http://www.w3.org/2000/svg">
<path fill-rule="evenodd" clip-rule="evenodd" d="M0 31.5C0 23.1457 3.31874 15.1335 9.22614 9.22614C15.1335 3.31874 23.1457 0 31.5 0C39.8543 0 47.8665 3.31874 53.7739 9.22614C59.6813 15.1335 63 23.1457 63 31.5C63 39.8543 59.6813 47.8665 53.7739 53.7739C47.8665 59.6813 39.8543 63 31.5 63C23.1457 63 15.1335 59.6813 9.22614 53.7739C3.31874 47.8665 0 39.8543 0 31.5H0ZM29.7024 44.982L47.838 22.3104L44.562 19.6896L29.0976 39.0138L18.144 29.8872L15.456 33.1128L29.7024 44.9862V44.982Z" fill="#E1353C"/>
</svg>
