<svg width="30" height="30" viewBox="0 0 30 30" fill="none" xmlns="http://www.w3.org/2000/svg">
    <g id="dashicons:email-alt2">
        <path id="Vector"
            d="M24 1.65002L6 8.85002C4.35 9.45002 3 11.55 3 13.35V26.4C3 28.2 4.35 29.1 6 28.5L24 21.3C25.65 20.7 27 18.6 27 16.8V3.75002C27 1.95002 25.65 1.05002 24 1.65002ZM24.9 5.55002L15.9 19.5L5.85 12.75C5.7 12.6 5.25 12.15 5.55 11.7C5.85 11.1 6.6 11.4 6.6 11.4L16.05 14.85C16.05 14.85 23.25 5.40002 23.7 4.80002C23.85 4.50002 24.3 4.35002 24.75 4.65002C25.2 4.95002 25.05 5.40002 24.9 5.55002Z"
            fill="white" />
    </g>
</svg>
