<svg width="317" height="321" viewBox="0 0 317 321" fill="none" xmlns="http://www.w3.org/2000/svg">
<path d="M79.4057 1.85205H18.0562V65.8027H79.4057V1.85205Z" fill="#E0E0E0"/>
<path d="M75.2509 1.85205H13.9014V65.8027H75.2509V1.85205Z" fill="#EBEBEB"/>
<path d="M67.0072 10.45H22.1528V57.2045H67.0072V10.45Z" fill="#FAFAFA"/>
<path d="M22.1526 57.5154C21.8226 57.9866 21.4475 58.4246 21.0327 58.8231C20.3102 59.5457 19.2986 60.5933 18.1426 61.7132C16.9866 62.8332 15.975 63.823 15.2525 64.5239C14.8617 64.9294 14.4335 65.2971 13.9736 65.6221C14.2907 65.1493 14.6564 64.711 15.0646 64.3143C15.7872 63.5918 16.7987 62.5369 17.9547 61.4242C19.1108 60.3115 20.1223 59.3145 20.881 58.6064C21.2637 58.1973 21.6901 57.8315 22.1526 57.5154V57.5154Z" fill="#E0E0E0"/>
<path d="M67.007 57.3782C67.4656 57.7101 67.8914 58.0851 68.2786 58.4981C69.0011 59.2206 70.0488 60.2321 71.1687 61.3882C72.2886 62.5442 73.2712 63.5558 73.9793 64.2783C74.3869 64.6671 74.7548 65.0955 75.0776 65.5572C74.6153 65.2325 74.1891 64.8595 73.8059 64.4445C73.0834 63.7219 72.0357 62.7104 70.9158 61.5544C69.7959 60.3983 68.8133 59.3868 68.1052 58.6643C67.6948 58.2755 67.3267 57.8444 67.007 57.3782V57.3782Z" fill="#E0E0E0"/>
<path d="M66.8842 10.573C67.2133 10.1122 67.5885 9.68612 68.0041 9.3014C68.7266 8.57888 69.7309 7.53121 70.858 6.4113C71.9852 5.29139 73.0256 4.30153 73.7843 3.60068C74.1764 3.19383 74.6071 2.82603 75.0704 2.50244C74.7398 2.95991 74.3646 3.38346 73.9504 3.76686C73.2279 4.48938 72.2236 5.54427 71.0603 6.65696C69.8971 7.76965 68.8928 8.76673 68.1269 9.47481C67.7508 9.88191 67.3344 10.2499 66.8842 10.573V10.573Z" fill="#E0E0E0"/>
<path d="M22.0298 10.6885C21.5712 10.3566 21.1454 9.98161 20.7582 9.56859C20.0357 8.84606 18.9808 7.83453 17.8681 6.67849C16.7554 5.52245 15.7583 4.51092 15.0502 3.78839C14.6434 3.40092 14.2778 2.97234 13.9592 2.50952C14.4161 2.83811 14.8396 3.21079 15.2236 3.62221C15.9462 4.34473 17.0011 5.35627 18.1137 6.51231C19.2264 7.66835 20.2235 8.67988 20.9316 9.40241C21.342 9.7912 21.7101 10.2223 22.0298 10.6885V10.6885Z" fill="#E0E0E0"/>
<path d="M66.8841 57.2046C66.8841 57.2046 66.8841 57.1251 66.8841 56.9806C66.8841 56.8361 66.8841 56.6049 66.8841 56.3304C66.8841 55.7451 66.8841 54.8853 66.8841 53.8088C66.8841 51.5978 66.8841 48.3754 66.8841 44.2787C66.8841 36.0925 66.8407 24.4237 66.8046 10.45L66.9563 10.5945H22.2248L22.391 10.4284C22.391 27.5883 22.391 43.6645 22.391 57.1829L22.2465 57.0384L54.6445 57.1107L63.7339 57.154H66.1399H63.77H54.7023L22.1887 57.2263H22.0442V57.0818C22.0442 43.5417 22.0442 27.4583 22.0442 10.3272V10.1538H22.2176H66.9491H67.0936V10.3055C67.0936 24.3153 67.0358 36.0202 67.0214 44.2642C67.0214 48.3465 67.0214 51.5545 66.978 53.7582C66.978 54.842 66.978 55.6801 66.978 56.2509C66.978 56.5255 66.978 56.735 66.978 56.8867C66.978 57.0384 66.8841 57.2046 66.8841 57.2046Z" fill="#E0E0E0"/>
<path d="M33.9877 29.98C33.9877 29.98 33.0268 41.5404 45.5481 41.5404C45.5626 35.3772 40.4688 30.5002 33.9877 29.98Z" fill="#EBEBEB"/>
<path d="M56.9278 29.9872C56.9278 29.9872 45.3674 29.0263 45.3674 41.5476C51.5306 41.5693 56.4076 36.4683 56.9278 29.9872Z" fill="#EBEBEB"/>
<path d="M45.0061 23.6506C45.0061 23.6506 35.5483 32.1403 45.5263 41.5548C50.165 36.6416 49.7459 28.9323 45.0061 23.6506Z" fill="#E0E0E0"/>
<path d="M237.357 236.03C233.539 233.643 229.227 232.16 224.749 231.694C222.689 231.485 220.414 231.543 218.781 232.793C218.591 232.904 218.435 233.064 218.327 233.256C218.219 233.447 218.164 233.664 218.166 233.884C218.269 234.186 218.477 234.443 218.752 234.606C223.882 238.515 231.642 239.014 237.357 236.015" fill="#E0E0E0"/>
<path d="M237.031 235.668C234.112 233.526 231.387 231.13 228.889 228.508C226.381 225.867 224.618 222.609 223.78 219.065C223.564 217.988 223.499 216.76 224.185 215.907C230.688 220.965 235.745 227.533 237.031 235.668" fill="#E0E0E0"/>
<path d="M237.292 235.979C236.689 232.435 236.738 228.812 237.436 225.286C238.253 221.796 240.153 218.458 243.137 216.464C244.257 219.086 243.773 222.107 242.985 224.845C241.761 229.09 239.852 233.107 237.335 236.738" fill="#E0E0E0"/>
<path d="M243.65 247.402C239.792 247.872 236.425 249.909 233.534 252.518C230.639 255.159 228.622 258.623 227.754 262.445C231.548 262.214 234.763 259.555 237.089 256.549C239.416 253.544 241.042 250.263 243.592 247.46" fill="#E0E0E0"/>
<path d="M245.037 249.201C243.518 245.34 242.986 241.161 243.491 237.043C243.995 232.925 245.52 228.998 247.927 225.618C250.131 233.443 249.322 242.287 245.037 249.201Z" fill="#E0E0E0"/>
<path d="M253.44 259.215C249.909 258.995 246.392 259.819 243.326 261.585C240.261 263.35 237.782 265.979 236.201 269.143C235.984 269.569 235.796 270.111 236.085 270.494C236.234 270.638 236.416 270.744 236.615 270.802C236.814 270.86 237.024 270.868 237.227 270.826C240.623 270.61 243.635 268.565 246.121 266.238C248.606 263.912 250.774 261.217 253.52 259.208" fill="#E0E0E0"/>
<path d="M253.173 258.674C251.364 252.845 251.253 246.622 252.855 240.733C253.483 238.421 254.546 235.993 256.684 234.91C256.769 234.852 256.865 234.814 256.966 234.796C257.067 234.779 257.17 234.783 257.27 234.809C257.442 234.899 257.573 235.051 257.638 235.235C258.354 236.85 258.664 238.616 258.541 240.379C258.413 242.135 258.142 243.877 257.732 245.589C257.06 248.775 256.706 252.2 254.957 254.945C254.543 255.605 254.171 256.29 253.845 256.997C253.512 257.72 253.512 257.944 253.209 258.5" fill="#E0E0E0"/>
<path d="M275.426 261.99C273.779 255.711 275.528 248.11 279.48 242.966C279.776 242.59 280.159 242.186 280.636 242.243C281.358 242.308 281.553 243.284 281.517 244.014C281.221 250.464 279.11 256.7 275.426 262.004" fill="#E0E0E0"/>
<path d="M277.435 263.356C285.058 265.343 293.8 263.413 300.137 258.739C296.339 256.835 291.999 256.304 287.854 257.236C283.75 258.175 280 260.01 277.442 263.356" fill="#E0E0E0"/>
<path d="M279.126 259.179C283.396 252.221 291.575 247.684 299.732 247.272C298.793 250.588 296.062 253.161 292.991 254.721C289.92 256.282 286.488 256.954 283.1 257.611C281.785 257.864 279.978 258.146 279.126 259.179Z" fill="#E0E0E0"/>
<path d="M275.853 238.92C277.009 234.96 278.172 230.972 278.49 226.854C278.808 222.735 278.216 218.451 276.084 214.917C272.096 222.634 271.698 231.644 275.73 239.332" fill="#E0E0E0"/>
<path d="M289.277 232.135C293.938 223.66 303.446 216.897 313.07 215.943C309.356 225.192 299.234 232.33 289.277 232.135Z" fill="#E0E0E0"/>
<path d="M286.344 233.797C293.295 234.852 299.219 239.295 305.715 241.983C307.075 242.643 308.585 242.932 310.093 242.821C310.796 242.818 311.481 242.598 312.055 242.191C312.629 241.785 313.064 241.212 313.301 240.55C313.537 239.888 313.565 239.169 313.379 238.491C313.193 237.812 312.802 237.208 312.261 236.759C311.34 235.911 310.259 235.255 309.082 234.83C302.001 231.882 294.414 231.81 286.958 233.595" fill="#E0E0E0"/>
<path d="M282.319 238.674C283.895 239.122 284.429 239.938 285.679 241C289.929 244.612 294.956 247.194 300.368 248.544C300.932 248.681 301.661 248.739 301.943 248.233C302.225 247.727 301.878 247.25 301.56 246.86C299.201 244.091 296.138 242.009 292.695 240.834C289.299 239.577 286.366 238.053 282.319 238.378" fill="#E0E0E0"/>
<path d="M277.775 209.217C280.628 211.842 283.999 213.841 287.671 215.085C291.343 216.329 295.235 216.792 299.097 216.442C299.451 216.449 299.796 216.325 300.065 216.095C300.599 215.51 299.956 214.607 299.342 214.123C293.071 209.238 285.484 207.208 277.782 209.188" fill="#E0E0E0"/>
<path d="M283.157 207.252C286.931 204.473 291.309 202.627 295.932 201.863C300.556 201.1 305.294 201.441 309.761 202.859C306.408 206.161 301.762 207.916 297.081 208.422C292.407 208.85 287.694 208.454 283.157 207.252Z" fill="#E0E0E0"/>
<path d="M281.019 193.718C280.405 187.461 280.802 182.527 280.369 176.241C280.369 175.735 280.231 175.135 279.762 174.955C279.104 174.702 278.562 175.504 278.317 176.168C277.405 179.082 277.172 182.166 277.634 185.183C278.096 188.201 279.241 191.073 280.983 193.581" fill="#E0E0E0"/>
<path d="M280.571 194.405C284.812 191.782 287.991 188.365 290.932 184.34C292.977 181.537 294.704 178.184 294.241 174.745C291.351 174.687 288.634 176.269 286.763 178.459C284.98 180.725 283.683 183.335 282.955 186.125C282.124 188.878 281.546 191.703 280.571 194.405" fill="#E0E0E0"/>
<path d="M290.751 191.58C300.078 188.126 308.713 183.034 316.249 176.544C313.207 175.316 309.746 176.053 306.676 177.267C299.718 180.077 294.032 184.817 290.621 191.493" fill="#E0E0E0"/>
<path d="M283.432 197.83C288.143 198.343 292.926 198.682 297.594 197.902C302.261 197.122 306.524 195.315 310.809 193.509C311.191 193.392 311.514 193.134 311.712 192.787C311.778 192.588 311.783 192.374 311.725 192.172C311.667 191.971 311.549 191.792 311.387 191.659C311.058 191.397 310.672 191.216 310.259 191.132C305.599 189.824 300.563 190.409 295.975 191.985C291.604 193.468 287.4 195.405 283.432 197.765" fill="#E0E0E0"/>
<path d="M256.554 209.433C253.346 202.931 253.556 195.387 256.323 188.704C258.281 191.681 258.491 195.467 258.158 199.015C257.826 202.562 256.713 206.196 256.655 209.758" fill="#E0E0E0"/>
<path d="M243.722 202.959C239.702 202.907 235.715 203.694 232.016 205.271C228.317 206.847 224.988 209.178 222.241 212.114C226.244 212.742 230.363 211.709 234.004 209.946C237.646 208.183 240.883 205.676 244.12 203.198" fill="#E0E0E0"/>
<path d="M235.102 200.077C231.179 199.759 227.4 199.275 223.629 200.431C219.857 201.587 216.404 204.21 214.893 207.844C218.594 208.141 222.307 207.44 225.645 205.814C228.962 204.187 232.127 202.267 235.102 200.077" fill="#E0E0E0"/>
<path d="M247.869 200.207C244.343 197.895 240.716 195.546 236.612 194.585C232.509 193.624 227.74 194.333 224.871 197.432C228.202 199.383 232.234 199.6 236.092 199.6C239.951 199.6 244.676 199.549 248.31 200.835" fill="#E0E0E0"/>
<path d="M247.891 200.395C241.858 194.47 239.575 183.827 242.003 175.735C246.763 183.024 248.845 191.741 247.891 200.395" fill="#E0E0E0"/>
<path d="M264.48 183.61C265.622 180.966 266.417 178.191 267.443 175.496C268.372 172.764 269.8 170.229 271.655 168.018C273.544 165.797 276.229 164.407 279.133 164.146C278.203 168.226 276.434 172.068 273.937 175.427C271.441 178.786 268.271 181.587 264.632 183.654" fill="#E0E0E0"/>
<path d="M261.482 187.107C259.596 184.521 257.421 181.002 254.871 179.066C252.32 177.129 248.989 175.959 245.875 176.703C247.489 179.531 249.74 181.943 252.449 183.749C255.158 185.555 258.251 186.705 261.482 187.107" fill="#E0E0E0"/>
<path d="M262.081 183.82C260.846 180.684 259.603 177.512 259.105 174.181C258.606 170.851 258.91 167.289 260.615 164.384C263.924 170.641 264.993 177.389 262.248 183.892" fill="#E0E0E0"/>
<path d="M264.509 164.391C266.388 158.185 272.067 153.611 278.201 151.516C278.963 151.207 279.788 151.083 280.607 151.155C281.014 151.202 281.399 151.367 281.714 151.631C282.028 151.894 282.259 152.243 282.377 152.636C282.601 153.691 281.727 154.637 280.932 155.338C276.135 159.432 270.558 162.511 264.538 164.391" fill="#E0E0E0"/>
<path d="M264.581 159.312C264.82 155.316 265.066 151.256 266.366 147.462C267.667 143.669 270.181 140.114 273.83 138.46C274.451 142.499 272.667 146.516 270.513 150.02C268.36 153.524 265.774 156.776 264.48 160.656" fill="#E0E0E0"/>
<path d="M264.48 162.072C262.934 157.549 262.768 151.805 260.066 147.86C258.173 145.107 255.138 143.228 253.505 140.317C252.52 143.113 252.658 146.182 253.888 148.879C255.118 151.548 256.814 153.978 258.895 156.053C260.904 158.221 262.616 159.803 264.48 162.072Z" fill="#E0E0E0"/>
<path d="M264.509 295.255C264.394 295.255 264.285 265.082 264.278 227.879C264.271 190.677 264.357 160.49 264.48 160.49C264.603 160.49 264.704 190.655 264.712 227.879C264.719 265.104 264.632 295.255 264.509 295.255Z" fill="#E0E0E0"/>
<path d="M290.874 204.882C290.51 205.059 290.13 205.202 289.74 205.308L286.618 206.363C283.988 207.259 280.368 208.53 276.445 210.163C272.522 211.796 268.895 213.183 266.807 214.99C265.976 215.687 265.314 216.564 264.87 217.555C264.574 218.277 264.524 218.696 264.48 218.689C264.463 218.584 264.463 218.476 264.48 218.371C264.527 218.071 264.602 217.776 264.704 217.49C265.098 216.438 265.746 215.499 266.59 214.759C267.85 213.694 269.26 212.82 270.773 212.165C272.442 211.384 274.299 210.568 276.265 209.759C280.202 208.147 283.851 206.869 286.51 206.067C287.839 205.655 288.923 205.344 289.682 205.142C290.07 205.017 290.469 204.93 290.874 204.882V204.882Z" fill="#E0E0E0"/>
<path d="M299.515 183.654C299.515 183.654 299.422 183.784 299.198 183.993L298.229 184.904L294.617 188.184L282.587 198.899C277.89 203.075 273.837 207.071 271.026 210.077C269.617 211.579 268.505 212.822 267.746 213.689C267.399 214.094 267.11 214.412 266.872 214.686C266.633 214.961 266.561 215.033 266.547 215.019C266.621 214.883 266.709 214.755 266.807 214.636C266.987 214.39 267.255 214.029 267.616 213.581C268.339 212.678 269.415 211.413 270.795 209.867C274.426 205.901 278.265 202.131 282.298 198.574C287.009 194.398 291.3 190.626 294.414 187.953L298.121 184.774L299.14 183.928C299.254 183.823 299.38 183.731 299.515 183.654V183.654Z" fill="#E0E0E0"/>
<path d="M277.522 203.148C277.399 203.09 278.374 200.828 279.357 197.96C280.34 195.091 280.802 192.678 280.932 192.7C281.062 192.722 280.766 195.2 279.769 198.104C279.352 199.334 278.87 200.539 278.324 201.717C278.126 202.23 277.856 202.712 277.522 203.148V203.148Z" fill="#E0E0E0"/>
<path d="M264.538 221.391C264.268 221.138 264.026 220.857 263.816 220.553L261.959 218.176C260.405 216.16 258.252 213.386 255.839 210.344C253.426 207.302 251.208 204.564 249.604 202.606L247.718 200.272C247.47 199.997 247.252 199.697 247.068 199.376C247.354 199.611 247.615 199.875 247.848 200.164C248.332 200.684 249.018 201.457 249.849 202.418C251.518 204.347 253.78 207.042 256.193 210.091C258.606 213.14 260.73 215.943 262.226 218.003C262.949 219.036 263.563 219.874 263.967 220.466C264.184 220.758 264.375 221.067 264.538 221.391V221.391Z" fill="#E0E0E0"/>
<path d="M258.758 213.986C258.686 214.065 257.147 212.23 256.338 209.455C255.882 207.976 255.696 206.427 255.788 204.882H255.976C255.897 205.229 255.832 205.416 255.796 205.409C255.76 205.402 255.76 205.207 255.796 204.853H255.991C256.081 206.358 256.34 207.849 256.764 209.296C257.537 211.999 258.874 213.913 258.758 213.986Z" fill="#E0E0E0"/>
<path d="M251.33 204.6C250.811 204.202 250.243 203.871 249.64 203.617C248.118 203.162 246.518 203.034 244.943 203.241C243.349 203.364 241.769 203.621 240.218 204.007C239.583 204.211 238.933 204.365 238.274 204.47C238.855 204.126 239.483 203.87 240.138 203.711C241.691 203.229 243.293 202.926 244.914 202.808C246.546 202.591 248.207 202.769 249.755 203.328C250.414 203.553 250.971 204.004 251.33 204.6V204.6Z" fill="#E0E0E0"/>
<path d="M249.524 202.324C249.524 202.389 248.541 201.926 246.937 201.377C242.741 199.939 238.247 199.599 233.881 200.387C232.212 200.684 231.201 200.994 231.179 200.922C231.391 200.789 231.622 200.691 231.865 200.633C232.506 200.409 233.16 200.225 233.824 200.084C238.232 199.116 242.827 199.465 247.039 201.088C247.671 201.331 248.289 201.611 248.888 201.926C249.314 202.158 249.538 202.295 249.524 202.324Z" fill="#E0E0E0"/>
<path d="M264.48 192.7C264.365 192.7 263.519 189.809 262.594 186.139C261.67 182.469 261.005 179.499 261.149 179.47C261.294 179.441 262.11 182.36 263.035 186.031C263.96 189.701 264.596 192.671 264.48 192.7Z" fill="#E0E0E0"/>
<path d="M264.603 192.7C264.473 192.743 263.924 190.778 262.508 188.769C261.62 187.582 260.583 186.514 259.423 185.59C259.862 185.7 260.27 185.91 260.615 186.204C261.489 186.845 262.249 187.629 262.862 188.524C263.797 189.74 264.397 191.18 264.603 192.7V192.7Z" fill="#E0E0E0"/>
<path d="M264.509 279.193C264.466 279.193 264.372 278.471 264.032 277.185C263.535 275.381 262.86 273.631 262.017 271.961C259.936 267.705 256.142 262.301 251.323 256.896C248.932 254.165 246.62 251.593 244.654 249.129C242.889 246.959 241.293 244.657 239.878 242.243C238.932 240.615 238.127 238.908 237.472 237.142C237.248 236.506 237.089 236.022 236.995 235.697C236.933 235.51 236.894 235.316 236.88 235.119C236.923 235.119 237.14 235.842 237.639 237.041C238.352 238.772 239.193 240.448 240.153 242.055C241.593 244.43 243.204 246.698 244.972 248.84C246.945 251.275 249.264 253.84 251.656 256.571C256.489 261.997 260.275 267.459 262.306 271.795C263.129 273.493 263.766 275.276 264.206 277.112C264.326 277.61 264.415 278.114 264.473 278.622C264.507 278.811 264.519 279.002 264.509 279.193V279.193Z" fill="#E0E0E0"/>
<path d="M288.338 252.265C287.936 252.53 287.519 252.771 287.088 252.987C285.958 253.63 284.876 254.355 283.851 255.155C282.333 256.334 280.91 257.632 279.595 259.035C278.1 260.61 276.561 262.445 274.993 264.403C271.857 268.341 268.924 271.823 267.168 274.605C266.272 275.985 265.622 277.148 265.196 277.965C264.999 278.401 264.769 278.821 264.509 279.222C264.53 279.099 264.569 278.98 264.625 278.868C264.719 278.644 264.849 278.304 265.044 277.893C265.595 276.706 266.215 275.553 266.901 274.439C268.613 271.592 271.525 268.059 274.653 264.128C276.229 262.163 277.782 260.328 279.306 258.753C280.643 257.354 282.093 256.069 283.642 254.909C284.695 254.131 285.814 253.446 286.987 252.864C287.399 252.655 287.709 252.525 287.962 252.431C288.075 252.35 288.203 252.294 288.338 252.265V252.265Z" fill="#E0E0E0"/>
<path d="M288.801 260.993C287.933 261.188 287.051 261.316 286.163 261.376C284.045 261.596 281.951 262.007 279.906 262.604C277.886 263.264 275.991 264.258 274.299 265.545C273.006 266.549 272.399 267.373 272.341 267.322C272.432 267.097 272.564 266.891 272.732 266.715C273.142 266.191 273.601 265.707 274.104 265.27C275.776 263.879 277.699 262.822 279.769 262.156C281.842 261.542 283.977 261.164 286.134 261.029C287.02 260.935 287.913 260.923 288.801 260.993V260.993Z" fill="#E0E0E0"/>
<path d="M273.107 266.368C272.97 266.289 274.162 264.468 275.08 262.033C275.997 259.598 276.149 257.409 276.308 257.431C276.376 257.911 276.361 258.4 276.264 258.876C276.132 260.014 275.873 261.134 275.491 262.214C275.092 263.285 274.579 264.309 273.96 265.27C273.737 265.68 273.449 266.051 273.107 266.368V266.368Z" fill="#E0E0E0"/>
<path d="M296.055 228.826C295.92 228.913 295.777 228.988 295.628 229.05L294.386 229.614C293.844 229.845 293.186 230.141 292.442 230.531C291.698 230.921 290.831 231.312 289.92 231.861L288.475 232.677C287.977 232.966 287.478 233.306 286.958 233.631C285.896 234.281 284.834 235.076 283.7 235.878C278.839 239.507 274.599 243.899 271.142 248.883C270.376 250.047 269.618 251.138 269.011 252.222C268.7 252.756 268.375 253.262 268.107 253.768L267.334 255.213C266.821 256.138 266.46 257.019 266.099 257.778C265.738 258.536 265.456 259.223 265.246 259.757L264.726 261.015C264.673 261.167 264.603 261.312 264.516 261.448C264.538 261.29 264.579 261.134 264.639 260.986C264.762 260.646 264.907 260.22 265.087 259.692C265.316 259.01 265.579 258.34 265.875 257.684C266.214 256.911 266.561 256.015 267.06 255.075L267.782 253.587C268.042 253.074 268.36 252.561 268.671 252.012C269.263 250.914 270.015 249.844 270.781 248.638C274.223 243.59 278.499 239.166 283.425 235.553C284.581 234.744 285.658 233.956 286.734 233.32C287.269 232.995 287.767 232.663 288.273 232.381L289.718 231.579C290.636 231.052 291.524 230.669 292.283 230.307C292.928 229.986 293.588 229.699 294.263 229.448L295.542 228.963C295.705 228.893 295.878 228.847 296.055 228.826Z" fill="#E0E0E0"/>
<path d="M277.197 241.456C277.374 240.848 277.735 240.31 278.23 239.917C279.39 238.903 280.873 238.335 282.413 238.313C283.92 238.303 285.414 238.595 286.806 239.173C287.396 239.359 287.956 239.629 288.468 239.975C287.875 239.857 287.294 239.683 286.734 239.454C285.355 238.983 283.907 238.739 282.45 238.732C281.005 238.762 279.607 239.253 278.461 240.134C278.009 240.544 277.587 240.986 277.197 241.456V241.456Z" fill="#E0E0E0"/>
<path d="M274.379 244.367C274.256 244.302 275.318 242.742 275.564 240.509C275.809 238.277 275.166 236.514 275.296 236.477C275.427 236.441 275.585 236.868 275.788 237.605C276.303 239.547 276.062 241.612 275.116 243.385C274.747 244.05 274.451 244.396 274.379 244.367Z" fill="#E0E0E0"/>
<path d="M243.672 283.528C244.322 295.089 247.797 306.786 253.144 318.643H276.38C281.481 306.866 284.711 295.161 285.289 283.528H243.672Z" fill="#E0E0E0"/>
<path d="M281.525 302.148C281.525 302.271 273.873 302.372 264.43 302.372C254.986 302.372 247.342 302.271 247.342 302.148C247.342 302.025 254.994 301.931 264.43 301.931C273.866 301.931 281.525 302.032 281.525 302.148Z" fill="#FAFAFA"/>
<path d="M281.005 306.324C281.005 306.447 273.83 306.548 264.986 306.548C256.142 306.548 248.961 306.447 248.961 306.324C248.961 306.201 256.135 306.107 264.986 306.107C273.837 306.107 281.005 306.208 281.005 306.324Z" fill="#FAFAFA"/>
<path d="M253.498 291.064C253.787 294.628 253.787 298.209 253.498 301.772C253.375 301.772 253.281 299.373 253.281 296.418C253.281 293.463 253.397 291.064 253.498 291.064Z" fill="#FAFAFA"/>
<path d="M265.969 291.064C266.092 291.064 266.185 293.542 266.185 296.606C266.185 299.669 266.092 302.148 265.969 302.148C265.846 302.148 265.752 299.669 265.752 296.606C265.752 293.542 265.846 291.064 265.969 291.064Z" fill="#FAFAFA"/>
<path d="M277.659 290.97C277.782 290.97 277.876 293.499 277.876 296.62C277.876 299.742 277.782 302.278 277.659 302.278C277.536 302.278 277.442 299.749 277.442 296.62C277.442 293.492 277.536 290.97 277.659 290.97Z" fill="#FAFAFA"/>
<path d="M284.567 291.064C284.567 291.187 275.593 291.281 264.524 291.281C253.455 291.281 244.481 291.187 244.481 291.064C244.481 290.941 253.447 290.847 264.524 290.847C275.6 290.847 284.567 290.941 284.567 291.064Z" fill="#FAFAFA"/>
<path d="M272.081 176.038H8.73535V184.152H272.081V176.038Z" fill="#EBEBEB"/>
<path d="M31.5166 183.155L11.7844 318.607H16.0184L40.3531 184.152L31.5166 183.155Z" fill="#EBEBEB"/>
<path d="M253.483 182.295L274.299 318.607H270.073L244.64 183.538L253.483 182.295Z" fill="#EBEBEB"/>
<path d="M18.7351 143.359V161.624H15.686V163.589H18.7351V175.814H75.7567V164.688H71.5372V162.26H75.7567V158.647H77.6353V157H75.3955V143.359H18.7351Z" fill="#F5F5F5"/>
<path d="M60.6053 143.387V175.605H75.7422V164.485H71.5227V162.267L75.7422 162.339V158.705H77.6569L77.6208 156.826L75.3954 156.776V143.337L60.6053 143.387Z" fill="#E0E0E0"/>
<path d="M61.6821 163.322C61.6821 163.438 51.3717 163.524 38.648 163.524C25.9243 163.524 15.6067 163.438 15.6067 163.322C15.6067 163.206 25.9243 163.12 38.648 163.12C51.3717 163.12 61.6821 163.214 61.6821 163.322Z" fill="#E0E0E0"/>
<path d="M61.6821 161.465C61.6821 161.581 51.3717 161.667 38.648 161.667C25.9243 161.667 15.6067 161.581 15.6067 161.465C15.6067 161.349 25.9243 161.263 38.648 161.263C51.3717 161.263 61.6821 161.357 61.6821 161.465Z" fill="#E0E0E0"/>
<path d="M64.6445 156.472C64.6445 156.588 54.3268 156.675 41.6104 156.675C28.894 156.675 18.5691 156.588 18.5691 156.472C18.5691 156.357 28.8795 156.27 41.6104 156.27C54.3413 156.27 64.6445 156.364 64.6445 156.472Z" fill="#E0E0E0"/>
<path d="M64.9189 170.092C64.9189 170.208 54.6085 170.301 41.8848 170.301C29.1612 170.301 18.8435 170.208 18.8435 170.092C18.8435 169.976 29.1539 169.89 41.8848 169.89C54.6157 169.89 64.9189 169.969 64.9189 170.092Z" fill="#E0E0E0"/>
<path d="M79.9692 131.104H70.0272V142.925H79.9692V131.104Z" fill="#F5F5F5"/>
<path d="M70.3668 130.331H25.4402V143.662H70.3668V130.331Z" fill="#E0E0E0"/>
<path d="M80.2652 131.458H69.16V130.353H80.2652C80.4147 130.353 80.5581 130.412 80.6638 130.518C80.7694 130.624 80.8288 130.767 80.8288 130.917C80.8232 131.062 80.7614 131.2 80.6563 131.301C80.5512 131.402 80.411 131.459 80.2652 131.458Z" fill="#E0E0E0"/>
<path d="M80.2652 143.669H69.16V142.542H80.2652C80.4147 142.542 80.5581 142.601 80.6638 142.707C80.7694 142.813 80.8288 142.956 80.8288 143.106C80.8288 143.255 80.7694 143.398 80.6638 143.504C80.5581 143.61 80.4147 143.669 80.2652 143.669Z" fill="#E0E0E0"/>
<path d="M66.8408 130.331H61.5303V143.662H66.8408V130.331Z" fill="#EBEBEB"/>
<path d="M35.0281 130.483H29.7175V143.814H35.0281V130.483Z" fill="#EBEBEB"/>
<path d="M79.969 133.063C79.969 133.063 77.8014 133.12 75.1642 133.12C72.527 133.12 70.3522 133.12 70.3522 133.063C70.3522 133.005 72.5197 132.998 75.1642 132.998C77.8086 132.998 79.969 133.026 79.969 133.063Z" fill="#E0E0E0"/>
<path d="M79.969 134.833C79.969 134.833 77.8014 134.891 75.1642 134.891C72.527 134.891 70.3522 134.891 70.3522 134.833C70.3522 134.775 72.5197 134.775 75.1642 134.775C77.8086 134.775 79.969 134.797 79.969 134.833Z" fill="#E0E0E0"/>
<path d="M79.969 137.015C79.969 137.015 77.8014 137.073 75.1642 137.073C72.527 137.073 70.3522 137.073 70.3522 137.015C70.3522 136.957 72.5197 136.957 75.1642 136.957C77.8086 136.957 79.969 136.979 79.969 137.015Z" fill="#E0E0E0"/>
<path d="M79.969 139.197C79.969 139.197 77.8014 139.255 75.1642 139.255C72.527 139.255 70.3522 139.255 70.3522 139.197C70.3522 139.139 72.5197 139.139 75.1642 139.139C77.8086 139.139 79.969 139.161 79.969 139.197Z" fill="#E0E0E0"/>
<path d="M79.969 141.379C79.969 141.379 77.8014 141.437 75.1642 141.437C72.527 141.437 70.3522 141.437 70.3522 141.379C70.3522 141.321 72.5197 141.321 75.1642 141.321C77.8086 141.321 79.969 141.343 79.969 141.379Z" fill="#E0E0E0"/>
<path d="M58.669 135.815H38.46V138.214H58.669V135.815Z" fill="#EBEBEB"/>
<path d="M60.9306 117.391L66.523 130.527H62.9248L60.4393 123.511L60.9306 117.391Z" fill="#E0E0E0"/>
<path d="M43.7634 105.513L41.603 130.527H59.8757L61.8843 105.513H43.7634Z" fill="#EBEBEB"/>
<path d="M45.548 107.492L43.655 128.446L57.3758 128.626L59.2254 107.37L45.548 107.492Z" fill="#FAFAFA"/>
<path d="M48.4599 110.397L47.3833 124.811H54.7025L55.9886 110.397H48.4599Z" fill="#E0E0E0"/>
<path d="M258.441 12.5352L251.686 12.5718L251.868 46.1904L258.623 46.1538L258.441 12.5352Z" fill="#E0E0E0"/>
<path d="M210.647 12.6207L193.148 12.7153L193.248 31.2767L210.748 31.182L210.647 12.6207Z" fill="#EBEBEB"/>
<path d="M228.059 12.5337L210.56 12.6284L210.661 31.1898L228.16 31.0951L228.059 12.5337Z" fill="#F5F5F5"/>
<path d="M193.174 17.856C204.8 17.9572 216.461 17.856 228.087 17.697C228.129 17.6886 228.168 17.6656 228.195 17.632C228.223 17.5984 228.238 17.5563 228.238 17.5128C228.238 17.4693 228.223 17.4272 228.195 17.3936C228.168 17.36 228.129 17.337 228.087 17.3286C216.464 17.2611 204.829 17.331 193.182 17.5381C193.139 17.5381 193.099 17.5548 193.069 17.5846C193.039 17.6145 193.023 17.6549 193.023 17.697C193.023 17.7392 193.039 17.7796 193.069 17.8094C193.099 17.8393 193.139 17.856 193.182 17.856H193.174Z" fill="#E0E0E0"/>
<path d="M214.034 30.8819L182.243 31.054L182.325 46.1762L214.116 46.0042L214.034 30.8819Z" fill="#EBEBEB"/>
<path d="M245.672 30.7037L213.881 30.8757L213.963 45.998L245.754 45.826L245.672 30.7037Z" fill="#F5F5F5"/>
<path d="M182.257 35.2687C203.376 35.5072 224.568 35.2687 245.687 34.958C245.737 34.958 245.785 34.9382 245.82 34.903C245.855 34.8678 245.875 34.82 245.875 34.7702C245.875 34.7204 245.855 34.6726 245.82 34.6373C245.785 34.6021 245.737 34.5823 245.687 34.5823C224.568 34.4739 203.369 34.4812 182.257 34.9508C182.215 34.9508 182.174 34.9676 182.144 34.9974C182.115 35.0272 182.098 35.0676 182.098 35.1098C182.098 35.1519 182.115 35.1923 182.144 35.2222C182.174 35.252 182.215 35.2687 182.257 35.2687V35.2687Z" fill="#E0E0E0"/>
<path d="M293.533 46.1863H170.371V51.6052H293.533V46.1863Z" fill="#E0E0E0"/>
<path d="M195.537 48.7944H190.537V67.2838H195.537V48.7944Z" fill="#E0E0E0"/>
<path d="M270.174 48.7944H265.174V67.2838H270.174V48.7944Z" fill="#E0E0E0"/>
<path d="M265.028 6.98994e-05L258.272 0.0366211L258.522 46.2775L265.278 46.241L265.028 6.98994e-05Z" fill="#EBEBEB"/>
<path d="M275.587 8.61312L265.089 8.66992L265.291 46.1395L275.789 46.0827L275.587 8.61312Z" fill="#F5F5F5"/>
<path d="M275.521 15.84C273.776 16.021 272.021 16.0814 270.268 16.0207C268.517 16.0815 266.764 16.0212 265.022 15.84C268.518 15.5992 272.025 15.5992 275.521 15.84V15.84Z" fill="#E0E0E0"/>
<path d="M275.521 14.2651C273.776 14.4461 272.021 14.5064 270.268 14.4457C268.517 14.5066 266.764 14.4462 265.022 14.2651C268.518 14.0243 272.025 14.0243 275.521 14.2651V14.2651Z" fill="#E0E0E0"/>
<path d="M275.521 40.4565C272.025 40.6973 268.518 40.6973 265.022 40.4565C268.518 40.2157 272.025 40.2157 275.521 40.4565V40.4565Z" fill="#E0E0E0"/>
<path d="M275.521 38.8813C272.025 39.1221 268.518 39.1221 265.022 38.8813C268.518 38.6405 272.025 38.6405 275.521 38.8813V38.8813Z" fill="#E0E0E0"/>
<path d="M270.441 35.4494C270.34 35.4494 270.253 31.6706 270.253 27.0031C270.253 22.3355 270.34 18.564 270.441 18.564C270.542 18.564 270.622 22.3428 270.622 27.0031C270.622 31.6633 270.535 35.4494 270.441 35.4494Z" fill="#E0E0E0"/>
<path d="M287.059 17.8271H275.629V46.114H287.059V17.8271Z" fill="#EBEBEB"/>
<path d="M263.498 7.90683C263.499 8.29154 263.386 8.66802 263.174 8.98859C262.961 9.30916 262.658 9.5594 262.303 9.70761C261.948 9.85583 261.557 9.89535 261.179 9.82118C260.802 9.747 260.455 9.56246 260.182 9.29094C259.91 9.01941 259.724 8.67311 259.648 8.29589C259.573 7.91868 259.611 7.52752 259.758 7.17195C259.905 6.81638 260.154 6.51241 260.473 6.29852C260.793 6.08464 261.169 5.97046 261.554 5.97046C262.068 5.97046 262.562 6.17423 262.926 6.53717C263.29 6.9001 263.496 7.39261 263.498 7.90683V7.90683Z" fill="#E0E0E0"/>
<path d="M262.154 13.2534H260.954V40.7599H262.154V13.2534Z" fill="#E0E0E0"/>
<path d="M303.244 318.607C303.244 318.708 235.326 318.795 151.629 318.795C67.9318 318.795 0 318.708 0 318.607C0 318.506 67.874 318.419 151.629 318.419C235.384 318.419 303.244 318.499 303.244 318.607Z" fill="#263238"/>
<path d="M150.386 227.077L180.176 318.607H174.75L139.852 227.077H150.386Z" fill="#E0E0E0"/>
<path d="M150.386 227.078H149.664H147.641L139.823 227.121L139.895 227.013C145.878 242.597 158.775 276.303 173.716 315.32C174.121 316.389 174.526 317.487 174.93 318.506L174.757 318.39H180.176L179.995 318.636C171.679 292.979 164.259 270.111 158.919 253.652C156.26 245.408 154.122 238.775 152.648 234.187C151.925 231.897 151.347 230.119 150.957 228.906L150.523 227.526C150.43 227.215 150.386 227.049 150.386 227.049C150.386 227.049 150.444 227.193 150.545 227.497L151 228.848C151.398 230.054 151.983 231.81 152.734 234.079C154.237 238.652 156.405 245.264 159.107 253.471C164.49 269.952 171.968 292.842 180.349 318.499L180.429 318.744H174.649L174.598 318.621C174.201 317.567 173.789 316.504 173.384 315.435C158.536 276.361 145.711 242.619 139.794 227.056V226.948H139.91L147.771 226.991H149.772C150.177 227.063 150.386 227.078 150.386 227.078Z" fill="#263238"/>
<path d="M91.7606 227.077L61.9709 318.607H67.3899L102.295 227.077H91.7606Z" fill="#E0E0E0"/>
<path d="M91.7605 227.078C91.7605 227.078 91.9845 227.078 92.4325 227.078H94.4339L102.295 227.034H102.411L102.367 227.143C96.4569 242.706 83.6321 276.448 68.7842 315.522L67.5632 318.708L67.5198 318.831H61.7396L61.8191 318.585L83.0686 253.558L89.4412 234.165C90.1638 231.897 90.7779 230.141 91.1753 228.934L91.6305 227.583C91.7316 227.28 91.7894 227.135 91.7894 227.135C91.7894 227.135 91.7461 227.302 91.6522 227.612L91.2186 228.992C90.8285 230.206 90.2577 231.983 89.5279 234.274C88.0468 238.862 85.9153 245.495 83.2564 253.739C77.9097 270.198 70.4966 293.066 62.1804 318.723L61.9997 318.477H67.4187L67.2453 318.593L68.4591 315.406C83.4009 276.39 96.298 242.655 102.244 227.106L102.324 227.215L94.4989 227.171H92.4831L91.7605 227.078Z" fill="#263238"/>
<path d="M140.618 229.086C140.454 229.225 140.281 229.351 140.098 229.462L138.566 230.473L132.923 234.173C128.161 237.309 121.594 241.658 114.376 246.499L95.8934 258.963L90.2867 262.727L88.7621 263.695C88.59 263.823 88.4061 263.934 88.213 264.027C88.3721 263.886 88.5411 263.755 88.7188 263.637L90.2072 262.575L95.7489 258.717C100.438 255.48 106.948 251.036 114.173 246.196C121.399 241.355 127.981 237.034 132.786 233.956C135.184 232.424 137.121 231.189 138.494 230.343L140.061 229.39C140.239 229.275 140.425 229.173 140.618 229.086V229.086Z" fill="#263238"/>
<path d="M83.466 129.5C83.466 129.5 74.131 130.461 72.7727 136.083C71.4143 141.704 66.9925 211.225 72.7727 221.073C78.5529 230.921 152.973 229.549 158.139 228.197C163.305 226.846 165.74 223.494 165.213 219.397C164.685 215.3 114.007 210.221 114.007 210.221L117.1 137.665C117.1 137.665 98.8775 128.489 83.466 129.5Z" fill="#263238"/>
<path d="M165.256 221.153H165.032H164.367L161.817 221.218C159.598 221.276 156.39 221.305 152.424 221.297C144.476 221.297 133.53 221.023 121.456 220.156C115.423 219.715 109.679 219.159 104.47 218.566C99.2604 217.974 94.5784 217.323 90.6624 216.709C88.6971 216.42 86.9341 216.11 85.3807 215.849C83.8273 215.589 82.4906 215.351 81.3996 215.127L78.8924 214.643L78.2422 214.513L78.0254 214.455C78.0997 214.445 78.175 214.445 78.2494 214.455L78.9069 214.549L81.4285 214.961C82.5195 215.149 83.8562 215.373 85.4168 215.604C86.9775 215.835 88.7404 216.139 90.6985 216.406C94.6218 216.991 99.3037 217.591 104.506 218.183C109.708 218.776 115.452 219.303 121.485 219.744C133.551 220.611 144.498 220.907 152.424 220.994C156.383 221.037 159.591 221.044 161.817 221.037H165.039L165.256 221.153Z" fill="#455A64"/>
<path d="M154.331 265.053C154.273 265.14 142.482 256.853 128.002 246.557C113.523 236.261 101.825 227.829 101.883 227.771C101.941 227.713 113.733 235.972 128.219 246.275C142.706 256.578 154.389 264.967 154.331 265.053Z" fill="#263238"/>
<path d="M90.0628 67.0815L84.1019 56.5833C87.7835 50.6057 89.0961 43.4673 87.7816 36.5712C86.4672 29.675 82.6208 23.5199 76.9986 19.3158C71.3764 15.1116 64.3849 13.1624 57.3985 13.8514C50.4121 14.5404 43.936 17.8177 39.2433 23.0391C34.5506 28.2605 31.9806 35.0483 32.0386 42.0684C32.0965 49.0884 34.7782 55.833 39.5564 60.9762C44.3347 66.1194 50.8639 69.2894 57.8608 69.863C64.8576 70.4365 71.8159 68.3722 77.368 64.0758L90.0628 67.0815Z" fill="white"/>
<path d="M90.0627 67.0815L77.3318 64.1914H77.1584L77.2668 64.0469L77.4258 64.2059C73.5121 67.2637 68.8572 69.2284 63.9362 69.8994C62.4625 70.1089 60.973 70.1862 59.4855 70.1306C58.7196 70.0872 57.9393 70.0656 57.1517 70.0005L54.7746 69.6465C47.6911 68.2567 41.4028 64.2212 37.1884 58.3607C34.8479 55.1281 33.2245 51.4332 32.4269 47.5228C31.6175 43.3752 31.731 39.1003 32.7593 35.0014C33.8236 30.7235 35.8917 26.7606 38.7924 23.441C41.7372 20.0337 45.4528 17.3783 49.6302 15.6956C53.6372 14.1133 57.9485 13.4516 62.2455 13.7592C66.3035 14.0391 70.2503 15.2083 73.8059 17.184C80.1962 20.7188 84.986 26.5715 87.1871 33.5347C88.0544 36.5069 88.466 39.5935 88.4081 42.6891C88.2549 47.6269 86.8019 52.437 84.1958 56.6338V56.5182L90.0627 67.0743C89.6726 66.4096 87.8373 63.2377 84.008 56.6266V56.576V56.5182C86.558 52.341 87.9657 47.5671 88.0902 42.6747C88.1374 39.6185 87.7183 36.573 86.8475 33.6431C84.6724 26.7596 79.9435 20.9707 73.6325 17.4658C70.1243 15.5247 66.2316 14.3801 62.2311 14.1133C57.9998 13.8129 53.7552 14.4672 49.8109 16.0279C45.6999 17.687 42.0439 20.3027 39.1464 23.6578C36.289 26.927 34.2529 30.8307 33.2072 35.0448C32.1875 39.0784 32.0716 43.2875 32.8676 47.3711C33.6401 51.2396 35.2316 54.8981 37.5352 58.1006C41.6834 63.8962 47.8843 67.8932 54.8758 69.278L57.224 69.6393C58.0043 69.7043 58.7702 69.726 59.5288 69.7766C60.9988 69.8356 62.4712 69.7655 63.929 69.567C68.8047 68.9236 73.4249 67.0072 77.3246 64.0108L78.0471 63.4689L77.5052 64.1914L77.4402 64.018L90.0627 67.0815Z" fill="#263238"/>
<path d="M55.3599 38.1083H57.1373L61.0101 32.7039V29.1563C61.0101 29.1563 63.7557 28.9901 63.4378 33.6287C63.1198 38.2673 63.4378 37.0896 63.4378 37.0896C63.4378 37.0896 69.2685 37.0896 69.7526 37.6243C70.1067 37.9855 70.2656 43.7802 70.3234 46.9159C70.3638 47.6737 70.1486 48.4232 69.7124 49.0442C69.2761 49.6651 68.644 50.1217 67.9174 50.3407C67.7127 50.3978 67.5013 50.427 67.2888 50.4274C65.8438 50.4274 58.409 49.2424 58.409 49.2424H55.3383L55.3599 38.1083Z" fill="#FF725E"/>
<path d="M50.2734 37.1328L51.3717 49.2785H54.4135V37.3785L50.2734 37.1328Z" fill="#FF725E"/>
<path d="M202.466 191.045C202.466 191.045 219.185 191.045 219.871 206.623C220.558 222.2 171.202 304.38 171.202 304.38L155.574 296.96L189.085 217.215L116.37 210.062L118.429 191.768L202.466 191.045Z" fill="#FFBE9D"/>
<path d="M174.504 299.641L174.02 300.746C174.02 300.746 189.337 316.497 187.965 320.124L151.036 303.506L157.069 291.44C161.412 296.462 167.033 299.337 174.504 299.641Z" fill="#455A64"/>
<g opacity="0.6">
<path d="M159.042 297.061C158.638 297.011 158.23 297.11 157.894 297.34C157.558 297.571 157.319 297.916 157.221 298.311C157.155 298.713 157.245 299.126 157.473 299.463C157.702 299.801 158.051 300.038 158.45 300.125C158.877 300.177 159.309 300.07 159.663 299.823C160.016 299.576 160.266 299.208 160.364 298.788C160.393 298.362 160.254 297.942 159.977 297.617C159.701 297.292 159.308 297.087 158.883 297.047" fill="white"/>
</g>
<g opacity="0.6">
<path d="M151.036 303.514L152.481 300.624L187.343 317.61C187.343 317.61 188.665 319.055 187.957 320.139L151.036 303.514Z" fill="white"/>
</g>
<path d="M174.099 300.905C174.013 301.079 173.073 300.761 171.932 300.941C170.79 301.122 169.967 301.664 169.829 301.519C169.692 301.375 170.436 300.45 171.831 300.255C173.225 300.06 174.215 300.754 174.099 300.905Z" fill="#263238"/>
<path d="M177.257 304.251C177.221 304.438 176.296 304.395 175.342 304.886C174.388 305.378 173.847 306.1 173.673 306.013C173.5 305.927 173.839 304.85 175.039 304.265C176.238 303.68 177.329 304.077 177.257 304.251Z" fill="#263238"/>
<path d="M177.373 309.872C177.192 309.872 177.373 308.824 178.247 308.044C179.121 307.263 180.176 307.256 180.183 307.437C180.19 307.617 179.461 307.914 178.738 308.564C178.016 309.214 177.56 309.937 177.373 309.872Z" fill="#263238"/>
<path d="M170.834 132.311L173.803 141.393L157.611 142.658L155.726 137.795L170.834 132.311Z" fill="#FFBE9D"/>
<path d="M216.808 144.226C217.119 144.847 217.928 144.948 218.549 145.273C219.128 145.605 219.602 146.092 219.918 146.679C220.233 147.267 220.378 147.931 220.334 148.597C220.23 149.928 219.79 151.211 219.055 152.325C218.829 152.778 218.5 153.172 218.094 153.474C217.889 153.617 217.644 153.693 217.393 153.693C217.143 153.693 216.898 153.617 216.693 153.474C216.216 153.077 216.273 152.34 216.375 151.725C216.758 149.421 216.259 146.509 216.801 144.233" fill="#FFBE9D"/>
<path d="M109.123 30.3485C108.985 29.3353 109.233 28.3074 109.816 27.4675C110.399 26.6276 111.276 26.0366 112.273 25.811L130.148 14.4385C136.962 12.9068 145.545 24.2865 146.766 31.1505C148 38.6948 148.484 46.3427 148.211 53.9823C147.72 65.7305 140.018 66.9877 140.018 66.9877L145.798 106.055L117.945 88.8802L109.123 30.3485Z" fill="#FFBE9D"/>
<path d="M143.053 40.8975C143.1 41.2816 142.997 41.6693 142.763 41.9782C142.53 42.2871 142.185 42.493 141.803 42.552C141.426 42.6217 141.037 42.5391 140.722 42.3223C140.406 42.1056 140.189 41.7724 140.119 41.396C140.072 41.0118 140.175 40.6241 140.409 40.3152C140.642 40.0063 140.987 39.8005 141.369 39.7414C141.746 39.6717 142.135 39.7544 142.45 39.9711C142.766 40.1879 142.983 40.521 143.053 40.8975V40.8975Z" fill="#263238"/>
<path d="M145.35 36.6779C145.206 36.8369 144.021 36.8152 142.525 37.4004C141.029 37.9857 140.04 38.766 139.852 38.7226C139.664 38.6793 139.852 38.4698 140.307 38.1085C140.935 37.5957 141.646 37.1949 142.41 36.9236C143.138 36.6431 143.912 36.4986 144.693 36.4973C145.213 36.4828 145.422 36.6056 145.35 36.6779Z" fill="#263238"/>
<path d="M128.255 41.6128C128.301 41.9977 128.196 42.3854 127.961 42.6941C127.726 43.0027 127.381 43.2083 126.998 43.2674C126.623 43.3349 126.236 43.2513 125.922 43.0347C125.608 42.8182 125.392 42.4862 125.322 42.1113C125.272 41.7268 125.375 41.3382 125.609 41.0288C125.843 40.7195 126.188 40.5141 126.572 40.4567C126.948 40.3871 127.337 40.4697 127.653 40.6864C127.968 40.9032 128.185 41.2364 128.255 41.6128Z" fill="#263238"/>
<path d="M129.809 39.7052C129.592 39.7919 128.479 39.1272 126.752 38.8743C125.026 38.6214 123.674 38.8743 123.508 38.7587C123.342 38.6431 123.674 38.5202 124.231 38.383C125.098 38.2108 125.988 38.1937 126.861 38.3324C127.707 38.4482 128.523 38.7227 129.267 39.1416C129.78 39.4379 129.946 39.6691 129.809 39.7052Z" fill="#263238"/>
<path d="M136.861 49.5316C137.667 49.1666 138.517 48.9068 139.39 48.7585C139.787 48.6718 140.163 48.5489 140.199 48.2599C140.186 47.8365 140.042 47.4275 139.787 47.0894C139.305 46.1261 138.785 45.141 138.226 44.1343C136.059 39.922 134.411 36.4394 134.614 36.3527C134.816 36.266 136.694 39.6113 138.877 43.8236L140.387 46.8004C140.7 47.2623 140.841 47.8201 140.784 48.3755C140.741 48.5255 140.665 48.6639 140.561 48.7803C140.457 48.8967 140.328 48.988 140.184 49.0475C139.966 49.133 139.738 49.1913 139.505 49.2209C138.64 49.4344 137.752 49.5387 136.861 49.5316V49.5316Z" fill="#263238"/>
<path d="M140.011 67.0167C134.614 67.8147 129.101 67.063 124.115 64.8491C124.115 64.8491 128.862 72.9703 140.278 70.5426L140.011 67.0167Z" fill="#EB996E"/>
<path d="M137.041 53.4261C136.653 52.92 136.156 52.5073 135.587 52.2185C135.018 51.9297 134.392 51.772 133.754 51.7571C133.385 51.7648 133.027 51.8843 132.728 52.0997C132.429 52.3152 132.202 52.6165 132.077 52.9637C131.953 53.4122 131.938 53.8843 132.035 54.3397C132.132 54.7951 132.337 55.2203 132.634 55.5792C132.925 55.959 133.321 56.2454 133.773 56.4033C134.225 56.5612 134.713 56.5837 135.177 56.4679C135.931 56.157 136.573 55.6256 137.02 54.9434C137.181 54.7697 137.298 54.5588 137.359 54.3293C137.386 54.1845 137.38 54.0356 137.342 53.8933C137.305 53.751 137.237 53.6186 137.142 53.5056" fill="#EB996E"/>
<path d="M132.301 51.1791C132.562 51.1285 132.764 52.8553 134.382 53.9102C136.001 54.9651 137.822 54.5605 137.865 54.7989C137.865 54.9073 137.496 55.1819 136.716 55.2975C135.707 55.4289 134.684 55.2013 133.826 54.6544C133.002 54.1249 132.417 53.2958 132.193 52.3423C132.041 51.5981 132.186 51.1791 132.301 51.1791Z" fill="#263238"/>
<path d="M130.315 32.6029C130.163 33.0364 128.559 32.8557 126.702 33.1159C124.845 33.376 123.313 33.9034 123.053 33.5205C122.938 33.3326 123.198 32.9208 123.776 32.4873C124.584 31.9537 125.503 31.6113 126.463 31.4861C127.423 31.3609 128.4 31.4562 129.317 31.7647C130.026 32.0899 130.38 32.3933 130.315 32.6029Z" fill="#263238"/>
<path d="M145.437 33.1158C145.126 33.5132 143.725 33.2965 142.084 33.4627C140.444 33.6288 139.086 34.0479 138.725 33.7011C138.559 33.5349 138.725 33.1447 139.31 32.7401C140.105 32.2303 141.012 31.9206 141.954 31.8376C142.895 31.7546 143.842 31.9006 144.714 32.2633C145.336 32.5739 145.567 32.9208 145.437 33.1158Z" fill="#263238"/>
<path d="M101.283 60.3766C101.572 55.1383 102.411 38.3685 105.792 29.2214C109.173 20.0742 113.935 15.9775 118.834 14.0483C120.684 13.2578 122.707 12.9582 124.707 13.1784C126.706 13.3987 128.616 14.1313 130.249 15.3055C132.764 17.0829 134.223 22.9354 134.223 22.9354C134.223 22.9354 122.338 27.0393 119.05 34.4958C115.243 43.0216 114.563 47.1689 114.563 47.1689L113.537 51.7136C113.537 51.7136 115.77 71.4674 116.774 75.5569L100.662 91.1345C101.19 85.9901 100.994 65.6077 101.283 60.3766Z" fill="#263238"/>
<path d="M134.577 22.9644C134.577 22.9644 141.463 21.4109 144.938 28.9902C146.513 32.4222 148.074 42.8121 148.074 42.8121C148.074 42.8121 148.659 34.3224 147.749 29.7055C146.839 25.0886 143.84 19.4529 139.895 16.5989C135.95 13.7449 132.959 12.6684 126.788 13.7522C128.646 14.2167 130.333 15.2018 131.651 16.5917C132.583 17.6827 133.046 18.6509 134.577 22.9644Z" fill="#263238"/>
<path d="M114.694 47.7324C114.274 45.1891 111.298 43.8019 109.231 45.3408C108.097 46.179 107.331 47.6963 107.75 50.3985C108.877 57.6238 115.864 54.9793 115.842 54.777C115.821 54.5747 115.185 50.702 114.694 47.7324Z" fill="#FFBE9D"/>
<path d="M113.22 52.3854C113.22 52.3854 113.111 52.4938 112.916 52.6239C112.635 52.7949 112.3 52.8542 111.977 52.7901C111.175 52.6311 110.351 51.5184 110.113 50.2323C109.997 49.6182 110.022 48.9859 110.185 48.3827C110.215 48.1467 110.302 47.9217 110.439 47.7276C110.577 47.5335 110.76 47.3763 110.973 47.27C111.111 47.2116 111.266 47.2027 111.411 47.2448C111.556 47.2869 111.681 47.3774 111.767 47.5012C111.897 47.689 111.868 47.8335 111.912 47.8408C111.955 47.848 112.049 47.6963 111.912 47.4072C111.844 47.2353 111.719 47.0923 111.558 47.0026C111.336 46.885 111.076 46.859 110.835 46.9304C110.548 47.0357 110.293 47.2123 110.093 47.4436C109.893 47.675 109.756 47.9534 109.694 48.2526C109.486 48.9215 109.447 49.6312 109.578 50.319C109.845 51.7641 110.799 53.0068 111.89 53.1441C112.091 53.1696 112.296 53.1498 112.488 53.086C112.681 53.0223 112.857 52.9162 113.003 52.7756C113.234 52.5589 113.248 52.3927 113.22 52.3854Z" fill="#EB996E"/>
<path d="M121.673 13.2536C121.673 13.3114 122.67 13.1669 124.26 13.1958C125.19 13.214 126.111 13.3774 126.991 13.6799C128.059 14.075 129.041 14.6737 129.881 15.4428C131.436 16.8326 132.648 18.5637 133.421 20.5005C134.014 21.9456 134.144 22.9716 134.231 22.9571C134.22 22.7255 134.186 22.4955 134.13 22.2707C133.554 19.5638 132.125 17.1126 130.054 15.2767C129.188 14.4739 128.168 13.8545 127.056 13.4559C126.153 13.1537 125.205 13.0047 124.253 13.0152C123.615 13.0149 122.978 13.0559 122.345 13.138C122.118 13.1579 121.894 13.1965 121.673 13.2536V13.2536Z" fill="#455A64"/>
<path d="M108.603 53.7223C108.605 53.6814 108.605 53.6404 108.603 53.5995L108.502 53.2743C108.451 53.1226 108.4 52.942 108.335 52.7397L108.14 52.0171C107.746 50.4376 107.581 48.8099 107.649 47.1834C107.741 44.7708 108.334 42.4037 109.39 40.2327C110.741 37.6043 112.667 35.3147 115.026 33.5349C116.236 32.6007 117.503 31.7416 118.819 30.9628C120.091 30.1969 121.37 29.5611 122.555 28.853C124.627 27.5888 126.598 26.166 128.45 24.5973C130.033 23.2606 131.254 22.1118 132.063 21.3026C132.475 20.898 132.786 20.5801 132.995 20.3561L133.234 20.1032C133.284 20.0454 133.313 20.0165 133.306 20.0093L133.219 20.0815L132.959 20.32L132.005 21.252C131.16 22.0396 129.924 23.1667 128.328 24.4745C126.469 26.0172 124.498 27.4203 122.432 28.6723C121.261 29.3949 119.968 29.9946 118.689 30.7677C117.36 31.5462 116.084 32.4103 114.867 33.3543C112.468 35.1512 110.511 37.4715 109.145 40.1388C108.085 42.3401 107.503 44.7411 107.439 47.1834C107.39 48.8235 107.582 50.462 108.01 52.046L108.227 52.7686C108.306 52.9709 108.371 53.1443 108.422 53.296L108.552 53.6211C108.581 53.6862 108.595 53.7223 108.603 53.7223Z" fill="#455A64"/>
<path d="M106.616 51.179C106.616 51.179 106.616 51.1357 106.616 51.0634L106.572 50.7166C106.572 50.4131 106.457 49.9941 106.399 49.3944C106.229 47.767 106.202 46.1277 106.319 44.4957C106.496 42.0786 106.982 39.694 107.765 37.4005C108.743 34.5992 110.17 31.9758 111.991 29.6333C113.867 27.3183 116.055 25.2756 118.494 23.5641C120.662 21.9457 122.829 20.674 124.556 19.5324C126.283 18.3908 127.721 17.5166 128.682 16.8519C129.166 16.5339 129.527 16.2666 129.773 16.086L130.054 15.8837L130.148 15.8042C130.148 15.8042 130.105 15.8042 130.04 15.862L129.744 16.0426L128.624 16.7652C127.656 17.3938 126.225 18.2825 124.455 19.3662C122.685 20.45 120.575 21.7506 118.35 23.369C115.906 25.0825 113.716 27.1331 111.847 29.4599C109.989 31.8248 108.537 34.4811 107.548 37.321C106.756 39.6369 106.27 42.0465 106.103 44.4884C106.002 46.1277 106.058 47.7728 106.269 49.4016C106.341 49.9796 106.442 50.4204 106.493 50.7238C106.493 50.8611 106.543 50.9767 106.565 51.0634C106.587 51.1501 106.609 51.179 106.616 51.179Z" fill="#455A64"/>
<path d="M145.191 79.0034C145.191 79.0034 154.505 82.7895 156.289 87.6376C158.074 92.4857 171.614 132.521 171.614 132.521L155.899 138.547L148.732 105.6L145.191 79.0034Z" fill="#455A64"/>
<path d="M97.0422 192.693C97.0422 192.693 193.138 188.278 199.171 189.867C205.204 191.457 208.81 194.499 210.009 201.731C211.208 208.964 229.734 304.785 229.734 304.785L212.885 309.742C212.885 309.742 189.244 255.769 188.239 246.737C187.235 237.706 183.904 219.195 183.904 219.195C183.904 219.195 147.373 219.794 120.474 219.195C93.5741 218.595 97.1867 193.697 97.1867 193.697L97.0422 192.693Z" fill="#FFBE9D"/>
<path d="M212.675 310.175L212.552 309.886C211.584 307.675 188.882 255.762 187.885 246.774C186.96 238.486 184.049 221.991 183.615 219.556C180.003 219.614 145.777 220.12 120.481 219.556C112.121 219.368 105.828 216.832 101.76 212.028C95.6044 204.752 96.7027 194.564 96.8399 193.704L96.616 192.353H97.0206C100.951 192.173 193.254 187.953 199.265 189.543C206.013 191.327 209.229 194.846 210.37 201.688C211.555 208.827 229.878 303.781 230.095 304.742L230.153 305.06L212.675 310.175ZM184.215 218.826L184.273 219.13C184.309 219.311 187.611 237.757 188.608 246.694C189.554 255.227 211.216 305.009 213.094 309.301L229.329 304.532C228.144 298.398 210.818 208.726 209.662 201.789C208.578 195.287 205.515 191.92 199.084 190.229C193.391 188.719 104.282 192.736 97.4686 193.047L97.5769 193.704V193.755C97.5769 193.863 96.1319 204.26 102.331 211.572C106.262 216.211 112.374 218.653 120.51 218.841C147.092 219.433 183.557 218.841 183.926 218.841L184.215 218.826Z" fill="#EB996E"/>
<path d="M103.53 140.866L105.951 155.837C105.951 155.837 95.4382 175.757 94.2533 192.88C93.6897 201.016 98.3572 217.678 98.3572 217.678C98.3572 217.678 135.379 221.745 155.35 221.225L176.657 220.293L180.414 187.006L156.499 183.553L156.86 138.193C156.86 138.193 161.195 126.249 161.528 122.716C162.293 115.26 161.976 107.716 154.526 98.0491L145.191 79.0033L142.077 77.5583L143.558 100.629L116.724 75.1306L103.133 80.0077L99.282 98.1792L103.53 140.866Z" fill="#455A64"/>
<g opacity="0.3">
<path d="M150.047 189.065C148.305 189.369 135.741 189.55 133.999 189.853C133.703 189.944 133.391 189.973 133.083 189.94C132.775 189.906 132.477 189.81 132.207 189.658C131.99 189.452 131.839 189.186 131.775 188.893C131.71 188.601 131.735 188.296 131.846 188.018C132.077 187.458 132.438 186.963 132.901 186.573C135.943 183.683 139.895 182.014 143.739 180.381C144.967 179.868 146.297 179.34 147.583 179.658C148.213 179.867 148.784 180.226 149.244 180.704C149.705 181.182 150.043 181.766 150.227 182.404C150.594 183.678 150.745 185.004 150.675 186.327" fill="black"/>
</g>
<g opacity="0.3">
<path d="M104.52 151.306C109.007 150.259 111.825 145.837 113.646 141.603C115.467 137.369 116.969 132.694 120.539 129.775C123.154 127.607 126.658 126.654 128.92 124.139C129.995 122.908 130.708 121.402 130.979 119.79C131.251 118.178 131.071 116.523 130.459 115.007C129.809 113.46 128.501 112.001 126.846 111.914C124.896 111.813 123.378 113.504 122.186 115.057C116.733 122.201 111.591 129.57 106.76 137.166C104.166 141.249 101.58 146.205 103.386 150.692" fill="black"/>
</g>
<path d="M104.549 82.3921C104.549 82.3921 96.9555 84.8053 94.2099 89.5668C91.4643 94.3282 86.9124 117.449 85.8142 123.677C84.7159 129.905 79.4054 155.533 85.8142 159.565C92.223 163.597 100.648 157.397 102.844 153.705C105.041 150.013 114.007 130.816 114.007 130.816L105.951 124.046C105.951 124.046 107.396 105.737 106.869 101.886C106.341 98.0348 104.549 82.3921 104.549 82.3921Z" fill="#FFBE9D"/>
<path d="M80.7349 129.927L98.3572 131.076L106.406 121.625L108.632 106.741L108.039 78.2664C108.039 78.2664 92.3097 82.103 88.9066 94.0608C86.385 102.897 80.7349 129.927 80.7349 129.927Z" fill="#455A64"/>
<path d="M111.919 96.2501C110.907 96.1128 109.614 97.305 110.474 100.181C111.196 102.579 112.555 104.913 112.454 106.25C112.352 107.586 111.832 110.368 111.832 111.813C111.769 113.226 111.632 114.635 111.42 116.033L99.4265 130.483L109.809 139.645L118.024 126.741C118.024 126.741 120.503 127.152 121.94 125.505L124.108 123.027C124.108 123.027 129.671 120.968 128.537 117.969C128.537 117.969 130.184 116.401 128.689 113.887C128.689 113.887 129.469 111.271 128.335 109.732C128.335 109.732 128.234 106.228 127.302 105.607C126.369 104.985 116.731 104.884 116.731 104.884C116.206 103.282 115.601 101.707 114.917 100.166C113.863 98.4249 113.328 96.4379 111.919 96.2501Z" fill="#FFBE9D"/>
<path d="M116.023 110.462C116.023 110.498 115.77 110.361 115.546 110.021C115.254 109.564 115.127 109.021 115.185 108.481C115.242 107.941 115.482 107.437 115.864 107.052C116.153 106.77 116.399 106.683 116.42 106.719C115.991 107.24 115.696 107.857 115.561 108.519C115.561 109.194 115.72 109.859 116.023 110.462V110.462Z" fill="#EB996E"/>
<path d="M127.93 109.472C126.477 109.896 124.982 110.16 123.472 110.26C121.975 110.477 120.458 110.528 118.949 110.411C120.434 110.153 121.932 109.977 123.436 109.884C124.925 109.661 126.426 109.523 127.93 109.472Z" fill="#EB996E"/>
<path d="M128.783 113.605C127.585 114.091 126.321 114.393 125.033 114.501C123.763 114.736 122.465 114.78 121.182 114.631C121.182 114.523 122.887 114.414 124.982 114.125C127.078 113.836 128.761 113.504 128.783 113.605Z" fill="#EB996E"/>
<path d="M128.573 117.846C126.704 118.419 124.738 118.614 122.793 118.417C123.744 118.209 124.711 118.086 125.683 118.049C126.639 117.897 127.606 117.83 128.573 117.846V117.846Z" fill="#EB996E"/>
<path d="M119.469 119.147C119.469 119.19 119.267 119.147 119.021 119.009C118.698 118.789 118.47 118.453 118.386 118.07C118.293 117.692 118.345 117.293 118.53 116.95C118.675 116.697 118.834 116.596 118.87 116.625C118.906 116.654 118.574 117.254 118.747 117.983C118.92 118.713 119.52 119.053 119.469 119.147Z" fill="#EB996E"/>
<path d="M117.1 115.708C117.1 115.744 116.861 115.621 116.637 115.31C116.35 114.9 116.184 114.416 116.16 113.916C116.131 113.414 116.241 112.914 116.478 112.471C116.673 112.138 116.861 111.994 116.897 112.023C116.676 112.62 116.554 113.25 116.536 113.887C116.628 114.519 116.818 115.134 117.1 115.708Z" fill="#EB996E"/>
<path d="M125.611 122.405C125.087 122.683 124.511 122.85 123.92 122.897C123.348 123.061 122.747 123.103 122.157 123.02C122.68 122.739 123.256 122.571 123.848 122.528C124.419 122.359 125.021 122.317 125.611 122.405V122.405Z" fill="#EB996E"/>
<path d="M120.965 104.949C120.965 105.058 119.52 105.058 117.692 105.238C115.864 105.419 114.455 105.701 114.426 105.599C115.45 105.166 116.544 104.921 117.656 104.877C118.754 104.705 119.875 104.729 120.965 104.949Z" fill="#EB996E"/>
<path d="M152.691 139.681H212.415C213.469 139.681 214.48 140.1 215.225 140.845C215.97 141.59 216.389 142.601 216.389 143.655V185.988H148.732V143.648C148.733 142.597 149.151 141.591 149.893 140.847C150.635 140.104 151.641 139.685 152.691 139.681V139.681Z" fill="#E0E0E0"/>
<path d="M216.389 189.066H136.911C136.911 188.257 137.232 187.481 137.804 186.91C138.376 186.338 139.151 186.017 139.96 186.017H216.389V189.066Z" fill="#E0E0E0"/>
<path d="M213.889 142.658H150.784V186.016H213.889V142.658Z" fill="white"/>
<path d="M213.882 185.988C213.882 185.988 213.882 185.713 213.882 185.193C213.882 184.673 213.882 183.892 213.882 182.895C213.882 180.879 213.882 177.931 213.838 174.16C213.838 166.617 213.795 155.8 213.759 142.629L213.911 142.781H150.812L151 142.593C151 158.076 151 172.78 151 185.944L150.834 185.771L196.288 185.858L209.294 185.908H212.754H213.643H213.954H213.665H212.791H209.366L196.425 185.951L150.856 186.038H150.682V185.988C150.682 172.816 150.682 158.113 150.682 142.636V142.448H150.87H213.968H214.12V142.636C214.12 155.844 214.062 166.696 214.041 174.261C214.041 178.018 214.041 180.952 214.041 182.931C214.041 183.921 214.041 184.68 214.041 185.2C214.041 185.72 213.882 185.988 213.882 185.988Z" fill="#263238"/>
<path d="M216.056 185.988C216.056 186.096 198.998 186.176 177.958 186.176C156.918 186.176 139.852 186.096 139.852 185.988C139.852 185.879 156.911 185.8 177.958 185.8C199.005 185.8 216.056 185.915 216.056 185.988Z" fill="#263238"/>
<path d="M182.329 180.923C191.487 180.923 198.911 173.499 198.911 164.341C198.911 155.183 191.487 147.759 182.329 147.759C173.171 147.759 165.747 155.183 165.747 164.341C165.747 173.499 173.171 180.923 182.329 180.923Z" fill="#FF725E"/>
<path d="M172.026 164.745L175.537 161.422L180.385 165.887L189.93 156.906L193.398 160.186L180.335 172.585L172.026 164.745Z" fill="white"/>
<path d="M111.435 116.033C111.515 116.098 106.536 122.109 100.315 129.45C94.0944 136.791 88.9862 142.687 88.9067 142.636C88.8272 142.586 93.8054 136.567 100.026 129.219C106.247 121.871 111.356 115.968 111.435 116.033Z" fill="#EB996E"/>
<path d="M110.575 106.719C110.413 108.816 110.126 110.9 109.715 112.962C109.431 115.047 109.021 117.112 108.487 119.147C108.649 117.048 108.936 114.961 109.347 112.897C109.636 110.816 110.046 108.753 110.575 106.719V106.719Z" fill="#263238"/>
<path d="M156.86 138.193C156.886 138.045 156.924 137.9 156.976 137.759L157.366 136.545C157.713 135.498 158.226 133.98 158.811 132.094C159.51 129.891 160.093 127.653 160.559 125.389C161.141 122.625 161.401 119.803 161.332 116.979C161.071 111.838 159.627 106.826 157.113 102.334C156.366 100.966 155.546 99.6392 154.656 98.3598C154.353 97.9046 154.093 97.565 153.934 97.3265C153.841 97.2078 153.761 97.0794 153.695 96.9436C153.806 97.0435 153.905 97.1549 153.992 97.276C154.179 97.5072 154.461 97.8323 154.786 98.2803C155.725 99.5326 156.585 100.843 157.359 102.204C158.509 104.229 159.455 106.364 160.184 108.576C161.09 111.286 161.613 114.11 161.737 116.965C161.81 119.819 161.538 122.672 160.928 125.462C160.441 127.731 159.829 129.972 159.093 132.174C158.471 134.052 157.922 135.563 157.532 136.596C157.344 137.077 157.192 137.475 157.077 137.788C157.021 137.931 156.948 138.067 156.86 138.193V138.193Z" fill="#263238"/>
<path d="M141.506 115.693C141.536 116.03 141.536 116.368 141.506 116.705C141.505 117.101 141.476 117.497 141.42 117.89C141.368 118.414 141.288 118.935 141.181 119.45C141.066 120.076 140.911 120.694 140.719 121.3C140.515 122.004 140.274 122.696 139.996 123.374C139.329 124.903 138.501 126.356 137.525 127.709C136.525 129.059 135.379 130.295 134.108 131.394C133.551 131.87 132.967 132.313 132.359 132.723C131.839 133.092 131.296 133.428 130.734 133.727C130.267 133.997 129.784 134.238 129.289 134.45C128.933 134.623 128.566 134.77 128.19 134.891C127.878 135.019 127.553 135.119 127.222 135.187C127.186 135.107 128.573 134.681 130.567 133.518C131.113 133.204 131.641 132.862 132.15 132.492C132.713 132.116 133.255 131.639 133.848 131.155C136.337 128.965 138.311 126.251 139.628 123.207C139.903 122.546 140.145 121.871 140.35 121.184C140.55 120.587 140.717 119.979 140.849 119.364C141.449 117.138 141.434 115.693 141.506 115.693Z" fill="#263238"/>
<path d="M161.369 122.261C161.327 122.221 161.293 122.175 161.267 122.124L161.015 121.683C160.776 121.286 160.451 120.744 160.039 120.072C159.627 119.4 158.984 118.576 158.312 117.637C157.64 116.698 156.788 115.672 155.885 114.523C152.171 109.985 146.687 104.024 140.401 97.659C134.115 91.2936 128.212 85.7446 123.884 81.7635L120.936 79.1262C120.069 78.3604 119.318 77.6812 118.689 77.161L117.244 75.9399L116.876 75.6148C116.828 75.581 116.786 75.5395 116.753 75.4919C116.804 75.5174 116.853 75.5489 116.897 75.5859C117.006 75.6653 117.136 75.7593 117.287 75.8821L118.776 77.0454L121.066 78.9673C121.955 79.7332 122.952 80.6074 124.05 81.5684C128.436 85.47 134.353 91.0118 140.668 97.37C146.983 103.728 152.424 109.74 156.087 114.328C156.983 115.491 157.792 116.539 158.486 117.478L160.162 119.963C160.545 120.686 160.884 121.206 161.08 121.618L161.311 122.051C161.359 122.191 161.378 122.261 161.369 122.261Z" fill="#263238"/>
<path d="M147.337 155.685C147.204 155.731 147.066 155.758 146.925 155.764L145.748 155.93C144.722 156.068 143.226 156.227 141.412 156.393C137.72 156.725 132.598 156.993 126.962 156.928C121.326 156.863 116.182 156.451 112.511 156.032C110.669 155.822 109.181 155.62 108.176 155.454L106.999 155.266C106.86 155.251 106.725 155.219 106.594 155.172C106.733 155.154 106.874 155.154 107.013 155.172L108.198 155.295C109.224 155.417 110.72 155.576 112.533 155.75C116.211 156.104 121.319 156.472 126.984 156.537C132.648 156.602 137.742 156.371 141.434 156.111C143.277 155.981 144.772 155.865 145.769 155.772L146.954 155.678C147.082 155.667 147.21 155.669 147.337 155.685V155.685Z" fill="#263238"/>
<path d="M178.63 139.63C178.63 139.63 190.465 135.013 191.585 134.645C192.705 134.277 203.051 133.467 203.051 133.467L216.389 138.258C216.389 138.258 216.512 140.996 213.398 140.628C210.652 140.164 207.945 139.497 205.298 138.633L203.427 139.746L178.63 139.63Z" fill="#FFBE9D"/>
<path d="M215.746 141.386C216.057 142.015 216.866 142.109 217.487 142.441C218.062 142.777 218.533 143.265 218.848 143.851C219.163 144.438 219.309 145.1 219.272 145.765C219.168 147.093 218.728 148.374 217.993 149.486C217.767 149.935 217.441 150.325 217.039 150.627C216.833 150.77 216.589 150.847 216.338 150.847C216.088 150.847 215.843 150.77 215.638 150.627C215.44 150.387 215.307 150.1 215.252 149.794C215.196 149.488 215.219 149.173 215.32 148.879C215.703 146.574 215.204 143.655 215.746 141.379" fill="#FFBE9D"/>
<path d="M229.156 301.208L229.56 302.336C229.56 302.336 251.525 303.195 253.028 306.765L214.821 320.189L210.869 307.292C217.48 307.928 223.527 306.136 229.156 301.208Z" fill="#455A64"/>
<g opacity="0.6">
<path d="M216.172 309.995C215.843 310.237 215.615 310.592 215.531 310.992C215.447 311.391 215.513 311.808 215.717 312.162C215.947 312.506 216.302 312.747 216.706 312.835C217.11 312.922 217.533 312.85 217.885 312.632C218.233 312.376 218.474 312.001 218.561 311.577C218.648 311.154 218.574 310.713 218.354 310.341C218.079 310.016 217.688 309.81 217.264 309.765C216.84 309.721 216.415 309.842 216.078 310.103" fill="white"/>
</g>
<g opacity="0.6">
<path d="M214.821 320.189L213.874 317.09L250.839 305.356C250.839 305.356 252.797 305.5 253.006 306.801L214.821 320.189Z" fill="white"/>
</g>
<path d="M229.734 302.401C229.792 302.589 228.889 303.001 228.181 303.925C227.473 304.85 227.263 305.804 227.068 305.79C226.873 305.775 226.764 304.597 227.639 303.499C228.513 302.401 229.712 302.213 229.734 302.401Z" fill="#263238"/>
<path d="M234.322 302.646C234.43 302.813 233.729 303.412 233.375 304.424C233.021 305.435 233.13 306.339 232.942 306.396C232.754 306.454 232.263 305.435 232.732 304.185C233.202 302.935 234.257 302.473 234.322 302.646Z" fill="#263238"/>
<path d="M238.281 306.649C238.13 306.75 237.559 305.927 237.66 304.72C237.761 303.513 238.513 302.82 238.643 302.943C238.773 303.066 238.433 303.81 238.346 304.785C238.26 305.761 238.462 306.563 238.281 306.649Z" fill="#263238"/>
</svg>
