<svg width="15" height="10" viewBox="0 0 15 10" fill="none" xmlns="http://www.w3.org/2000/svg">
    <rect width="15" height="10" fill="#363636" />
    <g id="intro with mobile" clip-path="url(#clip0_0_1)">
        <rect width="428" height="926" transform="translate(-134 -602)" fill="#FCFCFC" />
        <g id="id cards">
            <path id="sigin options" d="M-134 -133C-134 -149.569 -120.569 -163 -104 -163H264C280.569 -163 294 -149.569 294 -133V324H-134V-133Z"
                fill="#DE1F27" fill-opacity="0.9" />
            <g id="mobile number">
                <g id="Rectangle 4" filter="url(#filter0_d_0_1)">
                    <rect x="-101" y="-22" width="362" height="50" rx="12" fill="white" />
                </g>
                <g id="Dropdown">
                    <path id="Vector"
                        d="M5.22149 7.38926L0.258056 1.71588C-0.327703 1.04836 0.148355 3.80542e-07 1.03734 3.80542e-07H10.9642C11.1632 -0.000170201 11.3579 0.057011 11.5252 0.164697C11.6925 0.272382 11.8252 0.426007 11.9075 0.607175C11.9897 0.788342 12.018 0.989372 11.9889 1.18619C11.9598 1.38301 11.8746 1.56727 11.7435 1.71692L6.78006 7.38822C6.68292 7.49938 6.56313 7.58847 6.42872 7.64952C6.29431 7.71056 6.14839 7.74214 6.00077 7.74214C5.85315 7.74214 5.70724 7.71056 5.57283 7.64952C5.43842 7.58847 5.31862 7.49938 5.22149 7.38822V7.38926Z"
                        fill="black" />
                </g>
            </g>
        </g>
    </g>
</svg>
