<svg width="45" height="45" viewBox="0 0 45 45" fill="none" xmlns="http://www.w3.org/2000/svg">
<circle cx="22.5" cy="22.5" r="22.5" fill="#3589C7"/>
<path d="M30.3125 13.125H27.9688V12.3438C27.9688 12.1365 27.8864 11.9378 27.7399 11.7913C27.5934 11.6448 27.3947 11.5625 27.1875 11.5625C26.9803 11.5625 26.7816 11.6448 26.6351 11.7913C26.4886 11.9378 26.4062 12.1365 26.4062 12.3438V13.125H18.5938V12.3438C18.5938 12.1365 18.5114 11.9378 18.3649 11.7913C18.2184 11.6448 18.0197 11.5625 17.8125 11.5625C17.6053 11.5625 17.4066 11.6448 17.2601 11.7913C17.1136 11.9378 17.0312 12.1365 17.0312 12.3438V13.125H14.6875C14.2731 13.125 13.8757 13.2896 13.5826 13.5826C13.2896 13.8757 13.125 14.2731 13.125 14.6875V30.3125C13.125 30.7269 13.2896 31.1243 13.5826 31.4174C13.8757 31.7104 14.2731 31.875 14.6875 31.875H30.3125C30.7269 31.875 31.1243 31.7104 31.4174 31.4174C31.7104 31.1243 31.875 30.7269 31.875 30.3125V14.6875C31.875 14.2731 31.7104 13.8757 31.4174 13.5826C31.1243 13.2896 30.7269 13.125 30.3125 13.125ZM17.0312 14.6875V15.4688C17.0312 15.676 17.1136 15.8747 17.2601 16.0212C17.4066 16.1677 17.6053 16.25 17.8125 16.25C18.0197 16.25 18.2184 16.1677 18.3649 16.0212C18.5114 15.8747 18.5938 15.676 18.5938 15.4688V14.6875H26.4062V15.4688C26.4062 15.676 26.4886 15.8747 26.6351 16.0212C26.7816 16.1677 26.9803 16.25 27.1875 16.25C27.3947 16.25 27.5934 16.1677 27.7399 16.0212C27.8864 15.8747 27.9688 15.676 27.9688 15.4688V14.6875H30.3125V17.8125H14.6875V14.6875H17.0312ZM30.3125 30.3125H14.6875V19.375H30.3125V30.3125Z" fill="white"/>
<path d="M20.7912 25.4957L20.8267 25.2885L20.6762 25.1418L19.1927 23.6949L21.243 23.3969L21.451 23.3667L21.5441 23.1782L22.4615 21.3202L23.3789 23.1782L23.472 23.3667L23.68 23.3969L25.7301 23.6949L24.2458 25.1417L24.0952 25.2885L24.1308 25.4958L24.4812 27.5366L22.6476 26.573L22.4615 26.4752L22.2754 26.573L20.4415 27.5368L20.7912 25.4957Z" fill="white" stroke="white" stroke-width="0.8"/>
</svg>
