<svg width="25" height="25" viewBox="0 0 25 25" fill="none" xmlns="http://www.w3.org/2000/svg">
<g id="fluent:call-16-regular">
<path id="Vector" d="M5.80318 8.21562C5.50474 6.25 6.89068 4.48437 9.00787 3.8375C9.38358 3.72263 9.78895 3.75533 10.1414 3.92894C10.4938 4.10254 10.7668 4.404 10.9047 4.77187L11.5844 6.58437C11.6938 6.87596 11.7136 7.19359 11.6412 7.49649C11.5689 7.7994 11.4076 8.07377 11.1782 8.28437L9.1563 10.1359C9.05664 10.2274 8.98238 10.3431 8.94076 10.4718C8.89913 10.6005 8.89157 10.7378 8.9188 10.8703L8.93755 10.9516L8.98599 11.1547C9.23744 12.1416 9.62057 13.0903 10.1251 13.975C10.6746 14.9152 11.3566 15.7713 12.1501 16.5172L12.2126 16.5734C12.3135 16.663 12.4359 16.7249 12.5679 16.7532C12.6999 16.7814 12.8369 16.7749 12.9657 16.7344L15.5797 15.9109C15.8768 15.8177 16.195 15.8153 16.4934 15.9041C16.7919 15.9929 17.057 16.1689 17.2547 16.4094L18.4922 17.9109C19.0079 18.5359 18.9454 19.4547 18.3532 20.0062C16.7329 21.5172 14.5047 21.8266 12.9547 20.5812C11.0548 19.0487 9.45311 17.1795 8.22974 15.0672C6.99645 12.9565 6.17265 10.6319 5.80162 8.21562H5.80318ZM10.5579 10.9734L12.2329 9.43594C12.692 9.0149 13.0148 8.46625 13.1598 7.86043C13.3049 7.2546 13.2656 6.61925 13.0469 6.03594L12.3688 4.22344C12.0912 3.4832 11.5418 2.87666 10.8326 2.5274C10.1233 2.17815 9.30761 2.11247 8.55162 2.34375C5.92193 3.14844 3.81099 5.50625 4.25787 8.45156C4.57037 10.5078 5.29068 13.1234 6.87974 15.8547C8.1996 18.1323 9.92733 20.1477 11.9766 21.8C14.3016 23.6672 17.4047 23.0297 19.4204 21.1516C19.9971 20.6146 20.3472 19.8777 20.3992 19.0914C20.4511 18.3051 20.2011 17.5286 19.7001 16.9203L18.4626 15.4172C18.0667 14.9367 17.5363 14.5854 16.9394 14.4083C16.3426 14.2313 15.7064 14.2365 15.1126 14.4234L12.9422 15.1062C12.3819 14.5285 11.891 13.8871 11.4797 13.1953C11.0824 12.4959 10.7728 11.7502 10.5579 10.975V10.9734Z" fill="#C6C6C6"/>
</g>
</svg>
