<svg width="45" height="45" viewBox="0 0 45 45" fill="none" xmlns="http://www.w3.org/2000/svg">
<path d="M2.8125 13.3594C2.8125 10.6425 5.0175 8.4375 7.73438 8.4375H37.2656C39.9825 8.4375 42.1875 10.6425 42.1875 13.3594V19.5103C41.6801 19.1504 41.1205 18.8706 40.5281 18.6806L39.375 18.315V13.3594C39.375 12.7999 39.1528 12.2634 38.7572 11.8678C38.3616 11.4722 37.8251 11.25 37.2656 11.25H7.73438C7.17493 11.25 6.63841 11.4722 6.24282 11.8678C5.84724 12.2634 5.625 12.7999 5.625 13.3594V31.6406C5.625 32.805 6.57 33.75 7.73438 33.75H14.0625V30.9375C14.0625 30.1916 14.3588 29.4762 14.8863 28.9488C15.4137 28.4213 16.1291 28.125 16.875 28.125H28.125C28.8709 28.125 29.5863 28.4213 30.1137 28.9488C30.6412 29.4762 30.9375 30.1916 30.9375 30.9375V31.5141C30.1011 31.4993 29.2744 31.6941 28.5326 32.0807C27.7908 32.4673 27.1576 33.0335 26.6906 33.7275L25.3378 35.7131L25.1353 36.0506L25.0987 36.1125C25.0203 36.259 24.949 36.4092 24.885 36.5625H7.73438C6.42901 36.5625 5.17711 36.0439 4.25408 35.1209C3.33105 34.1979 2.8125 32.946 2.8125 31.6406V13.3594ZM41.9625 23.9203C42.1087 24.5672 42.1847 25.2478 42.1875 25.9594V26.0381C42.1791 28.4963 41.3016 31.3284 39.555 34.5319C39.1894 35.2069 38.8181 35.8369 38.4384 36.4219C36.4781 39.4622 34.3659 41.3353 32.0991 42.0441C31.5829 42.2036 31.0348 42.23 30.5057 42.1209C29.9766 42.0117 29.4837 41.7705 29.0728 41.4197L28.8478 41.2144L27.9788 40.3425C27.6122 39.9653 27.3753 39.4812 27.3025 38.9603C27.2297 38.4394 27.3247 37.9089 27.5737 37.4456L27.7031 37.2375L29.0166 35.3081C29.2332 34.9848 29.5315 34.7245 29.8812 34.5536C30.2309 34.3827 30.6196 34.3073 31.0078 34.335C31.0922 34.3406 31.1794 34.3547 31.2666 34.3716L31.4972 34.4363L33.9188 35.2434C34.8862 34.5122 35.6906 33.5897 36.3375 32.4816C36.8689 31.5892 37.2365 30.6091 37.4231 29.5875L37.4934 29.0981L35.4769 27.1856C35.1504 26.8688 34.9182 26.4676 34.806 26.0267C34.6938 25.5858 34.706 25.1225 34.8412 24.6881L34.9256 24.4491L35.8425 22.2919C36.0312 21.8139 36.381 21.4169 36.8314 21.1693C37.2817 20.9218 37.8044 20.8394 38.3091 20.9362L38.5256 20.9925L39.6703 21.3581C40.8094 21.7237 41.6784 22.6969 41.9597 23.9175L41.9625 23.9203ZM28.125 19.6875C28.125 21.1793 27.5324 22.6101 26.4775 23.665C25.4226 24.7199 23.9918 25.3125 22.5 25.3125C21.0082 25.3125 19.5774 24.7199 18.5225 23.665C17.4676 22.6101 16.875 21.1793 16.875 19.6875C16.875 18.1957 17.4676 16.7649 18.5225 15.71C19.5774 14.6551 21.0082 14.0625 22.5 14.0625C23.9918 14.0625 25.4226 14.6551 26.4775 15.71C27.5324 16.7649 28.125 18.1957 28.125 19.6875Z" fill="#157B11"/>
</svg>
