<svg width="7" height="15" viewBox="0 0 7 15" fill="none" xmlns="http://www.w3.org/2000/svg">
<path d="M4.64 0.819999C4.90667 0.753333 5.16 0.773333 5.4 0.88C5.76 1.05333 5.92 1.36 5.88 1.8C5.86667 1.86667 5.85333 1.92667 5.84 1.98C5.69333 2.48667 5.36 2.82667 4.84 3C4.81333 3 4.78667 3.00667 4.76 3.02C4.37333 3.12667 4.04667 3.04667 3.78 2.78C3.47333 2.46 3.44 2.07333 3.68 1.62C3.86667 1.19333 4.18667 0.926666 4.64 0.819999ZM2.86 5.2C3.04667 5.16 3.28667 5.15333 3.58 5.18C4.35333 5.32667 4.84 5.74667 5.04 6.44C5.10667 6.72 5.10667 7.01333 5.04 7.32L4.14 9.76C3.54 11.3333 3.23333 12.1533 3.22 12.22C3.06 12.74 3.05333 13.0733 3.2 13.22C3.24 13.2467 3.31333 13.26 3.42 13.26C3.56667 13.26 3.66 13.2533 3.7 13.24C4.27333 13.04 4.71333 12.4467 5.02 11.46C5.04667 11.4067 5.06667 11.3467 5.08 11.28C5.14667 11.08 5.21333 10.9733 5.28 10.96C5.32 10.9467 5.44 10.94 5.64 10.94C5.89333 10.94 6.03333 10.9533 6.06 10.98C6.12667 11.0333 6.14 11.1467 6.1 11.32C5.84667 12.2 5.44667 12.9133 4.9 13.46C4.52667 13.8067 4.14667 14.04 3.76 14.16C3.62667 14.1867 3.44667 14.2 3.22 14.2C2.98 14.2 2.80667 14.1867 2.7 14.16C2.27333 14.0533 1.95333 13.86 1.74 13.58C1.58 13.3933 1.47333 13.18 1.42 12.94C1.35333 12.6467 1.35333 12.3467 1.42 12.04L2.34 9.58C2.95333 7.94 3.28 7.04 3.32 6.88C3.37333 6.65333 3.37333 6.45333 3.32 6.28C3.25333 6.12 3.10667 6.06667 2.88 6.12C2.48 6.2 2.12 6.50667 1.8 7.04C1.6 7.37333 1.44 7.78 1.32 8.26C1.28 8.34 1.25333 8.38667 1.24 8.4C1.21333 8.42667 1.07333 8.44 0.82 8.44H0.44L0.38 8.38C0.313333 8.32667 0.32 8.18667 0.4 7.96C0.733333 6.84 1.27333 6.03333 2.02 5.54C2.08667 5.5 2.16 5.46 2.24 5.42C2.48 5.28667 2.68667 5.21333 2.86 5.2Z" fill="black"/>
</svg>
