<svg width="45" height="45" viewBox="0 0 45 45" fill="none" xmlns="http://www.w3.org/2000/svg">
<circle cx="22.5" cy="22.5" r="22.5" fill="#5136F7" fill-opacity="0.8"/>
<path d="M13.125 14.6875V16.25H30.3125V28.75H19.375V30.3125H33.4375V28.75H31.875V14.6875H13.125ZM16.2516 17.0312C15.4235 17.0341 14.6302 17.3642 14.0445 17.9496C13.4588 18.535 13.1283 19.3282 13.125 20.1562C13.125 21.8742 14.5344 23.2812 16.2516 23.2812C17.0792 23.278 17.872 22.9476 18.4571 22.3622C19.0422 21.7768 19.3721 20.9839 19.375 20.1562C19.375 18.4398 17.9672 17.0312 16.2516 17.0312ZM20.9375 17.8125V19.375H24.8438V17.8125H20.9375ZM26.4062 17.8125V19.375H28.75V17.8125H26.4062ZM16.2516 18.5938C17.1219 18.5938 17.8125 19.2836 17.8125 20.1562C17.8125 21.0312 17.1227 21.7188 16.2516 21.7188C15.3766 21.7188 14.6875 21.0312 14.6875 20.1562C14.6875 19.2836 15.3773 18.5938 16.2516 18.5938ZM20.9375 20.9375V22.5H28.75V20.9375H20.9375ZM13.125 24.0625V30.3125H14.6875V25.625H17.0312V30.3125H18.5938V26.1391L20.2063 26.9922C20.6633 27.2344 21.2125 27.2336 21.6687 26.9922V26.9938L24.4266 25.5352L23.6977 24.1523L20.9391 25.6109L18.5203 24.3344C18.1827 24.156 17.8068 24.0627 17.425 24.0625H13.125Z" fill="white"/>
</svg>
