<svg width="71" height="71" viewBox="0 0 71 71" fill="none" xmlns="http://www.w3.org/2000/svg">
<path d="M51.249 19.4902C48.7822 19.4902 46.7969 21.9738 46.7969 25.0551C46.7969 28.1438 48.7822 30.6275 51.249 30.6275C53.701 30.6275 55.6863 28.1438 55.6863 25.0551C55.6863 21.9738 53.701 19.4902 51.249 19.4902ZM19.7528 19.4902C17.3027 19.4902 15.3137 21.9719 15.3137 25.0551C15.3137 28.1438 17.3027 30.6275 19.7528 30.6275C22.2178 30.6275 24.2031 28.1438 24.2031 25.0551C24.2031 21.9719 22.2178 19.4902 19.7528 19.4902Z" fill="black"/>
<path d="M71 15.1384C69.3315 15.0638 68.2842 14.3976 67.4251 13.374C67.2559 9.91397 66.0276 6.57578 64.2432 5.1262C63.2409 4.31207 61.828 3.90027 60.0435 3.90027C59.9003 3.90027 59.7524 3.91092 59.6069 3.91565C54.5836 1.22475 49.3355 3.79968 49.3355 3.79968C49.6787 1.96197 48.8149 0.977433 49.4645 0C39.7245 0 35.5047 4.0967 35.5 4.10025C35.4976 4.0967 31.2779 0 21.5378 0C22.1875 0.977433 21.3225 1.96197 21.6668 3.79968C21.6668 3.79968 16.4187 1.22357 11.3955 3.91565C11.2499 3.91092 11.1008 3.90027 10.9565 3.90027C9.1732 3.90027 7.7603 4.31325 6.75802 5.1262C4.97237 6.57578 3.74407 9.91397 3.57485 13.374C2.71693 14.3976 1.6685 15.0638 0 15.1384C0 15.1384 0.146733 19.6694 4.72268 22.6916C4.72268 22.6916 -0.0769167 27.2675 0.728933 36.991C0.728933 36.991 2.66487 34.6291 7.1923 33.7392C1.8602 38.2122 4.97 44.8329 1.0224 49.4042C1.0224 49.4042 6.4539 50.597 8.65608 49.0054C7.79343 56.0143 12.0558 58.7478 12.0558 62.1782C16.8921 60.5878 17.5689 55.8155 17.5689 55.8155C17.5689 64.6526 20.6267 64.339 20.6267 69.0368C20.6267 69.0368 25.9907 68.1919 28.1941 63.7686C29.0698 67.9399 33.2233 68.3907 35.5 71H35.5024C37.7791 68.3907 41.9326 67.9399 42.8083 63.7686C45.0104 68.1919 50.3757 69.0368 50.3757 69.0368C50.3757 64.339 53.4334 64.6526 53.4334 55.8155C53.4334 55.8155 54.1103 60.5878 58.9454 62.1782C58.9454 58.7489 63.2077 56.0143 62.3451 49.0054C64.5473 50.597 69.9788 49.4042 69.9788 49.4042C66.0312 44.8329 69.1422 38.2122 63.8101 33.7392C68.3375 34.6291 70.2722 36.991 70.2722 36.991C71.0793 27.2675 66.2785 22.6916 66.2785 22.6916C70.8544 19.6694 71 15.1384 71 15.1384ZM10.069 11.0168C8.46912 12.3197 7.5189 17.7902 10.8086 20.1462C10.4097 20.8659 10.0336 21.598 9.68085 22.3413C7.09763 20.5805 6.24682 17.808 6.00423 15.6756C5.5735 11.9043 6.81837 8.12713 8.25138 6.96392C8.81228 6.50833 9.7483 6.26693 10.9577 6.26693C14.1633 6.26693 18.2801 7.92833 20.7829 10.0974C19.5049 10.6914 18.2979 11.4641 17.15 12.3777C14.9573 10.7305 11.444 9.90213 10.069 11.0168ZM40.0499 60.4731C40.16 58.9466 39.7411 57.6946 39.7411 57.6946C39.3671 59.9642 38.3542 61.5866 38.3542 61.5866C38.398 59.64 37.4063 58.8057 37.4063 58.8057C36.4822 61.4446 35.5154 62.4693 35.5154 62.4693C35.5154 62.4693 34.551 61.4458 33.6256 58.8057C33.6256 58.8057 32.6351 59.64 32.6789 61.5866C32.6789 61.5866 31.666 59.9642 31.2921 57.6946C31.2921 57.6946 30.8732 58.9466 30.982 60.4731C30.982 60.4731 23.2998 55.5066 22.0952 48.7948C24.5613 51.5649 29.9774 56.0509 35.5024 50.242C41.0498 56.0734 46.4872 51.5294 48.9391 48.7628C47.757 55.4912 40.0499 60.4731 40.0499 60.4731ZM33.5215 38.7352C32.9251 37.9306 32.3085 37.0999 31.6021 36.5792C31.2364 36.3082 30.9217 36.0822 30.6436 35.8881C31.75 35.429 34.0043 34.6421 35.5142 34.6421C37.0218 34.6421 39.3861 35.3355 40.5836 35.7343C40.2558 35.9603 39.8712 36.2325 39.4026 36.5792C38.695 37.101 38.0856 37.9353 37.4963 38.7423C36.8324 39.6488 36.0822 40.6759 35.5201 40.6759H35.5177C34.9568 40.6723 34.1936 39.6428 33.5215 38.7352ZM49.6953 47.2446L49.6704 47.3239L49.6243 47.3937C49.5994 47.4315 49.4349 47.6682 49.1604 48.0031C46.8624 49.6669 41.4072 52.579 36.6833 48.1688V41.2238L41.2037 39.3127C41.8924 38.9956 42.4568 38.1341 42.4568 37.4028L42.4521 35.358C42.4521 35.358 40.0144 33.4599 35.5154 33.4599C31.0163 33.4599 28.5645 35.358 28.5645 35.358L28.5526 37.4016C28.5526 38.1329 29.1183 38.9956 29.8058 39.3115L34.3167 41.219V48.1759C29.6318 52.5412 24.2323 49.7106 21.9059 48.0421C21.7316 47.833 21.5662 47.6167 21.41 47.3937L21.3639 47.3239L21.3391 47.2446C21.1225 46.5701 20.8681 45.2305 21.0633 43.9194C21.255 42.6461 21.8656 41.4522 22.1851 40.8818C22.5957 40.1481 28.5515 35.3686 28.5657 35.358C30.4909 31.9654 30.7264 31.6329 32.3855 30.9075C33.0848 30.6034 34.2954 30.4507 35.5071 30.4507C36.7188 30.4507 37.927 30.6034 38.6275 30.9075C40.2854 31.6317 40.528 31.9642 42.4544 35.3568C42.4544 35.3568 48.4409 40.1469 48.8515 40.8818C49.171 41.4522 49.7828 42.6485 49.9722 43.9194C50.1674 45.2305 49.9118 46.5689 49.6953 47.2446ZM55.5362 31.5382C54.9895 34.1084 51.3389 36.6904 49.9213 40.3966C49.9071 40.3694 49.8964 40.3292 49.8834 40.3031C49.5391 39.689 47.344 37.7507 43.3526 34.5403C41.5007 31.285 41.0889 30.6921 39.0985 29.8235C37.9459 29.3206 36.2005 29.2674 35.5047 29.2674C34.8066 29.2674 33.0623 29.3206 31.9109 29.8224C29.9123 30.6957 29.5052 31.2885 27.6367 34.577C23.6749 37.7661 21.4941 39.6926 21.1521 40.3043C21.1367 40.3304 21.1272 40.373 21.113 40.4014C19.6883 36.694 16.0117 34.1108 15.4673 31.5394C14.9112 28.9195 17.3027 22.9531 19.5546 21.6929C19.9581 21.4692 21.3828 21.6929 21.3828 21.6929C21.8041 21.1296 24.0868 14.5443 30.0425 13.458C33.5783 12.8119 35.5154 15.8342 35.5154 15.8342C35.5154 15.8342 37.4265 12.8119 40.9634 13.458C46.9168 14.5443 49.2006 21.1296 49.6231 21.6929C49.6231 21.6929 51.0466 21.4692 51.4513 21.6929C53.7008 22.9519 56.0924 28.9183 55.5362 31.5382ZM64.9981 15.6768C64.7555 17.8092 63.9047 20.5805 61.3215 22.3413C60.9688 21.598 60.5927 20.8659 60.1938 20.1462C63.4846 17.7902 62.5332 12.3197 60.9334 11.0168C59.5583 9.90332 56.045 10.7316 53.8547 12.3777C52.7057 11.4653 51.4999 10.6914 50.2219 10.0974C52.7222 7.92833 56.839 6.26693 60.0447 6.26693C61.2552 6.26693 62.1913 6.50833 62.7533 6.96392C64.184 8.12713 65.43 11.9067 64.9981 15.6768Z" fill="url(#paint0_linear_54_2413)"/>
<defs>
<linearGradient id="paint0_linear_54_2413" x1="35.5" y1="0" x2="35.5" y2="71" gradientUnits="userSpaceOnUse">
<stop stop-color="#FF9900"/>
<stop offset="1" stop-color="#300002"/>
</linearGradient>
</defs>
</svg>
