<svg width="45" height="45" viewBox="0 0 45 45" fill="none" xmlns="http://www.w3.org/2000/svg">
<circle cx="22.5" cy="22.5" r="22.5" fill="#A40FD9" fill-opacity="0.8"/>
<path d="M32.397 18.0964C32.397 12.6464 27.9499 8.24303 22.5 8.24303C17.0504 8.24303 12.603 12.6464 12.603 18.0964C12.6465 22.936 17.4861 29.3883 20.32 32.7453C18.271 33.0069 16.3089 33.6172 16.3089 34.7072C16.3089 36.0587 19.4044 36.8 22.5 36.8C25.5955 36.8 28.6911 36.1025 28.6911 34.7072C28.6911 33.6172 26.7292 33.0069 24.6799 32.7453C27.5139 29.3881 32.3969 22.9357 32.3969 18.0964H32.397ZM22.5 8.89708C27.6012 8.89708 31.743 13.0389 31.743 18.14C31.743 23.9822 23.9823 32.6585 22.5 34.2718C21.0176 32.7022 13.2571 23.9823 13.2571 18.14C13.2573 12.9951 17.3992 8.89708 22.5 8.89708ZM28.0371 34.7075C28.0371 35.2743 25.9009 36.1462 22.5 36.1462C19.1429 36.1462 16.9629 35.3178 16.9629 34.7075C16.9629 34.315 18.1838 33.574 20.8432 33.3559C21.6279 34.2715 22.1948 34.8383 22.282 34.9255L22.5001 35.1871L22.7182 34.9255C22.8053 34.8383 23.3722 34.2715 24.1569 33.3559C26.8165 33.574 28.0372 34.2715 28.0372 34.7075H28.0371Z" fill="white"/>
<path d="M24.0259 24.3748C24.6362 24.2439 25.2031 23.9823 25.7262 23.6773L27.0342 24.5929L28.8217 22.8489L27.9061 21.5408C28.2114 21.0177 28.473 20.4508 28.6036 19.8405L30.1732 19.5789V17.0937L28.6036 16.7884C28.4727 16.1781 28.2111 15.6112 27.9061 15.0881L28.8217 13.7801L27.0777 11.9926L25.7696 12.9082C25.2465 12.6029 24.6796 12.3413 24.0693 12.2107L23.8078 10.6411H21.3225L20.974 12.1235C20.3637 12.2544 19.7968 12.516 19.2737 12.821L17.9656 11.9054L16.1782 13.6494L17.0938 14.9575C16.7885 15.4806 16.5269 16.0475 16.3963 16.6578L14.8267 16.9194V19.4046L16.3963 19.7099C16.5272 20.3202 16.7887 20.8871 17.0938 21.4102L16.1782 22.7182L17.9222 24.5057L19.2303 23.5901C19.7534 23.8954 20.3202 24.157 20.9306 24.2876L21.1921 25.8572H23.6774L24.0259 24.3748ZM23.4593 23.808L23.154 25.2904H21.7587L21.4972 23.808L21.2791 23.7642C20.5816 23.6333 19.971 23.3283 19.4044 22.9796L19.2303 22.8489L18.0094 23.6773L17.0066 22.6745L17.8785 21.4536L17.7476 21.2793C17.3988 20.7124 17.1373 20.0584 16.9629 19.4046L16.9192 19.1865L15.4367 18.9249V17.5297L16.9192 17.2681L16.9629 17.05C17.0938 16.396 17.3553 15.742 17.7476 15.1754L17.8785 15.001L17.0503 13.7366L18.0531 12.7338L19.2739 13.6057L19.4483 13.4748C20.0152 13.126 20.6692 12.8645 21.323 12.6901L21.5411 12.6464L21.8461 11.2079H23.2414L23.503 12.6903L23.721 12.734C24.3751 12.8649 25.0291 13.1265 25.5957 13.5187L25.7701 13.6496L26.991 12.8212L27.9938 13.824L27.1219 15.0448L27.2528 15.2192C27.6453 15.7861 27.8631 16.4401 28.0375 17.0939L28.0812 17.312L29.5636 17.5736V18.9688L28.0807 19.2301L28.037 19.4482C27.9061 20.1023 27.6011 20.7563 27.2523 21.3229L27.1214 21.4973L27.9498 22.7179L26.947 23.7207L25.7262 22.8488L25.5518 22.9797C24.9849 23.3722 24.3309 23.6338 23.6771 23.7644L23.4593 23.808Z" fill="white"/>
<path d="M24.8978 15.8733C24.2437 15.2192 23.4154 14.8705 22.5 14.8705C20.6688 14.8705 19.1428 16.3964 19.1428 18.2276C19.1428 20.1023 20.6252 21.6282 22.5 21.6282C24.3312 21.6282 25.8572 20.1023 25.8572 18.2711C25.9006 17.3555 25.5519 16.4836 24.8979 15.8733H24.8978ZM22.4997 20.9742V21.3229V20.9742C20.9738 20.9742 19.753 19.7533 19.7966 18.2274C19.7966 16.745 21.0175 15.5243 22.5434 15.5243C23.2847 15.5243 23.9387 15.8296 24.4619 16.3527C24.985 16.8759 25.2465 17.5736 25.2465 18.2711C25.2028 19.7536 23.9822 20.9742 22.4997 20.9742V20.9742Z" fill="white"/>
</svg>
