<svg width="23" height="22" viewBox="0 0 23 22" fill="none" xmlns="http://www.w3.org/2000/svg">
<g id="chat icon">
<path id="Vector" d="M7.1875 10.0625C7.1875 10.4437 7.03605 10.8094 6.76647 11.079C6.49688 11.3485 6.13125 11.5 5.75 11.5C5.36875 11.5 5.00312 11.3485 4.73353 11.079C4.46395 10.8094 4.3125 10.4437 4.3125 10.0625C4.3125 9.68125 4.46395 9.31562 4.73353 9.04603C5.00312 8.77645 5.36875 8.625 5.75 8.625C6.13125 8.625 6.49688 8.77645 6.76647 9.04603C7.03605 9.31562 7.1875 9.68125 7.1875 10.0625ZM12.9375 10.0625C12.9375 10.4437 12.786 10.8094 12.5165 11.079C12.2469 11.3485 11.8812 11.5 11.5 11.5C11.1188 11.5 10.7531 11.3485 10.4835 11.079C10.214 10.8094 10.0625 10.4437 10.0625 10.0625C10.0625 9.68125 10.214 9.31562 10.4835 9.04603C10.7531 8.77645 11.1188 8.625 11.5 8.625C11.8812 8.625 12.2469 8.77645 12.5165 9.04603C12.786 9.31562 12.9375 9.68125 12.9375 10.0625ZM17.25 11.5C17.6312 11.5 17.9969 11.3485 18.2665 11.079C18.536 10.8094 18.6875 10.4437 18.6875 10.0625C18.6875 9.68125 18.536 9.31562 18.2665 9.04603C17.9969 8.77645 17.6312 8.625 17.25 8.625C16.8688 8.625 16.5031 8.77645 16.2335 9.04603C15.964 9.31562 15.8125 9.68125 15.8125 10.0625C15.8125 10.4437 15.964 10.8094 16.2335 11.079C16.5031 11.3485 16.8688 11.5 17.25 11.5Z" fill="#C6C6C6"/>
<path id="Vector_2" d="M3.11219 21.2793L3.14094 21.2736C5.77156 20.7517 7.37869 20.0632 8.12619 19.6851C9.22672 19.9786 10.361 20.1265 11.5 20.125C17.8509 20.125 23 15.6199 23 10.0625C23 4.50512 17.8509 0 11.5 0C5.14912 0 0 4.50512 0 10.0625C0 12.5925 1.06806 14.9069 2.83188 16.675C2.70848 17.8108 2.45575 18.9287 2.07862 20.0071L2.07431 20.0229C1.96714 20.3318 1.85016 20.6372 1.72356 20.9386C1.61 21.206 1.82994 21.505 2.116 21.459C2.44901 21.4045 2.78112 21.3446 3.11219 21.2793ZM4.26219 16.8116C4.28232 16.6011 4.25579 16.3888 4.18448 16.1898C4.11317 15.9907 3.99883 15.8099 3.84962 15.6601C2.32588 14.1306 1.4375 12.1727 1.4375 10.0625C1.4375 5.474 5.75575 1.4375 11.5 1.4375C17.2442 1.4375 21.5625 5.474 21.5625 10.0625C21.5625 14.6524 17.2442 18.6875 11.5 18.6875C10.4867 18.689 9.4776 18.5575 8.4985 18.2965C8.15634 18.2048 7.79238 18.2427 7.47644 18.4029C6.92013 18.6846 5.69394 19.2222 3.69006 19.6866C3.96962 18.7481 4.16116 17.7856 4.26219 16.8116Z" fill="#C6C6C6"/>
</g>
</svg>
