<svg width="45" height="45" viewBox="0 0 45 45" fill="none" xmlns="http://www.w3.org/2000/svg">
<path d="M39.2513 10.6125C35.5763 7.36875 29.8369 5.75063 22.0294 5.76C14.2351 5.77125 8.66818 7.39875 5.32881 10.6425C3.91506 12.0169 3.39943 14.0531 3.97693 15.9863L4.55818 17.9306C5.09818 19.7438 6.92256 20.955 8.82568 20.7638L12.6413 20.3813C14.2782 20.2163 15.5719 19.0481 15.8494 17.4806L16.5826 13.3463C18.4367 12.5151 20.4387 12.0643 22.4701 12.0206C24.5813 11.9588 26.5126 12.2869 28.2638 13.005L29.4488 17.4206C29.8726 19.0088 31.2976 20.1956 32.9701 20.3569L36.8082 20.7281C38.7357 20.9156 40.4363 19.6913 40.7832 17.8706L41.1544 15.9263C41.5201 13.9988 40.7982 11.9775 39.2513 10.6125ZM22.0313 26.25C22.4043 26.25 22.762 26.3982 23.0257 26.6619C23.2894 26.9256 23.4376 27.2833 23.4376 27.6563V30.9375H25.3126C25.6855 30.9375 26.0432 31.0857 26.3069 31.3494C26.5706 31.6131 26.7188 31.9708 26.7188 32.3438C26.7188 32.7167 26.5706 33.0744 26.3069 33.3381C26.0432 33.6018 25.6855 33.75 25.3126 33.75H22.0313C21.6583 33.75 21.3007 33.6018 21.0369 33.3381C20.7732 33.0744 20.6251 32.7167 20.6251 32.3438V27.6563C20.6251 27.2833 20.7732 26.9256 21.0369 26.6619C21.3007 26.3982 21.6583 26.25 22.0313 26.25ZM22.5001 20.625C19.765 20.625 17.142 21.7115 15.208 23.6455C13.274 25.5794 12.1876 28.2025 12.1876 30.9375C12.1876 33.6726 13.274 36.2956 15.208 38.2295C17.142 40.1635 19.765 41.25 22.5001 41.25C25.2351 41.25 27.8581 40.1635 29.7921 38.2295C31.7261 36.2956 32.8126 33.6726 32.8126 30.9375C32.8126 28.2025 31.7261 25.5794 29.7921 23.6455C27.8581 21.7115 25.2351 20.625 22.5001 20.625ZM15.0001 30.9375C15.0001 28.9484 15.7902 27.0407 17.1968 25.6342C18.6033 24.2277 20.5109 23.4375 22.5001 23.4375C24.4892 23.4375 26.3968 24.2277 27.8034 25.6342C29.2099 27.0407 30.0001 28.9484 30.0001 30.9375C30.0001 32.9266 29.2099 34.8343 27.8034 36.2408C26.3968 37.6473 24.4892 38.4375 22.5001 38.4375C20.5109 38.4375 18.6033 37.6473 17.1968 36.2408C15.7902 34.8343 15.0001 32.9266 15.0001 30.9375Z" fill="#157B11"/>
</svg>
