<svg width="295" height="295" viewBox="0 0 295 295" fill="none" xmlns="http://www.w3.org/2000/svg">
<path d="M295 198.489H181.83V131.77H295V198.489ZM182.52 197.785H294.31V132.474H182.52V197.785Z" fill="#E0E0E0"/>
<path d="M271.653 167.345H196.987V169.575H271.653V167.345Z" fill="#F0F0F0"/>
<path d="M276.798 175.661H196.987V178.095H276.798V175.661Z" fill="#F0F0F0"/>
<path d="M276.798 184.074H196.987V186.508H276.798V184.074Z" fill="#F0F0F0"/>
<path d="M223.082 155.266H196.987V161.056H223.082V155.266Z" fill="#F0F0F0"/>
<path d="M294.655 132.122H182.196V142.744H294.655V132.122Z" fill="#E0E0E0"/>
<path d="M286.002 141.155C285.857 141.014 287.308 139.234 289.234 137.18C291.161 135.126 292.852 133.571 292.991 133.705C293.129 133.838 291.685 135.625 289.759 137.686C287.832 139.748 286.141 141.295 286.002 141.155Z" fill="white"/>
<path d="M293.004 141.154C292.866 141.295 291.181 139.748 289.248 137.686C287.314 135.625 285.871 133.845 286.016 133.705C286.161 133.564 287.839 135.112 289.773 137.18C291.706 139.248 293.135 141.014 293.004 141.154Z" fill="white"/>
<path d="M155.741 0H43.2822V66.0222H155.741V0Z" fill="#E6E6E6"/>
<path d="M132.747 35.2306H58.0803V37.4606H132.747V35.2306Z" fill="#F0F0F0"/>
<path d="M137.891 43.5458H58.0803V45.9798H137.891V43.5458Z" fill="#F0F0F0"/>
<path d="M137.891 51.9595H58.0803V54.3935H137.891V51.9595Z" fill="#F0F0F0"/>
<path d="M84.1753 23.1517H58.0803V28.9414H84.1753V23.1517Z" fill="#F0F0F0"/>
<path d="M155.741 0H43.2822V10.6226H155.741V0Z" fill="#E0E0E0"/>
<path d="M146.709 8.98347C146.564 8.8498 148.014 7.06295 149.941 5.00877C151.867 2.95459 153.559 1.39989 153.697 1.54058C153.835 1.68128 152.392 3.4611 150.466 5.51528C148.539 7.56946 146.847 9.11009 146.709 8.98347Z" fill="white"/>
<path d="M153.697 8.9835C153.559 9.1242 151.874 7.57653 149.941 5.51531C148.007 3.4541 146.564 1.68132 146.709 1.54062C146.854 1.39992 148.532 2.94759 150.466 5.0088C152.399 7.07002 153.842 8.84984 153.697 8.9835Z" fill="white"/>
<path d="M113.15 122.646H0V55.9202H113.15V122.646ZM0.690527 121.942H112.459V56.6237H0.690527V121.942Z" fill="#E0E0E0"/>
<path d="M89.81 91.5024H15.1433V93.7325H89.81V91.5024Z" fill="#F0F0F0"/>
<path d="M94.9544 99.8177H15.1433V102.252H94.9544V99.8177Z" fill="#F0F0F0"/>
<path d="M94.9544 108.231H15.1433V110.665H94.9544V108.231Z" fill="#F0F0F0"/>
<path d="M41.2383 79.4236H15.1433V85.2133H41.2383V79.4236Z" fill="#F0F0F0"/>
<path d="M112.804 56.2719H0.345215V66.8945H112.804V56.2719Z" fill="#E0E0E0"/>
<path d="M243.735 137.933H110.947V259.045H243.735V137.933Z" fill="#E6E6E6"/>
<path d="M117.624 99.7825H13.6033V209.885H117.624V99.7825Z" fill="#F0F0F0"/>
<path d="M117.624 99.7825H13.6033V111.777H117.624V99.7825Z" fill="#E0E0E0"/>
<path d="M22.1935 105.657C22.1746 106.092 22.0307 106.511 21.7797 106.864C21.5287 107.216 21.1817 107.486 20.7817 107.639C20.3817 107.792 19.9463 107.822 19.5296 107.726C19.1129 107.629 18.7332 107.41 18.4376 107.096C18.142 106.781 17.9436 106.385 17.8669 105.957C17.7903 105.529 17.8388 105.087 18.0064 104.686C18.174 104.286 18.4534 103.944 18.8098 103.704C19.1663 103.464 19.5841 103.336 20.0115 103.335C20.6025 103.35 21.1637 103.602 21.5725 104.037C21.9814 104.472 22.2047 105.054 22.1935 105.657V105.657Z" fill="white"/>
<path d="M31.0531 105.657C31.0355 106.094 30.8921 106.516 30.6408 106.87C30.3896 107.225 30.0415 107.497 29.6399 107.651C29.2383 107.806 28.8009 107.837 28.3822 107.74C27.9635 107.643 27.5819 107.423 27.285 107.107C26.988 106.792 26.7888 106.394 26.7122 105.963C26.6355 105.533 26.6848 105.089 26.8538 104.687C27.0229 104.285 27.3042 103.942 27.6629 103.702C28.0216 103.462 28.4417 103.334 28.871 103.335C29.462 103.35 30.0233 103.602 30.4321 104.037C30.841 104.472 31.0642 105.054 31.0531 105.657V105.657Z" fill="white"/>
<path d="M39.9125 105.657C39.8949 106.094 39.7515 106.516 39.5002 106.87C39.2489 107.225 38.9008 107.497 38.4992 107.651C38.0976 107.806 37.6603 107.837 37.2415 107.74C36.8228 107.643 36.4413 107.423 36.1443 107.107C35.8474 106.792 35.6482 106.394 35.5716 105.963C35.4949 105.533 35.5442 105.089 35.7132 104.687C35.8822 104.285 36.1636 103.942 36.5223 103.702C36.8809 103.462 37.3011 103.334 37.7304 103.335C38.3214 103.35 38.8826 103.602 39.2915 104.037C39.7003 104.472 39.9236 105.054 39.9125 105.657V105.657Z" fill="white"/>
<path d="M280.147 24.0803H147.358V158.911H280.147V24.0803Z" fill="#F0F0F0"/>
<path d="M280.147 24.0803H147.358V39.8736H280.147V24.0803Z" fill="#E0E0E0"/>
<path d="M158.669 31.8187C158.645 32.3929 158.455 32.9471 158.125 33.4126C157.794 33.878 157.336 34.2343 156.808 34.437C156.28 34.6397 155.706 34.6801 155.156 34.553C154.605 34.4259 154.104 34.137 153.714 33.7221C153.323 33.3073 153.061 32.7847 152.96 32.2194C152.858 31.6541 152.922 31.0709 153.143 30.5422C153.364 30.0135 153.733 29.5626 154.204 29.2455C154.674 28.9284 155.226 28.7591 155.79 28.7585C156.569 28.777 157.31 29.1094 157.85 29.6829C158.389 30.2564 158.684 31.0244 158.669 31.8187V31.8187Z" fill="white"/>
<path d="M169.49 29.7504C169.873 30.174 170.125 30.7029 170.215 31.2713C170.304 31.8397 170.228 32.4225 169.995 32.947C169.762 33.4716 169.383 33.9147 168.904 34.2211C168.426 34.5275 167.869 34.6838 167.305 34.6703C166.74 34.6569 166.191 34.4744 165.727 34.1456C165.263 33.8167 164.905 33.3561 164.696 32.8211C164.487 32.286 164.437 31.7003 164.553 31.1367C164.669 30.5732 164.945 30.0568 165.347 29.6519C165.91 29.1064 166.662 28.8104 167.438 28.8288C168.215 28.8473 168.953 29.1787 169.49 29.7504V29.7504Z" fill="white"/>
<path d="M181.995 31.8187C181.971 32.3929 181.782 32.9471 181.451 33.4126C181.12 33.878 180.662 34.2343 180.134 34.437C179.607 34.6397 179.032 34.6801 178.482 34.553C177.932 34.4259 177.43 34.137 177.04 33.7221C176.649 33.3073 176.387 32.7847 176.286 32.2194C176.185 31.6541 176.248 31.0709 176.469 30.5422C176.691 30.0135 177.059 29.5626 177.53 29.2455C178 28.9284 178.552 28.7591 179.116 28.7585C179.895 28.777 180.636 29.1094 181.176 29.6829C181.715 30.2564 182.01 31.0244 181.995 31.8187V31.8187Z" fill="white"/>
<path d="M251.462 294.817C251.462 294.916 203.512 295 144.382 295C85.2524 295 37.2815 294.916 37.2815 294.817C37.2815 294.719 85.2248 294.634 144.382 294.634C203.54 294.634 251.462 294.726 251.462 294.817Z" fill="#263238"/>
<path d="M204.741 208.696C194.072 201.106 191.656 187.015 192.077 174.345C192.146 172.235 191.918 169.998 192.906 168.147C193.893 166.297 196.199 165.024 198.057 165.91C199.597 166.649 200.267 168.478 201.13 169.99C202.281 172.005 203.969 173.646 205.998 174.725C207.317 175.428 208.953 175.851 210.258 175.119C212.054 174.113 212.261 171.601 212.247 169.491C212.247 165.566 212.224 161.645 212.178 157.729C212.054 155.626 212.264 153.516 212.8 151.482C213.442 149.484 214.871 147.634 216.825 147.071C218.78 146.508 221.217 147.669 221.659 149.723C221.735 150.593 221.756 151.467 221.721 152.34C221.776 153.219 222.177 154.183 222.985 154.45C223.793 154.718 224.635 154.106 225.257 153.487C227.384 151.376 228.834 148.626 230.18 145.91C231.527 143.195 232.846 140.402 234.779 138.087C236.713 135.773 239.385 133.937 242.375 133.761C245.365 133.585 248.479 135.456 249.225 138.411C249.971 141.366 248.279 144.384 246.463 146.782C243.722 150.343 240.492 153.483 236.871 156.104C236.165 156.497 235.601 157.111 235.262 157.855C234.814 159.262 236.119 160.669 237.479 161.112C239.019 161.633 240.69 161.471 242.313 161.668C243.935 161.865 245.662 162.583 246.276 164.13C247.119 166.283 245.351 168.534 243.618 170.012C240.138 172.966 236.186 175.291 231.934 176.885C230.415 177.447 228.82 177.947 227.591 179.03C226.362 180.114 225.63 182.006 226.368 183.49C227.107 184.975 229.006 185.446 230.601 185.144C232.196 184.841 233.612 183.969 235.131 183.385C237.969 182.294 241.629 182.491 243.418 184.989C243.972 185.849 244.322 186.829 244.442 187.85C244.562 188.872 244.448 189.908 244.108 190.877C243.417 192.805 242.353 194.573 240.98 196.076C236.457 201.581 230.581 205.764 223.952 208.197C217.371 210.518 211.274 211.151 204.734 208.71" fill="#FF725E"/>
<path d="M246.186 135.499C246.186 135.499 246.124 135.569 245.986 135.696L245.372 136.251C244.833 136.744 244.039 137.461 243.038 138.411C240.199 141.096 237.563 143.996 235.152 147.085C233.612 149.034 232.017 151.243 230.318 153.641C228.619 156.04 226.866 158.629 225.125 161.38C223.27 164.28 221.571 167.282 220.036 170.37C219.235 171.981 218.531 173.663 217.806 175.379L215.665 180.62C212.844 187.222 210.386 193.979 208.304 200.859C206.627 206.489 205.471 212.267 204.852 218.116C204.45 222.063 204.385 226.039 204.658 229.998C204.769 231.405 204.872 232.481 204.969 233.213C205.01 233.565 205.038 233.846 205.066 234.05V234.338C205.036 234.247 205.015 234.153 205.003 234.057C204.969 233.853 204.928 233.579 204.872 233.227C204.748 232.523 204.617 231.412 204.492 230.005C204.159 226.039 204.182 222.05 204.562 218.088C205.143 212.214 206.274 206.409 207.938 200.754C210.003 193.854 212.453 187.08 215.279 180.465L217.474 175.246C218.199 173.536 218.911 171.841 219.719 170.223C221.264 167.125 222.977 164.116 224.849 161.211C226.617 158.397 228.399 155.85 230.076 153.473C231.754 151.095 233.377 148.872 234.91 146.93C237.346 143.849 240.017 140.97 242.9 138.32C243.922 137.384 244.736 136.68 245.289 136.209L245.931 135.681C246.01 135.612 246.095 135.55 246.186 135.499V135.499Z" fill="#263238"/>
<path d="M219.809 170.208C219.711 169.919 219.644 169.619 219.608 169.315C219.498 168.731 219.374 167.908 219.228 166.839C218.932 164.728 218.628 161.837 218.303 158.636C217.979 155.435 217.613 152.537 217.309 150.448C217.15 149.406 217.012 148.569 216.915 147.985C216.84 147.686 216.8 147.379 216.798 147.071C216.917 147.353 217.003 147.648 217.053 147.95C217.205 148.527 217.378 149.357 217.571 150.405C217.965 152.516 218.352 155.386 218.676 158.594C219.001 161.802 219.277 164.616 219.491 166.804C219.594 167.788 219.684 168.626 219.753 169.294C219.807 169.596 219.825 169.902 219.809 170.208V170.208Z" fill="#263238"/>
<path d="M246.38 165.158C246.044 165.232 245.702 165.274 245.358 165.284C244.667 165.347 243.687 165.432 242.471 165.573C240.041 165.84 236.699 166.332 233.032 167.036C229.365 167.739 226.071 168.534 223.703 169.146C222.522 169.456 221.569 169.737 220.941 169.927C220.605 170.049 220.258 170.133 219.905 170.18C220.224 170.017 220.557 169.883 220.899 169.779C221.548 169.547 222.488 169.224 223.661 168.879C226.016 168.175 229.31 167.338 232.991 166.621C236.108 166.013 239.254 165.567 242.416 165.284C243.638 165.179 244.626 165.136 245.316 165.122C245.671 165.098 246.027 165.11 246.38 165.158Z" fill="#263238"/>
<path d="M208.277 200.262C208.203 200.16 208.143 200.049 208.097 199.931L207.641 198.953C207.248 198.102 206.716 196.843 206.081 195.302C204.796 192.207 203.16 187.873 201.42 183.061C199.68 178.249 198.078 173.916 196.862 170.785C196.268 169.266 195.778 168.021 195.412 167.092L195.026 166.086C194.972 165.97 194.935 165.847 194.915 165.72C194.989 165.822 195.049 165.933 195.095 166.051L195.55 167.029C195.937 167.88 196.476 169.139 197.111 170.68C198.395 173.775 200.032 178.109 201.772 182.921C203.512 187.732 205.114 192.066 206.329 195.196C206.923 196.716 207.414 197.961 207.773 198.89C207.931 199.291 208.063 199.593 208.166 199.896C208.22 200.012 208.257 200.135 208.277 200.262V200.262Z" fill="#263238"/>
<path d="M243.549 188.675C243.438 188.74 243.32 188.789 243.197 188.823L242.175 189.175L238.397 190.42C235.207 191.475 230.802 192.98 225.968 194.641C221.134 196.301 216.708 197.778 213.497 198.763C211.895 199.263 210.59 199.642 209.685 199.896L208.643 200.17C208.521 200.209 208.396 200.235 208.27 200.247C208.38 200.183 208.499 200.133 208.622 200.1L209.644 199.748L213.421 198.503C216.611 197.448 221.017 195.942 225.851 194.282C230.684 192.622 235.104 191.144 238.315 190.159C239.924 189.66 241.222 189.28 242.133 189.027L243.176 188.752C243.297 188.713 243.422 188.687 243.549 188.675V188.675Z" fill="#263238"/>
<path d="M229.158 18.0304L225.602 19.3248L224.076 14.5903C221.273 5.86004 212.337 1.22407 204.127 4.17168C195.916 7.11928 191.545 16.6937 194.349 25.424L195.875 30.1585L192.305 31.4599C190.944 31.9978 189.838 33.0495 189.218 34.3963C188.598 35.7432 188.512 37.2816 188.977 38.6918L198.872 69.4974C199.077 70.1955 199.418 70.8444 199.875 71.4056C200.331 71.9667 200.894 72.4287 201.529 72.764C202.164 73.0994 202.859 73.3012 203.572 73.3576C204.285 73.414 205.002 73.3237 205.68 73.0922L242.534 59.6627C243.913 59.1257 245.034 58.0647 245.661 56.7028C246.289 55.341 246.373 53.7844 245.897 52.3605L235.995 21.5548C235.784 20.8587 235.438 20.2129 234.977 19.6561C234.515 19.0993 233.949 18.6428 233.311 18.3138C232.673 17.9849 231.976 17.7903 231.263 17.7416C230.55 17.6929 229.834 17.7911 229.158 18.0304V18.0304ZM201.068 22.9548C200.312 20.6848 200.447 18.2048 201.446 16.0345C202.445 13.8641 204.23 12.1718 206.426 11.3121C207.511 10.934 208.659 10.7824 209.802 10.8663C210.946 10.9502 212.061 11.2679 213.081 11.8003C214.101 12.3328 215.005 13.0692 215.74 13.9655C216.475 14.8618 217.025 15.8997 217.357 17.0173L218.876 21.7518L202.587 27.6892L201.068 22.9548ZM221.784 50.2922L224.311 58.1572C224.357 58.3149 224.342 58.4848 224.269 58.6315C224.196 58.7782 224.07 58.8905 223.917 58.9451L220.375 60.2325C220.234 60.2723 220.083 60.255 219.954 60.1842C219.826 60.1134 219.729 59.9945 219.684 59.8526L217.136 52.0228C215.731 51.9448 214.383 51.4314 213.273 50.5514C212.162 49.6713 211.342 48.4665 210.922 47.0984C210.321 45.2897 210.431 43.3144 211.227 41.5861C212.024 39.8579 213.446 38.5106 215.196 37.8265C216.06 37.5257 216.974 37.4053 217.885 37.4723C218.796 37.5393 219.684 37.7924 220.496 38.2165C221.309 38.6405 222.029 39.2269 222.615 39.9407C223.2 40.6545 223.638 41.481 223.903 42.371C224.348 43.7607 224.384 45.2524 224.009 46.6631C223.634 48.0738 222.863 49.3424 221.79 50.3133L221.784 50.2922Z" fill="#FF725E"/>
<path d="M225.443 19.2404C225.443 19.3389 218.849 21.8644 210.645 24.8683C202.442 27.8722 195.751 30.2852 195.716 30.2148C195.682 30.1445 202.311 27.5978 210.521 24.5869C218.731 21.576 225.409 19.149 225.443 19.2404Z" fill="#263238"/>
<path d="M233.274 20.5348C233.304 20.5958 233.33 20.6594 233.35 20.7247C233.405 20.8654 233.467 21.0483 233.55 21.2735C233.73 21.787 233.978 22.4975 234.289 23.3839L236.941 31.2489C238.045 34.5834 239.364 38.537 240.828 42.9268C241.519 45.1287 242.334 47.422 243.093 49.835C243.5 51.0784 243.675 52.3882 243.611 53.6971C243.553 54.3779 243.362 55.0401 243.052 55.6458C242.72 56.2494 242.277 56.7821 241.747 57.2146C240.68 58.0079 239.496 58.623 238.239 59.0366L234.683 60.338L227.95 62.7932L216.549 66.9297L208.85 69.6874L206.778 70.3909L206.226 70.5738C206.167 70.6005 206.104 70.6172 206.04 70.623C206.04 70.623 206.095 70.623 206.212 70.5386L206.751 70.3205L208.822 69.5256L216.48 66.6554L227.86 62.4344L234.579 59.9582L238.135 58.6497C239.356 58.2529 240.506 57.6565 241.54 56.8839C242.033 56.4826 242.445 55.9882 242.755 55.4277C243.047 54.8676 243.224 54.2522 243.273 53.6198C243.336 52.3585 243.168 51.0963 242.776 49.8983C242.03 47.5065 241.243 45.192 240.531 42.9901C239.095 38.5933 237.769 34.6256 236.72 31.2911C235.67 27.9566 234.786 25.2763 234.179 23.3909C233.888 22.4694 233.668 21.7518 233.488 21.2312L233.322 20.6685C233.301 20.6258 233.285 20.581 233.274 20.5348V20.5348Z" fill="#263238"/>
<path d="M213.829 10.8337C213.829 10.8337 213.463 10.6508 212.786 10.3694C211.821 9.99179 210.801 9.78251 209.768 9.75031C208.238 9.69682 206.714 9.98995 205.308 10.6086C203.597 11.3789 202.135 12.6248 201.089 14.2034C200.035 15.7774 199.47 17.6376 199.466 19.5428C199.48 21.1044 199.713 22.6559 200.156 24.1507C200.515 25.431 200.888 26.4511 201.137 27.1616C201.284 27.5225 201.404 27.894 201.496 28.2731C201.3 27.9357 201.136 27.58 201.006 27.2108C200.723 26.5074 200.315 25.5084 199.915 24.221C199.423 22.7105 199.155 21.1338 199.121 19.5428C199.102 17.5656 199.681 15.6304 200.778 13.9994C201.861 12.3631 203.383 11.0787 205.163 10.299C206.613 9.67703 208.184 9.40265 209.755 9.49705C210.81 9.55184 211.847 9.80215 212.814 10.2357C213.072 10.3572 213.322 10.4983 213.559 10.6578C213.658 10.7018 213.749 10.7611 213.829 10.8337V10.8337Z" fill="#263238"/>
<path d="M214.146 38.3611C214.256 38.293 214.372 38.2342 214.491 38.1852C214.837 38.0263 215.195 37.8969 215.562 37.7983C216.144 37.6233 216.744 37.5194 217.35 37.4888C218.175 37.4436 218.999 37.5705 219.774 37.8616C221.542 38.4947 223.164 40.3308 223.965 42.786C224.35 44.1036 224.35 45.5065 223.965 46.824C223.54 48.254 222.776 49.5559 221.742 50.6158L221.783 50.4259C222.702 52.9936 223.703 55.7794 224.739 58.6848L224.801 58.8607L224.628 58.924L223.047 59.4586L219.594 60.6335L219.422 60.6897L219.367 60.5139C218.421 57.6014 217.385 54.886 216.604 52.2198L216.756 52.3394C215.406 52.2251 214.119 51.7089 213.055 50.855C212.092 50.0996 211.303 49.1393 210.742 48.0411C210.236 47.0672 209.984 45.9771 210.01 44.8754C210.042 43.7494 210.318 42.6446 210.818 41.64C211.318 40.6354 212.03 39.7559 212.903 39.0646C213.263 38.7674 213.666 38.53 214.098 38.3611C213.708 38.5969 213.33 38.8528 212.965 39.1279C212.006 39.9544 211.272 41.0177 210.832 42.2162C210.454 43.1199 210.277 44.0977 210.314 45.0792C210.351 46.0607 210.601 47.0218 211.046 47.8933C211.597 48.9498 212.368 49.8715 213.304 50.5947C214.319 51.4064 215.546 51.8957 216.832 52.0017H216.95L216.984 52.1072C217.744 54.7242 218.787 57.4607 219.746 60.3872L219.518 60.2747L222.971 59.0999L224.546 58.5582L224.435 58.7974C223.406 55.892 222.412 53.0991 221.5 50.5314V50.4259L221.583 50.3415C222.587 49.3255 223.336 48.0779 223.765 46.7044C224.131 45.4441 224.131 44.1026 223.765 42.8423C223.013 40.4786 221.459 38.6847 219.774 38.0516C219.028 37.7586 218.232 37.6222 217.433 37.6506C216.837 37.6645 216.244 37.7471 215.665 37.8968C214.636 38.1571 214.153 38.3963 214.146 38.3611Z" fill="#263238"/>
<path d="M192.802 241.486L123.825 241.162C119.842 241.14 116.03 239.508 113.227 236.624C110.424 233.741 108.859 229.842 108.875 225.784L109.607 49.6239C109.615 47.6134 110.012 45.6242 110.776 43.7701C111.539 41.916 112.653 40.2333 114.055 38.8181C115.457 37.403 117.119 36.2832 118.946 35.5228C120.773 34.7624 122.729 34.3762 124.702 34.3864L193.672 34.71C197.655 34.7305 201.468 36.3608 204.272 39.2429C207.077 42.1249 208.644 46.0231 208.629 50.0812L207.897 226.234C207.889 228.245 207.492 230.235 206.729 232.09C205.966 233.945 204.852 235.629 203.45 237.045C202.048 238.461 200.387 239.582 198.56 240.344C196.733 241.106 194.776 241.494 192.802 241.486V241.486Z" fill="#455A64"/>
<path d="M193.569 40.7671H180.2C179.764 40.7753 179.333 40.871 178.933 41.0487C178.534 41.2264 178.172 41.4827 177.869 41.8028C177.567 42.1229 177.329 42.5006 177.17 42.9143C177.01 43.3281 176.932 43.7698 176.941 44.2142V46.6834C176.949 47.1274 176.871 47.5688 176.712 47.9821C176.552 48.3955 176.314 48.7727 176.011 49.0923C175.709 49.4118 175.347 49.6674 174.947 49.8443C174.547 50.0213 174.117 50.1161 173.681 50.1235L147.621 50.0039C146.739 49.9799 145.903 49.6005 145.296 48.9489C144.689 48.2973 144.36 47.4268 144.382 46.5286V44.0594C144.405 43.1624 144.077 42.293 143.471 41.6416C142.865 40.9902 142.031 40.61 141.151 40.5842H136.448L124.744 40.5279C121.96 40.511 119.283 41.6186 117.299 43.6083C115.315 45.5979 114.185 48.3074 114.158 51.1435L113.467 223.09C113.461 224.497 113.727 225.891 114.249 227.194C114.772 228.496 115.541 229.681 116.513 230.68C117.486 231.68 118.641 232.474 119.915 233.019C121.188 233.563 122.555 233.847 123.936 233.853L192.767 234.177C194.149 234.183 195.519 233.912 196.798 233.379C198.078 232.847 199.241 232.062 200.223 231.071C201.205 230.08 201.985 228.902 202.52 227.604C203.055 226.305 203.333 224.913 203.339 223.505L204.03 51.5586C204.047 48.7145 202.954 45.9801 200.992 43.9565C199.03 41.9329 196.36 40.7857 193.569 40.7671V40.7671Z" fill="white"/>
<path d="M184.308 211.236L133.127 211.011C132.595 211.011 132.167 210.42 132.174 209.702L132.229 196.062C132.229 195.358 132.664 194.753 133.196 194.753L184.378 194.992C184.672 195.044 184.936 195.21 185.113 195.455C185.291 195.7 185.369 196.006 185.33 196.308L185.282 209.934C185.282 210.659 184.84 211.243 184.308 211.236Z" fill="#FF725E"/>
<path d="M146.898 202.052C146.863 201.76 146.722 201.533 146.476 201.371C146.23 201.209 145.927 201.128 145.569 201.128C145.308 201.128 145.079 201.171 144.882 201.255C144.688 201.34 144.536 201.457 144.426 201.605C144.318 201.753 144.264 201.922 144.264 202.11C144.264 202.268 144.302 202.404 144.377 202.517C144.454 202.629 144.552 202.722 144.671 202.797C144.791 202.871 144.916 202.931 145.047 202.979C145.178 203.026 145.298 203.063 145.408 203.092L146.008 203.254C146.162 203.294 146.334 203.35 146.522 203.421C146.713 203.492 146.895 203.59 147.068 203.713C147.243 203.834 147.388 203.99 147.501 204.181C147.615 204.371 147.672 204.605 147.672 204.882C147.672 205.202 147.588 205.491 147.42 205.748C147.255 206.006 147.012 206.211 146.693 206.364C146.375 206.516 145.989 206.592 145.535 206.592C145.111 206.592 144.745 206.523 144.435 206.387C144.127 206.25 143.884 206.059 143.707 205.815C143.532 205.57 143.433 205.286 143.41 204.963H144.149C144.168 205.186 144.243 205.371 144.374 205.517C144.507 205.662 144.674 205.77 144.876 205.841C145.08 205.91 145.3 205.945 145.535 205.945C145.808 205.945 146.054 205.901 146.271 205.812C146.489 205.722 146.661 205.596 146.788 205.437C146.915 205.275 146.979 205.086 146.979 204.871C146.979 204.674 146.924 204.515 146.814 204.391C146.704 204.268 146.56 204.168 146.381 204.091C146.202 204.014 146.008 203.947 145.8 203.889L145.073 203.681C144.611 203.548 144.245 203.359 143.975 203.112C143.706 202.866 143.571 202.543 143.571 202.145C143.571 201.814 143.661 201.525 143.84 201.279C144.021 201.03 144.263 200.838 144.567 200.701C144.873 200.562 145.215 200.493 145.592 200.493C145.974 200.493 146.312 200.561 146.609 200.698C146.905 200.833 147.14 201.018 147.313 201.253C147.489 201.487 147.581 201.754 147.591 202.052H146.898ZM149.565 200.574V206.488H148.849V200.574H149.565ZM155.043 202.422C154.98 202.228 154.896 202.053 154.792 201.899C154.69 201.743 154.568 201.611 154.425 201.501C154.285 201.391 154.125 201.307 153.946 201.25C153.767 201.192 153.571 201.163 153.357 201.163C153.007 201.163 152.688 201.254 152.401 201.434C152.114 201.615 151.886 201.882 151.717 202.234C151.548 202.587 151.463 203.019 151.463 203.531C151.463 204.043 151.549 204.475 151.72 204.827C151.891 205.18 152.123 205.446 152.416 205.627C152.708 205.808 153.038 205.899 153.403 205.899C153.742 205.899 154.04 205.826 154.298 205.682C154.558 205.536 154.76 205.33 154.905 205.064C155.051 204.797 155.124 204.482 155.124 204.12L155.344 204.166H153.565V203.531H155.817V204.166C155.817 204.653 155.713 205.077 155.505 205.437C155.299 205.797 155.015 206.076 154.651 206.274C154.289 206.47 153.873 206.569 153.403 206.569C152.88 206.569 152.42 206.445 152.023 206.199C151.628 205.953 151.32 205.602 151.099 205.148C150.88 204.694 150.77 204.155 150.77 203.531C150.77 203.063 150.832 202.642 150.958 202.269C151.085 201.894 151.264 201.574 151.495 201.31C151.726 201.047 151.999 200.844 152.315 200.704C152.63 200.563 152.978 200.493 153.357 200.493C153.669 200.493 153.96 200.54 154.229 200.635C154.501 200.727 154.742 200.859 154.954 201.03C155.168 201.2 155.346 201.403 155.488 201.64C155.631 201.874 155.729 202.135 155.783 202.422H155.043ZM161.733 200.574V206.488H161.04L157.818 201.845H157.76V206.488H157.044V200.574H157.737L160.971 205.229H161.029V200.574H161.733ZM147.544 210.574H148.261V214.489C148.261 214.894 148.165 215.255 147.975 215.572C147.786 215.888 147.519 216.137 147.175 216.32C146.83 216.501 146.426 216.592 145.962 216.592C145.498 216.592 145.094 216.501 144.749 216.32C144.405 216.137 144.137 215.888 143.947 215.572C143.758 215.255 143.664 214.894 143.664 214.489V210.574H144.38V214.432C144.38 214.721 144.443 214.977 144.57 215.203C144.697 215.426 144.878 215.602 145.113 215.731C145.35 215.858 145.633 215.922 145.962 215.922C146.291 215.922 146.574 215.858 146.811 215.731C147.048 215.602 147.229 215.426 147.354 215.203C147.481 214.977 147.544 214.721 147.544 214.432V210.574ZM149.691 216.488V210.574H151.689C152.153 210.574 152.532 210.658 152.826 210.825C153.123 210.991 153.342 211.215 153.485 211.498C153.627 211.781 153.699 212.097 153.699 212.445C153.699 212.794 153.627 213.11 153.485 213.395C153.344 213.68 153.127 213.907 152.832 214.077C152.538 214.244 152.16 214.328 151.7 214.328H150.268V213.693H151.677C151.995 213.693 152.25 213.638 152.442 213.528C152.635 213.418 152.774 213.27 152.861 213.083C152.95 212.895 152.994 212.682 152.994 212.445C152.994 212.208 152.95 211.997 152.861 211.81C152.774 211.623 152.634 211.477 152.44 211.371C152.245 211.263 151.987 211.209 151.666 211.209H150.407V216.488H149.691Z" fill="#E8E8E3"/>
<path d="M143.335 91.3127L125.575 91.2306L125.56 94.551L143.321 94.6331L143.335 91.3127Z" fill="#FF725E"/>
<path opacity="0.1" d="M143.335 91.3127L125.575 91.2306L125.56 94.551L143.321 94.6331L143.335 91.3127Z" fill="black"/>
<path d="M195.398 111.7C195.538 111.685 195.675 111.652 195.806 111.601C195.997 111.525 196.163 111.395 196.285 111.228C196.407 111.06 196.48 110.86 196.496 110.651C196.496 109.533 196.496 107.901 196.496 105.804C196.496 104.756 196.496 103.581 196.496 102.287C196.496 101.97 196.496 101.64 196.496 101.309C196.541 100.988 196.473 100.662 196.303 100.388C196.208 100.256 196.084 100.149 195.942 100.075C195.799 100 195.641 99.9603 195.481 99.9584H194.404H184.426L126.67 99.7403C126.522 99.7378 126.376 99.7716 126.244 99.839C126.112 99.9063 125.997 100.005 125.911 100.127C125.744 100.402 125.68 100.73 125.731 101.049C125.731 101.752 125.731 102.456 125.731 103.159C125.731 104.566 125.731 105.973 125.731 107.38C125.731 108.084 125.731 108.787 125.731 109.491C125.702 109.818 125.702 110.148 125.731 110.476C125.767 110.616 125.835 110.746 125.928 110.856C126.021 110.966 126.138 111.052 126.27 111.109C126.406 111.164 126.551 111.19 126.698 111.186H130.213L145.549 111.27L171.513 111.432L189.018 111.573L193.776 111.629H195.012C195.295 111.629 195.433 111.629 195.433 111.629H195.012H193.776H189.018H171.513L145.549 111.545L130.213 111.482H126.698C126.504 111.489 126.311 111.456 126.132 111.383C125.95 111.304 125.788 111.184 125.659 111.031C125.53 110.879 125.436 110.698 125.386 110.504C125.346 110.319 125.332 110.13 125.344 109.941V109.42C125.344 108.717 125.344 108.013 125.344 107.31C125.344 105.903 125.344 104.496 125.344 103.089C125.344 102.385 125.344 101.682 125.344 100.978C125.331 100.791 125.331 100.603 125.344 100.416C125.37 100.209 125.449 100.012 125.572 99.8459C125.691 99.676 125.849 99.5381 126.032 99.4438C126.215 99.3495 126.417 99.3016 126.622 99.3042L184.377 99.6278L194.356 99.6981H195.433C195.623 99.6983 195.81 99.745 195.978 99.8344C196.146 99.9238 196.291 100.053 196.4 100.212C196.594 100.518 196.673 100.885 196.621 101.246C196.621 101.576 196.621 101.907 196.621 102.224C196.621 103.504 196.621 104.679 196.621 105.741C196.621 107.852 196.572 109.47 196.558 110.595C196.541 110.812 196.464 111.019 196.336 111.192C196.207 111.365 196.033 111.497 195.833 111.573C195.703 111.655 195.552 111.699 195.398 111.7V111.7Z" fill="#E0E0E0"/>
<path d="M163.393 103.272H130.91V106.374H163.393V103.272Z" fill="#FF725E"/>
<path opacity="0.2" d="M163.393 103.272H130.91V106.374H163.393V103.272Z" fill="white"/>
<path d="M143.214 121.604L125.454 121.522L125.439 124.842L143.199 124.924L143.214 121.604Z" fill="#FF725E"/>
<path opacity="0.1" d="M143.214 121.604L125.454 121.522L125.439 124.842L143.199 124.924L143.214 121.604Z" fill="black"/>
<path d="M194.95 141.992C195.089 141.974 195.227 141.948 195.364 141.914C195.557 141.852 195.734 141.748 195.884 141.61C196.034 141.471 196.154 141.302 196.234 141.112C196.343 140.828 196.385 140.523 196.358 140.219C196.358 139.881 196.358 139.515 196.358 139.107C196.358 138.291 196.358 137.363 196.358 136.294V131.826C196.391 131.503 196.321 131.177 196.158 130.898C195.988 130.611 195.72 130.398 195.405 130.3C195.061 130.237 194.711 130.218 194.363 130.244H184.426L126.871 130.025C126.561 130.026 126.262 130.141 126.03 130.35C125.797 130.558 125.647 130.845 125.607 131.158C125.607 131.826 125.607 132.565 125.607 133.269C125.607 134.675 125.607 136.082 125.607 137.489C125.607 138.193 125.607 138.896 125.607 139.6C125.581 139.929 125.595 140.259 125.648 140.585C125.735 140.87 125.912 141.118 126.152 141.288C126.408 141.453 126.707 141.532 127.009 141.513H127.969H129.964L145.246 141.591L171.12 141.753L188.562 141.893L193.306 141.95H194.542H194.957H194.542H193.306H188.562H171.12L145.232 141.921L129.95 141.865H126.947C126.573 141.888 126.202 141.786 125.89 141.577C125.576 141.355 125.347 141.029 125.241 140.655C125.179 140.298 125.16 139.934 125.186 139.572C125.186 138.868 125.186 138.165 125.186 137.461C125.186 136.054 125.186 134.647 125.186 133.24C125.186 132.537 125.186 131.833 125.186 131.13C125.236 130.728 125.429 130.358 125.727 130.09C126.026 129.822 126.41 129.674 126.808 129.674L184.364 129.997L194.301 130.075C194.671 130.052 195.042 130.078 195.405 130.152C195.764 130.271 196.067 130.522 196.255 130.856C196.433 131.165 196.511 131.525 196.476 131.883C196.476 132.213 196.476 132.537 196.476 132.86C196.476 134.134 196.476 135.302 196.476 136.378C196.476 137.454 196.476 138.362 196.476 139.192C196.476 139.593 196.476 139.966 196.476 140.31C196.501 140.625 196.451 140.941 196.331 141.232C196.241 141.426 196.111 141.598 195.95 141.737C195.79 141.875 195.601 141.976 195.398 142.034C195.248 142.047 195.096 142.032 194.95 141.992V141.992Z" fill="#E0E0E0"/>
<path d="M143.08 153.211L125.32 153.129L125.306 156.449L143.066 156.531L143.08 153.211Z" fill="#FF725E"/>
<path opacity="0.1" d="M143.08 153.211L125.32 153.129L125.306 156.449L143.066 156.531L143.08 153.211Z" fill="black"/>
<path d="M194.811 173.585C194.951 173.568 195.089 173.543 195.226 173.508C195.418 173.446 195.594 173.343 195.744 173.206C195.894 173.069 196.014 172.901 196.096 172.713C196.204 172.429 196.246 172.123 196.22 171.82C196.22 171.475 196.22 171.116 196.22 170.701C196.22 169.892 196.22 168.956 196.22 167.887V163.42C196.253 163.096 196.183 162.771 196.02 162.491C195.845 162.21 195.579 162 195.267 161.9C194.923 161.835 194.573 161.814 194.224 161.837H184.288L126.732 161.619C126.423 161.62 126.124 161.735 125.891 161.943C125.659 162.152 125.509 162.439 125.469 162.752C125.469 163.455 125.469 164.159 125.469 164.862C125.469 166.269 125.469 167.676 125.469 169.083C125.469 169.786 125.469 170.49 125.469 171.193C125.443 171.52 125.457 171.848 125.51 172.171C125.593 172.458 125.771 172.707 126.014 172.875C126.268 173.043 126.568 173.122 126.87 173.1H129.874L145.156 173.184L171.03 173.346L188.472 173.487L193.216 173.543H194.452C194.728 173.543 194.867 173.543 194.867 173.543C194.867 173.543 194.728 173.543 194.452 173.543H193.216H188.472H171.03L145.156 173.466L129.874 173.402H126.87C126.497 173.428 126.125 173.327 125.814 173.114C125.5 172.892 125.27 172.567 125.165 172.192C125.103 171.835 125.084 171.471 125.11 171.109C125.11 170.406 125.11 169.702 125.11 168.999C125.11 167.592 125.11 166.185 125.11 164.778C125.11 164.074 125.11 163.371 125.11 162.632C125.158 162.23 125.35 161.861 125.647 161.593C125.945 161.324 126.328 161.176 126.725 161.176L184.281 161.499L194.217 161.577C194.587 161.554 194.959 161.58 195.322 161.654C195.681 161.774 195.984 162.024 196.172 162.358C196.35 162.667 196.428 163.027 196.393 163.385C196.393 163.715 196.393 164.046 196.393 164.363C196.393 165.636 196.393 166.804 196.393 167.88C196.393 168.956 196.393 169.864 196.393 170.694C196.393 171.095 196.393 171.468 196.393 171.812C196.419 172.127 196.369 172.444 196.248 172.734C196.158 172.928 196.028 173.1 195.867 173.239C195.707 173.377 195.518 173.479 195.315 173.536C195.153 173.593 194.981 173.609 194.811 173.585V173.585Z" fill="#E0E0E0"/>
<path d="M162.699 134.441L130.217 134.291L130.203 137.393L162.685 137.543L162.699 134.441Z" fill="#FF725E"/>
<path opacity="0.2" d="M162.699 134.441L130.217 134.291L130.203 137.393L162.685 137.543L162.699 134.441Z" fill="white"/>
<path d="M133.154 167.845C133.134 168.128 133.033 168.399 132.863 168.623C132.693 168.848 132.462 169.017 132.198 169.109C131.935 169.202 131.651 169.213 131.381 169.142C131.111 169.071 130.868 168.922 130.681 168.711C130.494 168.501 130.372 168.239 130.33 167.959C130.287 167.678 130.327 167.391 130.443 167.134C130.56 166.876 130.748 166.658 130.984 166.509C131.22 166.359 131.495 166.283 131.773 166.29C132.158 166.312 132.519 166.488 132.777 166.779C133.036 167.07 133.171 167.453 133.154 167.845V167.845Z" fill="#FF725E"/>
<path d="M137.553 167.866C137.567 168.064 137.54 168.263 137.475 168.451C137.41 168.638 137.307 168.81 137.174 168.955C137.041 169.101 136.88 169.217 136.701 169.296C136.522 169.375 136.329 169.416 136.134 169.416C135.939 169.416 135.746 169.375 135.567 169.296C135.388 169.217 135.227 169.101 135.094 168.955C134.961 168.81 134.858 168.638 134.793 168.451C134.728 168.263 134.701 168.064 134.715 167.866C134.701 167.668 134.728 167.469 134.793 167.281C134.858 167.094 134.961 166.922 135.094 166.777C135.227 166.631 135.388 166.515 135.567 166.436C135.746 166.357 135.939 166.316 136.134 166.316C136.329 166.316 136.522 166.357 136.701 166.436C136.88 166.515 137.041 166.631 137.174 166.777C137.307 166.922 137.41 167.094 137.475 167.281C137.54 167.469 137.567 167.668 137.553 167.866V167.866Z" fill="#FF725E"/>
<path d="M141.959 167.887C141.938 168.17 141.837 168.441 141.667 168.665C141.497 168.89 141.266 169.059 141.002 169.151C140.739 169.244 140.455 169.255 140.185 169.184C139.915 169.114 139.672 168.964 139.485 168.753C139.298 168.543 139.176 168.281 139.134 168.001C139.092 167.72 139.131 167.434 139.247 167.176C139.364 166.918 139.552 166.701 139.788 166.551C140.025 166.401 140.299 166.325 140.578 166.332C140.962 166.356 141.321 166.532 141.579 166.823C141.838 167.113 141.974 167.495 141.959 167.887Z" fill="#FF725E"/>
<path d="M146.357 167.908C146.337 168.191 146.235 168.462 146.065 168.687C145.895 168.911 145.664 169.08 145.401 169.173C145.138 169.265 144.854 169.276 144.584 169.205C144.314 169.135 144.071 168.985 143.884 168.775C143.697 168.564 143.575 168.302 143.533 168.022C143.49 167.742 143.53 167.455 143.646 167.197C143.762 166.939 143.95 166.722 144.187 166.572C144.423 166.422 144.698 166.346 144.976 166.353C145.36 166.377 145.72 166.553 145.978 166.844C146.236 167.134 146.372 167.516 146.357 167.908Z" fill="#FF725E"/>
<path d="M150.756 167.922C150.737 168.206 150.636 168.477 150.467 168.703C150.298 168.929 150.067 169.099 149.804 169.192C149.54 169.285 149.256 169.298 148.986 169.228C148.716 169.158 148.472 169.008 148.284 168.798C148.096 168.588 147.974 168.326 147.931 168.045C147.888 167.765 147.927 167.477 148.043 167.219C148.16 166.961 148.348 166.743 148.584 166.593C148.821 166.443 149.096 166.367 149.375 166.375C149.757 166.398 150.116 166.573 150.374 166.862C150.632 167.151 150.769 167.532 150.756 167.922Z" fill="#FF725E"/>
<path d="M155.162 167.943C155.143 168.225 155.043 168.495 154.876 168.721C154.708 168.946 154.48 169.116 154.218 169.211C153.957 169.305 153.674 169.32 153.404 169.253C153.135 169.185 152.891 169.04 152.702 168.833C152.513 168.626 152.387 168.367 152.34 168.089C152.293 167.81 152.328 167.524 152.439 167.265C152.55 167.006 152.732 166.786 152.965 166.631C153.197 166.477 153.469 166.395 153.746 166.396C154.135 166.41 154.502 166.581 154.768 166.872C155.033 167.162 155.175 167.547 155.162 167.943V167.943Z" fill="#FF725E"/>
<path d="M159.56 167.964C159.574 168.163 159.547 168.362 159.482 168.549C159.417 168.737 159.314 168.908 159.181 169.054C159.048 169.199 158.887 169.315 158.708 169.394C158.529 169.474 158.336 169.514 158.141 169.514C157.946 169.514 157.753 169.474 157.574 169.394C157.395 169.315 157.234 169.199 157.101 169.054C156.968 168.908 156.865 168.737 156.8 168.549C156.735 168.362 156.708 168.163 156.722 167.964C156.708 167.766 156.735 167.567 156.8 167.38C156.865 167.192 156.968 167.02 157.101 166.875C157.234 166.73 157.395 166.614 157.574 166.534C157.753 166.455 157.946 166.414 158.141 166.414C158.336 166.414 158.529 166.455 158.708 166.534C158.887 166.614 159.048 166.73 159.181 166.875C159.314 167.02 159.417 167.192 159.482 167.38C159.547 167.567 159.574 167.766 159.56 167.964Z" fill="#FF725E"/>
<path d="M163.959 167.986C163.94 168.267 163.84 168.538 163.673 168.763C163.505 168.988 163.277 169.158 163.015 169.253C162.754 169.347 162.471 169.362 162.202 169.295C161.932 169.228 161.688 169.082 161.499 168.875C161.31 168.668 161.184 168.41 161.137 168.131C161.091 167.853 161.125 167.566 161.236 167.307C161.347 167.048 161.53 166.828 161.762 166.674C161.994 166.519 162.266 166.437 162.543 166.438C162.932 166.453 163.299 166.624 163.565 166.914C163.83 167.204 163.972 167.589 163.959 167.986V167.986Z" fill="#FF725E"/>
<path d="M168.357 168.007C168.338 168.29 168.238 168.562 168.069 168.787C167.899 169.013 167.669 169.183 167.405 169.276C167.142 169.37 166.858 169.382 166.587 169.312C166.317 169.242 166.073 169.093 165.886 168.882C165.698 168.672 165.575 168.411 165.532 168.13C165.49 167.849 165.529 167.562 165.645 167.304C165.761 167.045 165.949 166.828 166.186 166.678C166.423 166.527 166.697 166.451 166.976 166.459C167.359 166.483 167.718 166.658 167.976 166.947C168.234 167.236 168.371 167.616 168.357 168.007V168.007Z" fill="#FF725E"/>
<g opacity="0.2">
<path d="M133.154 167.845C133.134 168.128 133.033 168.399 132.863 168.623C132.693 168.848 132.462 169.017 132.198 169.109C131.935 169.202 131.651 169.213 131.381 169.142C131.111 169.071 130.868 168.922 130.681 168.711C130.494 168.501 130.372 168.239 130.33 167.959C130.287 167.678 130.327 167.391 130.443 167.134C130.56 166.876 130.748 166.658 130.984 166.509C131.22 166.359 131.495 166.283 131.773 166.29C132.158 166.312 132.519 166.488 132.777 166.779C133.036 167.07 133.171 167.453 133.154 167.845V167.845Z" fill="white"/>
<path d="M137.553 167.866C137.567 168.064 137.54 168.263 137.475 168.451C137.41 168.638 137.307 168.81 137.174 168.955C137.041 169.101 136.88 169.217 136.701 169.296C136.522 169.375 136.329 169.416 136.134 169.416C135.939 169.416 135.746 169.375 135.567 169.296C135.388 169.217 135.227 169.101 135.094 168.955C134.961 168.81 134.858 168.638 134.793 168.451C134.728 168.263 134.701 168.064 134.715 167.866C134.701 167.668 134.728 167.469 134.793 167.281C134.858 167.094 134.961 166.922 135.094 166.777C135.227 166.631 135.388 166.515 135.567 166.436C135.746 166.357 135.939 166.316 136.134 166.316C136.329 166.316 136.522 166.357 136.701 166.436C136.88 166.515 137.041 166.631 137.174 166.777C137.307 166.922 137.41 167.094 137.475 167.281C137.54 167.469 137.567 167.668 137.553 167.866V167.866Z" fill="white"/>
<path d="M141.959 167.887C141.938 168.17 141.837 168.441 141.667 168.666C141.497 168.89 141.266 169.059 141.002 169.152C140.739 169.244 140.455 169.255 140.185 169.184C139.915 169.114 139.672 168.964 139.485 168.754C139.298 168.543 139.176 168.281 139.134 168.001C139.092 167.721 139.131 167.434 139.247 167.176C139.364 166.918 139.552 166.701 139.788 166.551C140.025 166.401 140.299 166.325 140.578 166.332C140.962 166.356 141.321 166.532 141.579 166.823C141.838 167.113 141.974 167.495 141.959 167.887Z" fill="white"/>
<path d="M146.357 167.908C146.337 168.191 146.235 168.462 146.065 168.687C145.895 168.911 145.664 169.08 145.401 169.173C145.138 169.265 144.854 169.276 144.584 169.206C144.314 169.135 144.071 168.985 143.884 168.775C143.697 168.564 143.575 168.303 143.533 168.022C143.49 167.742 143.53 167.455 143.646 167.197C143.762 166.939 143.95 166.722 144.187 166.572C144.423 166.422 144.698 166.346 144.976 166.354C145.36 166.377 145.72 166.553 145.978 166.844C146.236 167.134 146.372 167.517 146.357 167.908Z" fill="white"/>
<path d="M150.756 167.922C150.737 168.206 150.637 168.477 150.467 168.703C150.298 168.929 150.067 169.099 149.804 169.192C149.541 169.285 149.256 169.298 148.986 169.228C148.716 169.158 148.472 169.008 148.284 168.798C148.097 168.588 147.974 168.326 147.931 168.045C147.888 167.765 147.928 167.477 148.044 167.219C148.16 166.961 148.348 166.743 148.585 166.593C148.821 166.443 149.096 166.367 149.375 166.375C149.758 166.398 150.116 166.573 150.374 166.862C150.632 167.151 150.769 167.532 150.756 167.922Z" fill="white"/>
<path d="M155.162 167.943C155.143 168.225 155.043 168.496 154.876 168.721C154.708 168.946 154.48 169.116 154.218 169.211C153.957 169.305 153.674 169.32 153.404 169.253C153.135 169.186 152.891 169.04 152.702 168.833C152.513 168.626 152.387 168.368 152.34 168.089C152.293 167.811 152.328 167.524 152.439 167.265C152.55 167.006 152.732 166.786 152.965 166.631C153.197 166.477 153.469 166.395 153.746 166.396C154.135 166.41 154.502 166.582 154.768 166.872C155.033 167.162 155.175 167.547 155.162 167.943V167.943Z" fill="white"/>
<path d="M159.56 167.965C159.574 168.163 159.547 168.362 159.482 168.549C159.417 168.737 159.314 168.908 159.181 169.054C159.048 169.199 158.887 169.315 158.708 169.394C158.529 169.474 158.336 169.515 158.141 169.515C157.946 169.515 157.753 169.474 157.574 169.394C157.395 169.315 157.234 169.199 157.101 169.054C156.968 168.908 156.865 168.737 156.8 168.549C156.735 168.362 156.708 168.163 156.722 167.965C156.708 167.766 156.735 167.567 156.8 167.38C156.865 167.192 156.968 167.021 157.101 166.875C157.234 166.73 157.395 166.614 157.574 166.535C157.753 166.455 157.946 166.414 158.141 166.414C158.336 166.414 158.529 166.455 158.708 166.535C158.887 166.614 159.048 166.73 159.181 166.875C159.314 167.021 159.417 167.192 159.482 167.38C159.547 167.567 159.574 167.766 159.56 167.965Z" fill="white"/>
<path d="M163.959 167.986C163.94 168.267 163.841 168.538 163.673 168.763C163.505 168.988 163.277 169.158 163.015 169.253C162.754 169.347 162.471 169.362 162.202 169.295C161.932 169.228 161.688 169.082 161.499 168.875C161.31 168.668 161.184 168.41 161.138 168.131C161.091 167.853 161.125 167.566 161.236 167.307C161.347 167.048 161.53 166.828 161.762 166.674C161.994 166.519 162.266 166.437 162.543 166.438C162.932 166.453 163.3 166.624 163.565 166.914C163.83 167.204 163.972 167.589 163.959 167.986V167.986Z" fill="white"/>
<path d="M168.358 168.007C168.338 168.29 168.238 168.562 168.069 168.787C167.9 169.013 167.669 169.183 167.406 169.276C167.142 169.37 166.858 169.382 166.588 169.312C166.317 169.242 166.073 169.093 165.886 168.882C165.698 168.672 165.575 168.411 165.533 168.13C165.49 167.849 165.529 167.562 165.645 167.304C165.762 167.045 165.95 166.828 166.186 166.678C166.423 166.527 166.698 166.451 166.976 166.459C167.359 166.483 167.718 166.658 167.976 166.947C168.234 167.236 168.371 167.616 168.358 168.007V168.007Z" fill="white"/>
</g>
<path d="M162.108 66.4513C162.588 66.2361 162.995 65.882 163.278 65.4329C163.562 64.9839 163.71 64.4598 163.703 63.9258C163.721 63.5787 163.669 63.2316 163.551 62.9055C163.433 62.5794 163.251 62.2812 163.016 62.029C162.782 61.7769 162.499 61.5761 162.185 61.4389C161.872 61.3017 161.534 61.231 161.193 61.231C160.852 61.231 160.514 61.3017 160.201 61.4389C159.887 61.5761 159.605 61.7769 159.37 62.029C159.135 62.2812 158.953 62.5794 158.835 62.9055C158.717 63.2316 158.665 63.5787 158.683 63.9258C158.673 64.4651 158.819 64.9955 159.104 65.45C159.389 65.9045 159.8 66.2627 160.285 66.4795C156.418 67.0704 156.591 71.3476 156.591 71.3476L165.733 71.3898C165.733 71.3898 165.947 67.0352 162.108 66.4513Z" fill="#FF725E"/>
<path opacity="0.1" d="M162.108 66.4513C162.588 66.2361 162.995 65.882 163.278 65.4329C163.562 64.9839 163.71 64.4598 163.703 63.9258C163.721 63.5787 163.669 63.2316 163.551 62.9055C163.433 62.5794 163.251 62.2812 163.016 62.029C162.782 61.7769 162.499 61.5761 162.185 61.4389C161.872 61.3017 161.534 61.231 161.193 61.231C160.852 61.231 160.514 61.3017 160.201 61.4389C159.887 61.5761 159.605 61.7769 159.37 62.029C159.135 62.2812 158.953 62.5794 158.835 62.9055C158.717 63.2316 158.665 63.5787 158.683 63.9258C158.673 64.4651 158.819 64.9955 159.104 65.45C159.389 65.9045 159.8 66.2627 160.285 66.4795C156.418 67.0704 156.591 71.3476 156.591 71.3476L165.733 71.3898C165.733 71.3898 165.947 67.0352 162.108 66.4513Z" fill="black"/>
<path d="M176.964 74.1484L144.379 73.9978L144.361 77.9654L176.947 78.1161L176.964 74.1484Z" fill="#FF725E"/>
<path opacity="0.2" d="M176.964 74.1484L144.379 73.9978L144.361 77.9654L176.947 78.1161L176.964 74.1484Z" fill="white"/>
<path d="M57.1687 94.7104H56.8441L55.905 94.7807C55.3968 94.8118 54.8914 94.88 54.3927 94.9847C54.0698 95.0309 53.7494 95.0943 53.4329 95.1747L52.3626 95.4772C50.5409 96.0466 48.8221 96.9138 47.2734 98.0449C45.2273 99.5579 43.5188 101.495 42.2602 103.729C41.5204 105.017 40.9318 106.389 40.5062 107.816C40.0591 109.368 39.8017 110.97 39.7398 112.586C39.6986 113.435 39.7125 114.286 39.7812 115.133C39.7812 115.562 39.8986 115.991 39.9538 116.427C40.0003 116.867 40.0811 117.302 40.1955 117.728C40.8165 120.551 42.0764 123.187 43.8747 125.426C45.6731 127.665 47.9601 129.445 50.5534 130.623C52.4303 131.448 54.4421 131.909 56.485 131.981C58.5951 132.099 60.7073 131.791 62.6998 131.074L63.3075 130.841H63.3903L63.4594 130.884L72.1669 135.386L71.9114 135.611C70.9792 132.671 70.0815 129.821 69.2115 127.085V126.979L69.2874 126.902C71.3997 124.734 72.9678 122.08 73.8587 119.164C74.6656 116.497 74.9011 113.686 74.5492 110.919C74.2363 108.46 73.4602 106.085 72.2636 103.926C71.2321 102.071 69.9015 100.406 68.3276 99.0016C67.029 97.8897 65.5918 96.9577 64.0532 96.2299C62.8891 95.7184 61.6767 95.3295 60.4349 95.0692L59.0538 94.837L58.0525 94.7596L57.4449 94.7174H57.2377C57.3066 94.7096 57.376 94.7096 57.4449 94.7174H58.0594L59.0607 94.7596L60.4418 94.9636C61.699 95.2049 62.928 95.5798 64.1085 96.0822C65.6734 96.8013 67.1366 97.7312 68.4588 98.8469C70.0617 100.245 71.4205 101.91 72.4776 103.771C73.7082 105.954 74.5081 108.36 74.8323 110.855C75.2134 113.665 74.9943 116.525 74.1902 119.241C73.2935 122.218 71.7011 124.929 69.5498 127.141L69.5913 126.958C70.4613 129.695 71.3659 132.544 72.305 135.477L72.4362 135.907L72.0426 135.703L63.3351 131.207H63.487L62.8655 131.439C60.8346 132.167 58.6834 132.483 56.5334 132.368C54.4464 132.287 52.3926 131.81 50.4775 130.961C46.8244 129.367 43.785 126.597 41.8252 123.075C40.9233 121.448 40.2646 119.694 39.871 117.869C39.7632 117.432 39.6824 116.987 39.6293 116.54C39.574 116.096 39.4843 115.66 39.4636 115.224C39.2767 112.721 39.5364 110.204 40.23 107.795C40.6662 106.348 41.2712 104.959 42.0323 103.659C43.3209 101.404 45.065 99.455 47.1491 97.9394C48.7233 96.8054 50.4709 95.9448 52.3212 95.3928L53.4053 95.1114C53.7244 95.036 54.047 94.9773 54.372 94.9355C54.8759 94.8405 55.386 94.784 55.8981 94.7667L56.8441 94.7315C56.9517 94.7167 57.0601 94.7097 57.1687 94.7104Z" fill="#FF725E"/>
<path d="M61.1045 111.116H59.827L57.0649 107.162V104.566C57.0649 104.566 55.09 104.44 55.3248 107.837C55.5596 111.235 55.3248 110.37 55.3248 110.37C55.3248 110.37 51.1333 110.37 50.7881 110.757C50.4428 111.144 50.4221 115.266 50.3737 117.567C50.3473 118.121 50.5035 118.669 50.8175 119.123C51.1315 119.576 51.5854 119.91 52.107 120.071C52.2532 120.112 52.4041 120.134 52.5558 120.134C53.6054 120.134 58.9432 119.269 58.9432 119.269H61.146L61.1045 111.116Z" fill="#FF725E"/>
<path d="M64.7576 110.419L63.9704 119.311H61.7883V110.602L64.7576 110.419Z" fill="#FF725E"/>
<path d="M90.7837 291.447V285.432L80.1979 285.355L80.1082 294.451L80.7642 294.5C83.6851 294.69 95.6243 294.972 97.5854 294.353C99.7675 293.663 90.7837 291.447 90.7837 291.447Z" fill="#FF725E"/>
<path d="M97.8339 293.79C97.8339 293.888 93.8703 293.973 88.9882 293.973C84.1062 293.973 80.1426 293.888 80.1426 293.79C80.1426 293.691 84.1062 293.607 88.9882 293.607C93.8703 293.607 97.8339 293.691 97.8339 293.79Z" fill="#263238"/>
<path d="M90.9701 292.678C90.8804 292.629 90.9701 292.313 91.1842 291.975C91.3983 291.637 91.6883 291.497 91.7573 291.567C91.8264 291.637 91.6814 291.905 91.4742 292.193C91.2671 292.481 91.0599 292.728 90.9701 292.678Z" fill="#263238"/>
<path d="M91.6467 293.072C91.55 293.072 91.5984 292.678 91.8055 292.306C92.0127 291.933 92.2889 291.708 92.3649 291.764C92.4408 291.82 92.3165 292.137 92.1232 292.467C91.9298 292.798 91.7365 293.107 91.6467 293.072Z" fill="#263238"/>
<path d="M83.3329 293.762C83.2915 293.762 83.1326 293.635 82.9048 293.368C82.6266 293.024 82.3167 292.709 81.9794 292.425C81.6478 292.155 81.2526 291.978 80.8332 291.912C80.5086 291.869 80.3015 291.912 80.2808 291.869C80.26 291.827 80.4603 291.68 80.8401 291.651C81.3413 291.641 81.8302 291.81 82.2211 292.13C82.5874 292.434 82.8962 292.803 83.1326 293.22C83.2915 293.53 83.3743 293.734 83.3329 293.762Z" fill="#263238"/>
<path d="M91.0045 291.546C91.0529 291.63 90.8733 291.841 90.5695 291.954C90.2657 292.066 89.9964 292.024 89.9826 291.954C89.9688 291.884 90.1828 291.736 90.4452 291.637C90.7076 291.539 90.9493 291.461 91.0045 291.546Z" fill="#263238"/>
<path d="M90.8388 290.962C90.8388 291.067 90.5626 291.152 90.2035 291.159C89.8444 291.166 89.5613 291.082 89.5682 290.983C89.5751 290.885 89.8583 290.793 90.2035 290.786C90.5488 290.779 90.825 290.863 90.8388 290.962Z" fill="#263238"/>
<path d="M116.851 291.447V285.432L106.265 285.355L106.176 294.36L106.832 294.409C109.752 294.599 121.699 294.972 123.653 294.353C125.835 293.663 116.851 291.447 116.851 291.447Z" fill="#FF725E"/>
<path d="M123.901 293.804C123.901 293.902 119.944 293.987 115.056 293.987C110.167 293.987 106.217 293.902 106.217 293.804C106.217 293.706 110.174 293.621 115.056 293.621C119.938 293.621 123.901 293.706 123.901 293.804Z" fill="#263238"/>
<path d="M117.037 292.678C116.955 292.629 117.037 292.313 117.252 291.975C117.466 291.637 117.756 291.497 117.825 291.567C117.894 291.637 117.749 291.905 117.542 292.193C117.334 292.481 117.127 292.728 117.037 292.678Z" fill="#263238"/>
<path d="M117.714 293.072C117.624 293.072 117.666 292.678 117.88 292.306C118.094 291.933 118.363 291.708 118.439 291.764C118.515 291.82 118.384 292.137 118.191 292.467C117.997 292.798 117.811 293.107 117.714 293.072Z" fill="#263238"/>
<path d="M109.4 293.762C109.359 293.762 109.207 293.635 108.972 293.368C108.694 293.024 108.384 292.709 108.047 292.425C107.715 292.155 107.32 291.978 106.901 291.912C106.583 291.869 106.369 291.912 106.348 291.869C106.327 291.827 106.528 291.68 106.907 291.651C107.409 291.641 107.898 291.81 108.289 292.13C108.657 292.432 108.966 292.802 109.2 293.22C109.359 293.53 109.442 293.734 109.4 293.762Z" fill="#263238"/>
<path d="M117.072 291.546C117.12 291.63 116.941 291.841 116.637 291.954C116.333 292.066 116.064 292.024 116.05 291.954C116.036 291.884 116.25 291.736 116.513 291.637C116.775 291.539 117.017 291.461 117.072 291.546Z" fill="#263238"/>
<path d="M116.92 290.962C116.92 291.067 116.644 291.152 116.285 291.159C115.926 291.166 115.649 291.082 115.656 290.983C115.663 290.885 115.939 290.793 116.285 290.786C116.63 290.779 116.92 290.863 116.92 290.962Z" fill="#263238"/>
<path d="M155.852 112.832C155.576 112.544 154.892 112.684 154.892 112.684C154.961 112.279 154.961 111.865 154.892 111.46C154.768 111.066 153.898 111.144 153.898 111.144C153.858 110.812 153.858 110.477 153.898 110.145C153.905 110.071 153.889 109.997 153.853 109.933C153.818 109.869 153.763 109.818 153.698 109.786C153.286 109.615 152.844 109.534 152.399 109.547C151.868 109.16 154.022 106.086 154.823 105.101C155.624 104.116 155.479 103.349 154.768 103.349C154.278 103.349 151.764 106.304 150.991 107.296C150.217 108.288 148.166 111.045 148.097 108.843C148.028 106.641 147.158 104.981 146.613 104.7C146.067 104.418 145.487 105.08 145.784 105.692C146.045 106.387 146.208 107.117 146.267 107.858C146.342 108.449 146.317 109.049 146.191 109.631C145.963 110.714 145.651 111.777 145.259 112.811H145.204C145.204 112.811 130.137 127.535 129.046 128.583C128.072 129.526 108.489 127.465 104.56 127.043C103.224 126.843 101.876 126.749 100.527 126.761C98.8213 126.839 98.5175 127.085 96.8188 127.106C92.5289 127.154 88.2489 127.538 84.0165 128.253C82.1 128.584 80.3098 129.446 78.8413 130.744C77.3727 132.042 76.2822 133.725 75.6887 135.611C71.732 148.203 62.7689 178.01 61.1876 194.753C59.9927 196.961 58.914 199.231 57.956 201.556C56.8442 204.637 57.1135 204.743 57.4864 204.813C58.4946 205.003 59.6408 199.473 60.069 200.81C60.4971 202.147 57.8938 207.402 58.9503 207.557C60.3314 207.754 61.4293 201.929 61.5605 201.464C61.6917 201 62.3753 201.148 62.251 201.584C62.0508 202.203 60.1104 208.767 61.4638 208.978C62.2096 209.09 62.2925 207.704 62.2925 207.704C62.2925 207.704 63.6735 201.422 64.3019 201.549C64.9303 201.675 64.2605 205.383 63.9428 206.621C63.6252 207.859 64.0671 208.485 64.7162 208.183C65.1582 207.972 66.2147 204.208 66.5047 202.984C66.7947 201.76 67.5198 198.369 68.4934 200.332C69.467 202.294 70.9448 203.434 71.5524 203.462C71.6894 203.446 71.8184 203.389 71.923 203.297C72.0276 203.206 72.103 203.085 72.1394 202.949C72.1758 202.814 72.1715 202.67 72.1272 202.537C72.0829 202.404 72.0006 202.288 71.8908 202.203C71.3681 201.683 70.9195 201.091 70.5581 200.444C70.236 199.941 70.0023 199.384 69.8676 198.798C69.5893 197.631 69.4273 196.439 69.3842 195.238L69.2737 194.535C70.8205 186.733 75.2744 163.835 81.7032 149.209L84.341 154.739L85.4873 158.833L78.4577 176.512L108.44 176.111L103.966 158.566L109.4 140.275C115.277 140.409 130.365 140.634 132.878 139.473C136.041 138.066 152.399 117.018 152.399 117.018C153.466 116.174 154.487 115.272 155.458 114.316C155.458 114.316 156.453 113.465 155.852 112.832Z" fill="#FFBE9D"/>
<path d="M77.1389 163.448C78.009 160.423 82.4767 145.467 82.4767 145.467C82.4767 145.467 84.6726 157.658 84.0925 159.129C83.559 160.387 82.9286 161.601 82.2074 162.759C77.1389 170.617 77.8018 174.549 77.8018 174.549L108.427 173.599C108.496 169.238 105.961 159.093 105.437 157.475C104.912 155.857 106.659 150.56 106.659 150.56C106.659 150.56 110.112 146.979 109.987 145.136C109.922 143.481 109.721 141.833 109.387 140.212L128.031 140.915L127.444 128.042L100.665 125.312C99.733 127.992 91.3016 126.677 91.3016 126.677C82.2005 126.986 81.6342 128.689 77.8501 131.686C74.0661 134.682 67.803 160.402 67.803 160.402L77.1389 163.448Z" fill="#FF725E"/>
<path d="M95.2444 160.402C94.7136 160.498 94.1731 160.527 93.6354 160.486C92.6342 160.486 91.26 160.416 89.7478 160.261C88.2355 160.106 86.8683 159.888 85.8946 159.691C85.3578 159.621 84.8314 159.484 84.3271 159.283C84.867 159.284 85.4057 159.335 85.9361 159.438C86.9166 159.565 88.277 159.741 89.7823 159.895C91.2877 160.05 92.6549 160.156 93.6423 160.226C94.1806 160.233 94.717 160.292 95.2444 160.402V160.402Z" fill="#263238"/>
<path d="M97.3435 157.75C96.8126 158.015 96.2512 158.211 95.6725 158.334C92.9175 159.071 90.0752 159.414 87.2273 159.354C86.638 159.373 86.0487 159.317 85.4734 159.185C86.055 159.11 86.6413 159.079 87.2273 159.093C88.3114 159.058 89.803 158.981 91.4464 158.784C93.0899 158.587 94.5538 158.306 95.5896 158.08C96.1649 157.924 96.7513 157.813 97.3435 157.75V157.75Z" fill="#263238"/>
<path d="M107.646 145.917C107.632 146.453 107.561 146.987 107.432 147.507C107.253 148.485 106.976 149.821 106.624 151.285C106.272 152.748 105.934 154.099 105.63 155.013C105.508 155.537 105.327 156.044 105.091 156.526C105.13 155.991 105.227 155.462 105.381 154.95C105.644 153.852 105.941 152.586 106.272 151.2C106.604 149.814 106.921 148.548 107.184 147.451C107.277 146.923 107.432 146.408 107.646 145.917V145.917Z" fill="#263238"/>
<path d="M77.4634 161.654C75.8659 161.403 74.2893 161.029 72.7471 160.536C71.1713 160.16 69.6249 159.666 68.1206 159.058C69.7173 159.314 71.2936 159.687 72.8369 160.177C74.4131 160.551 75.9596 161.045 77.4634 161.654V161.654Z" fill="#263238"/>
<path d="M109.718 140.057C109.457 140.103 109.191 140.103 108.931 140.057C108.209 139.982 107.501 139.809 106.825 139.543C105.695 139.111 104.667 138.443 103.806 137.581C102.945 136.72 102.27 135.684 101.825 134.542C101.333 133.285 101.123 131.931 101.211 130.581C101.241 129.467 101.568 128.383 102.157 127.443C102.57 126.811 103.188 126.345 103.904 126.128C104.095 126.074 104.292 126.048 104.491 126.051C104.629 126.051 104.698 126.051 104.698 126.051C104.698 126.051 104.408 126.051 103.945 126.241C103.289 126.487 102.732 126.95 102.364 127.556C101.425 129.061 101.162 131.812 102.164 134.38C102.63 135.591 103.359 136.678 104.297 137.56C105.066 138.281 105.951 138.862 106.914 139.276C107.818 139.64 108.758 139.902 109.718 140.057V140.057Z" fill="#263238"/>
<path d="M125.814 140.662C125.641 138.505 125.586 136.339 125.648 134.176C125.594 132.014 125.659 129.851 125.842 127.697C126.015 129.852 126.07 132.015 126.007 134.176C126.065 136.34 126.001 138.506 125.814 140.662V140.662Z" fill="#263238"/>
<path d="M100.485 126.1C100.561 124.531 100.72 122.758 100.72 122.758C100.72 122.758 104.532 122.329 104.76 118.319C104.988 114.309 104.76 105.059 104.76 105.059L97.8546 101.457L90.1897 107.598L91.3705 127.648L98.4001 128.105C98.9374 128.12 99.4587 127.917 99.8496 127.542C100.241 127.166 100.469 126.647 100.485 126.1V126.1Z" fill="#FFBE9D"/>
<path d="M101.169 115.147C101.169 115.147 101.169 115.224 101.107 115.315C101.055 115.382 100.989 115.434 100.913 115.469C100.837 115.503 100.755 115.518 100.672 115.512C100.23 115.512 99.8018 114.992 99.6499 114.387C99.5777 114.094 99.5777 113.787 99.6499 113.493C99.664 113.365 99.7093 113.243 99.7817 113.137C99.854 113.032 99.9511 112.946 100.064 112.888C100.157 112.849 100.261 112.849 100.354 112.888C100.423 112.923 100.479 112.98 100.513 113.05C100.561 113.17 100.513 113.247 100.513 113.24C100.513 113.233 100.513 113.17 100.444 113.099C100.408 113.049 100.355 113.014 100.295 113.001C100.235 112.988 100.173 112.998 100.119 113.029C100.035 113.081 99.9643 113.154 99.9148 113.242C99.8653 113.329 99.8383 113.428 99.8363 113.529C99.7782 113.79 99.7782 114.062 99.8363 114.324C99.9744 114.872 100.347 115.315 100.679 115.358C100.744 115.367 100.81 115.362 100.873 115.344C100.935 115.326 100.994 115.294 101.045 115.252C101.128 115.196 101.155 115.14 101.169 115.147Z" fill="#EB996E"/>
<path d="M107.128 102.892C106.597 101.049 104.67 100.134 102.916 99.6277C100.244 98.8538 97.3575 98.5162 94.7473 99.494C92.1371 100.472 89.0021 102.188 89.0021 105.122C87.4622 104.995 86.5783 106.367 85.9707 108.07C85.5822 109.107 85.3494 110.198 85.2802 111.306V111.306C85.0868 115.147 84.0303 120.451 81.5858 123.265C80.2048 124.834 78.292 125.917 77.5048 127.873C76.8143 129.568 77.1734 131.58 76.5312 133.297C75.958 134.809 74.6944 135.885 73.7691 137.201C72.8264 138.693 72.2716 140.405 72.1568 142.176C72.0421 143.947 72.3711 145.718 73.1131 147.324C73.8603 148.889 74.9124 150.282 76.2052 151.419C77.4981 152.555 79.0045 153.412 80.6329 153.937C83.8584 154.937 87.298 154.971 90.542 154.035C92.9766 153.442 95.2477 152.295 97.1848 150.68C99.1669 149.031 100.528 146.734 101.038 144.179C101.528 141.309 100.741 138.39 100.154 135.534C98.3173 126.508 98.8421 126.037 101.162 117.658C101.218 117.51 101.245 117.356 101.287 117.208C101.328 117.06 101.349 116.99 101.376 116.877C101.442 116.546 101.477 116.209 101.48 115.871C101.141 116 100.773 116.027 100.42 115.949C100.066 115.872 99.7417 115.694 99.4843 115.435C99.2263 115.159 99.0465 114.817 98.9638 114.446C98.8811 114.074 98.8987 113.687 99.0147 113.325C99.1777 112.928 99.4204 112.572 99.7273 112.277C100.034 111.983 100.398 111.757 100.796 111.615C101.563 111.291 102.385 111.123 103.137 110.764C104.732 109.99 105.837 108.386 106.59 106.705C107.209 105.539 107.4 104.188 107.128 102.892V102.892Z" fill="#263238"/>
<path d="M101.445 115.337C101.591 115.556 101.712 115.792 101.804 116.04C102.012 116.483 102.288 117.109 102.592 117.834L102.647 117.968H102.502L101.811 118.031C101.335 118.031 100.934 118.122 100.465 118.115C100.424 118.106 100.386 118.086 100.355 118.058C100.323 118.03 100.299 117.994 100.285 117.954C100.265 117.89 100.265 117.821 100.285 117.757C100.301 117.662 100.322 117.568 100.347 117.475L100.472 116.976C100.534 116.642 100.631 116.317 100.762 116.005C100.749 116.345 100.7 116.682 100.617 117.011L100.52 117.51C100.485 117.679 100.423 117.939 100.52 117.918C100.865 117.918 101.356 117.841 101.811 117.813L102.502 117.75L102.412 117.904C102.115 117.201 101.867 116.54 101.721 116.082C101.594 115.849 101.501 115.597 101.445 115.337V115.337Z" fill="#FF725E"/>
<path d="M77.8016 174.549L108.426 173.599L121.754 226.6L119.302 287.395H103.109L105.091 227.894L93.2487 190.996L95.0717 289.752L78.7062 289.998L76.9868 197.173C76.9108 194.591 76.0822 188.773 76.3929 186.213L77.8016 174.549Z" fill="#263238"/>
<path d="M97.3229 191.749C96.8216 191.781 96.3184 191.751 95.8245 191.658C94.8992 191.545 93.6355 191.348 92.2475 191.067C90.8596 190.785 89.6166 190.462 88.7189 190.202C88.2391 190.094 87.7749 189.924 87.3379 189.695C87.3379 189.589 89.589 190.138 92.3511 190.708C95.1132 191.278 97.3367 191.644 97.3229 191.749Z" fill="#455A64"/>
<path d="M119.137 284.061C119.137 284.159 115.47 284.244 110.947 284.244C106.424 284.244 102.75 284.159 102.75 284.061C102.75 283.962 106.417 283.878 110.947 283.878C115.477 283.878 119.137 283.955 119.137 284.061Z" fill="#455A64"/>
<path d="M94.9268 287.184C94.9268 287.29 91.3636 287.367 86.9719 287.367C82.5801 287.367 79.0239 287.29 79.0239 287.184C79.0239 287.079 82.5871 287.001 86.9719 287.001C91.3567 287.001 94.9268 287.086 94.9268 287.184Z" fill="#455A64"/>
<path d="M92.8138 286.931C92.7172 286.931 92.289 265.355 91.854 238.742C91.419 212.129 91.1635 190.539 91.2532 190.539C91.343 190.539 91.7849 212.108 92.2131 238.735C92.6412 265.362 92.9174 286.931 92.8138 286.931Z" fill="#455A64"/>
<path d="M116.961 284.061C116.954 283.965 116.954 283.868 116.961 283.772V282.928C116.961 282.168 117.017 281.078 117.058 279.692C117.155 276.878 117.293 272.791 117.466 267.782C117.838 257.708 118.363 243.821 118.936 228.492C118.936 228.345 118.936 228.204 118.936 228.077V228.127C115.311 213.353 112.031 199.945 109.649 190.244L106.887 178.77C106.569 177.426 106.327 176.378 106.155 175.647C106.072 175.302 106.017 175.034 105.968 174.83C105.941 174.739 105.925 174.644 105.92 174.549C105.956 174.638 105.984 174.73 106.003 174.823C106.058 175.02 106.127 175.288 106.224 175.625C106.41 176.329 106.679 177.398 107.025 178.735C107.715 181.45 108.689 185.362 109.904 190.181C112.307 199.875 115.622 213.248 119.295 228.042V228.091C119.295 228.218 119.295 228.366 119.295 228.506C118.681 243.835 118.122 257.715 117.714 267.789C117.5 272.805 117.321 276.864 117.196 279.692C117.127 281.099 117.072 282.168 117.037 282.928C117.037 283.287 116.996 283.568 116.989 283.772C116.99 283.869 116.981 283.966 116.961 284.061V284.061Z" fill="#455A64"/>
<path d="M111.679 226.839C110.516 227.229 109.318 227.5 108.102 227.648C106.611 227.908 105.34 228.091 104.767 228.119V227.979C104.953 228.035 105.05 228.07 105.05 228.098C105.05 228.126 104.933 228.098 104.739 228.098H104.325L104.739 227.972C105.278 227.81 106.548 227.543 108.04 227.268C109.236 227.004 110.455 226.86 111.679 226.839Z" fill="#455A64"/>
<path d="M111.396 228.858C110.319 228.908 109.239 228.859 108.171 228.71C107.093 228.688 106.018 228.568 104.96 228.352C107.118 228.172 109.291 228.343 111.396 228.858V228.858Z" fill="#455A64"/>
<path opacity="0.2" d="M77.6704 175.667C78.0331 176.142 78.4899 176.533 79.0111 176.816C79.5322 177.098 80.106 177.265 80.6949 177.307C81.9283 177.455 83.1759 177.432 84.403 177.236C92.3096 176.343 100.686 175.52 108.426 173.599C98.4069 174.169 87.8212 173.979 77.8016 174.549L77.698 175.421" fill="black"/>
<g opacity="0.2">
<path d="M87.9939 190.054L93.6424 212.383L93.2488 190.997L87.9939 190.054Z" fill="black"/>
</g>
</svg>
