<svg width="12" height="18" viewBox="0 0 12 18" fill="none" xmlns="http://www.w3.org/2000/svg">
<path d="M12 1.5V0H0V1.5H4.125C4.95278 1.50243 5.75067 1.80967 6.3663 2.36304C6.98193 2.91642 7.37217 3.67716 7.4625 4.5H0V6H7.4625C7.37217 6.82284 6.98193 7.58358 6.3663 8.13696C5.75067 8.69033 4.95278 8.99757 4.125 9H0V10.7587L7.21275 17.25L8.21625 16.1355L1.9545 10.5H4.125C5.35207 10.4982 6.53339 10.034 7.43345 9.20001C8.3335 8.36599 8.88616 7.22338 8.98125 6H12V4.5H8.98125C8.8952 3.37383 8.41911 2.31292 7.635 1.5H12Z" fill="#616161" fill-opacity="0.9"/>
</svg>
