<svg width="29" height="22" viewBox="0 0 29 22" fill="none" xmlns="http://www.w3.org/2000/svg">
<path d="M21.4172 0.40637C22.4428 2.7902 22.8586 5.3218 23.2474 7.86008C23.176 7.88106 23.1047 7.90227 23.0332 7.92348C22.9819 7.775 22.9212 7.62928 22.8804 7.47758C22.5859 6.38463 22.2888 5.29227 22.0069 4.19569C21.9055 3.80117 21.6662 3.60483 21.3241 3.41164C20.8216 3.12793 20.3467 2.76219 19.9303 2.35426C19.6646 2.0941 19.4372 1.93537 19.0602 1.93953C16.5503 1.96707 14.0402 1.96971 11.5304 1.99367C11.3632 1.99543 11.1562 2.05953 11.0377 2.17326C10.5811 2.61178 10.1531 3.08229 9.5902 3.67069C11.0749 7.42303 11.8213 11.5129 11.5008 15.8608C10.788 15.3871 10.2363 15.0123 10.2035 14.0199C10.0396 9.05926 8.56527 4.57309 5.48527 0.712757C5.41594 0.625921 5.38151 0.509084 5.3307 0.406311H21.4172L21.4172 0.40637ZM2.76802 2.31916C3.48287 2.31916 4.19806 2.30744 4.91228 2.32924C5.05398 2.33346 5.25223 2.42698 5.32308 2.54487C7.45898 6.10678 9.12419 9.8477 9.33989 14.1278C9.34091 14.1448 9.32398 14.1626 9.26301 14.2869C7.98652 9.75805 5.68375 5.92356 2.72185 2.48674C2.73731 2.43096 2.75261 2.37506 2.76808 2.31916H2.76802ZM0.46875 5.4353C1.48996 5.39674 2.35367 5.35807 3.21749 5.34143C3.30448 5.33967 3.40717 5.45914 3.47999 5.54317C5.16496 7.4886 6.69412 9.54401 7.63669 12.0022C7.81604 12.4698 7.93877 12.9608 8.08769 13.441C6.13531 10.2521 3.41857 7.86746 0.46875 5.43524V5.4353ZM11.4471 21.5937C9.66997 18.6601 7.95824 15.8345 6.24635 13.0089L6.30912 12.9253C6.45262 13.0452 9.50552 15.5861 10.8766 16.7516C11.2586 17.0762 11.5472 17.0704 11.9444 16.7355C16.6064 12.8047 21.8086 9.82953 27.3322 7.4303C27.627 7.30227 27.9328 7.20084 28.2344 7.08951C28.3014 7.06491 28.3722 7.05119 28.4688 7.07651C22.0545 10.9429 15.9352 15.1764 11.4471 21.5937Z" fill="#616161" fill-opacity="0.9"/>
</svg>
