<svg width="45" height="45" viewBox="0 0 45 45" fill="none" xmlns="http://www.w3.org/2000/svg">
<circle cx="22.5" cy="22.5" r="22.5" fill="#FF8A00"/>
<path d="M29.7917 12.0833H19.375C18.226 12.0833 17.2917 13.0177 17.2917 14.1667V19.9854L12.3885 24.8885C12.2429 25.0342 12.1437 25.2198 12.1036 25.4218C12.0634 25.6239 12.084 25.8333 12.1628 26.0236C12.2417 26.2139 12.3751 26.3766 12.5464 26.491C12.7177 26.6055 12.919 26.6666 13.125 26.6667V31.875C13.125 32.1513 13.2347 32.4162 13.4301 32.6116C13.6254 32.8069 13.8904 32.9167 14.1667 32.9167H30.8333C31.1096 32.9167 31.3746 32.8069 31.5699 32.6116C31.7653 32.4162 31.875 32.1513 31.875 31.875V14.1667C31.875 13.0177 30.9406 12.0833 29.7917 12.0833ZM21.4583 30.8333H15.2083V25.0146L18.3333 21.8896L21.4583 25.0146V30.8333ZM29.7917 30.8333H23.5417V26.6667C23.7479 26.6671 23.9496 26.6063 24.1212 26.4919C24.2927 26.3775 24.4265 26.2148 24.5054 26.0242C24.5843 25.8337 24.6048 25.6241 24.5644 25.4219C24.5239 25.2196 24.4243 25.034 24.2781 24.8885L19.375 19.9854V14.1667H29.7917V30.8333Z" fill="white"/>
<path d="M21.4584 16.25H23.5417V18.3333H21.4584V16.25ZM25.625 16.25H27.7084V18.3333H25.625V16.25ZM25.625 20.449H27.7084V22.5H25.625V20.449ZM25.625 24.5833H27.7084V26.6667H25.625V24.5833ZM17.2917 25.625H19.375V27.7083H17.2917V25.625Z" fill="white"/>
</svg>
