<svg width="45" height="45" viewBox="0 0 45 45" fill="none" xmlns="http://www.w3.org/2000/svg">
<circle cx="22.5" cy="22.5" r="22.5" fill="#F9B72B"/>
<path d="M14.6875 13.6875C13.4023 13.6875 12.3438 14.7461 12.3438 16.0312V21.3289C11.8672 21.7594 11.5625 22.3758 11.5625 23.0625V30.0938H15.4688V28.5312H29.5312V30.0938H33.4375V23.0625C33.4375 22.3758 33.1328 21.7594 32.6562 21.3289V16.0312C32.6562 14.7461 31.5977 13.6875 30.3125 13.6875H14.6875ZM14.6875 15.25H30.3125C30.7461 15.25 31.0938 15.5977 31.0938 16.0312V20.7188H29.5312V19.9375C29.5312 18.6523 28.4727 17.5938 27.1875 17.5938H24.0625C23.4641 17.5938 22.9148 17.8281 22.5 18.2039C22.0729 17.8137 21.516 17.5962 20.9375 17.5938H17.8125C16.5273 17.5938 15.4688 18.6523 15.4688 19.9375V20.7188H13.9062V16.0312C13.9062 15.5977 14.2539 15.25 14.6875 15.25ZM17.8125 19.1562H20.9375C21.3711 19.1562 21.7188 19.5039 21.7188 19.9375V20.7188H17.0312V19.9375C17.0312 19.5039 17.3789 19.1562 17.8125 19.1562ZM24.0625 19.1562H27.1875C27.6211 19.1562 27.9688 19.5039 27.9688 19.9375V20.7188H23.2812V19.9375C23.2812 19.5039 23.6289 19.1562 24.0625 19.1562ZM13.9062 22.2812H31.0938C31.5273 22.2812 31.875 22.6289 31.875 23.0625V28.5312H31.0938V26.9688H13.9062V28.5312H13.125V23.0625C13.125 22.6289 13.4727 22.2812 13.9062 22.2812Z" fill="white"/>
</svg>
