<svg width="17" height="11" viewBox="0 0 17 11" fill="none" xmlns="http://www.w3.org/2000/svg">
<g id="video icon">
<path id="Vector" d="M2.83281 0C1.26829 0 0 1.09441 0 2.44443V8.55557C0 9.90551 1.26829 11 2.83281 11H9.91485C11.426 11 12.6607 9.97896 12.7433 8.69295L15.9337 10.306C16.1527 10.4168 16.4237 10.4179 16.6439 10.309C16.8642 10.2001 17 9.99778 17 9.77876V1.22125C17 1.00244 16.8644 0.800319 16.6445 0.691334C16.4247 0.582349 16.154 0.583131 15.935 0.693387L12.7428 2.30009C12.6563 1.01726 11.4232 0 9.91485 0H2.83281ZM1.41641 2.44443C1.41641 1.76943 2.05056 1.22222 2.83281 1.22222H9.91485C10.6971 1.22222 11.3313 1.76943 11.3313 2.44443V8.55557C11.3313 9.23048 10.6971 9.77779 9.91485 9.77779H2.83281C2.05056 9.77779 1.41641 9.23048 1.41641 8.55557V2.44443ZM12.7478 7.27859V3.71255L15.5836 2.28519V8.71238L12.7478 7.27859Z" fill="black"/>
</g>
</svg>
