<svg width="21" height="15" viewBox="0 0 21 15" fill="none" xmlns="http://www.w3.org/2000/svg">
<path d="M14 11.75C14 12.612 13.6576 13.4386 13.0481 14.0481C12.4386 14.6576 11.612 15 10.75 15H3.25C2.38805 15 1.5614 14.6576 0.951903 14.0481C0.34241 13.4386 0 12.612 0 11.75V3.25C0 2.38805 0.34241 1.5614 0.951903 0.951903C1.5614 0.34241 2.38805 0 3.25 0H10.75C11.612 0 12.4386 0.34241 13.0481 0.951903C13.6576 1.5614 14 2.38805 14 3.25V11.75ZM19.762 1.393C19.9157 1.5739 20.0001 1.8036 20 2.041V12.959C20.0001 13.15 19.9455 13.337 19.8426 13.4979C19.7398 13.6588 19.593 13.7869 19.4197 13.867C19.2464 13.9472 19.0537 13.976 18.8645 13.9501C18.6753 13.9243 18.4974 13.8447 18.352 13.721L15 10.87V4.128L18.352 1.279C18.4521 1.19387 18.5679 1.12929 18.6929 1.08894C18.8179 1.0486 18.9497 1.03328 19.0806 1.04387C19.2116 1.05445 19.3391 1.09074 19.456 1.15064C19.573 1.21055 19.6769 1.2929 19.762 1.393Z" fill="#157B11"/>
</svg>
