<svg width="62" height="67" viewBox="0 0 62 67" fill="none" xmlns="http://www.w3.org/2000/svg">
<path d="M45.2157 5.01757C45.2157 5.01757 43.9525 0 31 0C10.9485 0 0 12.6768 0 29.3714V66.4286H31C22.0454 66.4286 7.04918 53.5171 7.04918 42.811C7.04918 42.811 2.21429 41.5854 2.21429 34.4897C2.21429 28.8721 5.86011 27.9078 5.86011 27.9078C18.9277 27.9078 43.1786 11.0714 43.1786 11.0714C43.1786 11.0714 48.2604 25.9359 56.0259 27.9078C56.0259 27.9078 59.7857 28.5953 59.7857 34.4897C59.7857 41.5843 54.7692 42.811 54.7692 42.811C54.7017 53.5171 39.959 66.4286 31 66.4286H62V29.3714C62 4.55589 45.2157 5.01757 45.2157 5.01757Z" fill="#600D87"/>
<path d="M31.0004 49.8215C35.6283 49.8193 37.9422 46.5 35.6283 46.5H26.3715C24.0575 46.5 26.3703 49.8215 31.0004 49.8215ZM49.2683 34.875C49.2645 33.6748 48.8233 32.5171 48.0272 31.6189C48.8774 31.7418 49.7156 31.8846 50.5337 31.9887C51.2301 32.1924 51.9199 32.4105 52.5842 32.6652C52.7004 33.0604 52.6971 33.6339 52.5731 34.1875C52.4164 34.893 52.1955 35.5826 51.9132 36.2479C51.6243 36.9348 51.2957 37.6043 50.929 38.2529C50.743 38.5795 50.5526 38.9017 50.3367 39.2084C50.1163 39.5073 49.9126 39.8439 49.5772 40.0255C50.3278 39.7719 50.8482 39.1243 51.3718 38.5685C51.8756 37.9761 52.345 37.3484 52.7447 36.6719C53.1444 35.9955 53.5164 35.2902 53.7588 34.4986C53.9581 33.7845 54.1784 32.9674 53.8751 32.0396C54.8283 31.878 55.7041 31.5093 56.4636 30.7963C51.4814 32.9608 39.0261 22.8459 36.535 38.016C37.4174 35.7763 38.4592 34.2595 39.5996 33.2409C39.4095 33.765 39.3095 34.3175 39.304 34.875C39.304 36.1964 39.8289 37.4636 40.7632 38.3979C41.6976 39.3323 42.9648 39.8572 44.2861 39.8572C45.6075 39.8572 46.8747 39.3323 47.809 38.3979C48.7434 37.4636 49.2683 36.1964 49.2683 34.875ZM22.6968 34.875C22.6968 34.2993 22.5806 33.7546 22.3979 33.242C23.5394 34.2606 24.5801 35.7763 25.4647 38.0171C22.9736 22.8459 10.5183 32.9619 5.53613 30.7974C6.29563 31.5115 7.17138 31.8791 8.12463 32.0408C7.82017 32.9685 8.0427 33.7856 8.24088 34.4997C8.48335 35.2913 8.85313 35.9966 9.25281 36.673C9.65621 37.3427 10.1155 37.9772 10.6257 38.5696C11.1516 39.1254 11.6719 39.7741 12.4226 40.0266C12.0849 39.845 11.8845 39.5073 11.6631 39.2095C11.4497 38.9012 11.252 38.5823 11.0707 38.254C10.7029 37.6059 10.3742 36.9364 10.0865 36.249C9.80451 35.5834 9.58293 34.8939 9.42442 34.1886C9.30374 33.635 9.2971 33.0615 9.41556 32.6663C10.0822 32.4126 10.7597 32.1884 11.4461 31.9943C12.2676 31.888 13.1156 31.7451 13.9692 31.62C13.1761 32.5193 12.7367 33.676 12.7326 34.875C12.7326 35.5293 12.8614 36.1772 13.1118 36.7816C13.3622 37.3861 13.7292 37.9353 14.1918 38.3979C14.6544 38.8606 15.2037 39.2276 15.8081 39.4779C16.4126 39.7283 17.0604 39.8572 17.7147 39.8572C18.369 39.8572 19.0168 39.7283 19.6213 39.4779C20.2257 39.2276 20.775 38.8606 21.2376 38.3979C21.7002 37.9353 22.0672 37.3861 22.3176 36.7816C22.568 36.1772 22.6968 35.5293 22.6968 34.875ZM35.3681 53.2702C32.1076 52.0358 31.0004 53.9965 31.0004 53.9965C31.0004 53.9965 29.8933 52.0358 26.6327 53.2702C24.0852 54.2345 19.9146 53.6633 19.929 53.6677C26.5718 63.1061 35.429 63.1061 42.0718 53.6677C42.0873 53.6644 37.9156 54.2345 35.3681 53.2702Z" fill="#600D87"/>
</svg>
